<?xml version="1.0" encoding="UTF-8"?>
<svg version="1.1" xmlns="http://www.w3.org/2000/svg" width="474" height="474">
<path d="M0 0 C156.42 0 312.84 0 474 0 C474 156.42 474 312.84 474 474 C317.58 474 161.16 474 0 474 C0 317.58 0 161.16 0 0 Z " fill="#010101" transform="translate(0,0)"/>
<path d="M0 0 C2.82991704 0.01610125 5.65840664 0.00003814 8.48828125 -0.01904297 C20.21741291 -0.03235944 31.35065064 1.00337338 42.83203125 3.39111328 C43.57827759 3.54530228 44.32452393 3.69949127 45.09338379 3.85835266 C73.76848797 9.85318901 100.91548799 22.07523969 123.83203125 40.39111328 C124.76595703 41.12418701 124.76595703 41.12418701 125.71875 41.87207031 C141.81003067 54.50465937 155.42658025 68.29525368 166.83203125 85.39111328 C167.54230469 86.45072266 168.25257813 87.51033203 168.984375 88.60205078 C183.05261607 109.86052408 192.45902709 132.43027744 197.83203125 157.39111328 C198.10345947 158.64102051 198.3748877 159.89092773 198.65454102 161.17871094 C200.7446655 171.43153 201.27101444 181.38175873 201.16821289 191.82958984 C201.14454634 194.38948117 201.14769396 196.94832675 201.15429688 199.50830078 C201.13111313 213.41404319 200.06109324 227.15277022 197.08203125 240.76611328 C196.91501709 241.54011475 196.74800293 242.31411621 196.57592773 243.11157227 C193.99590174 254.59390219 190.89790916 266.4464324 185.23046875 276.82470703 C184.10921893 278.88241969 183.07070633 280.93975636 182.05859375 283.05126953 C174.16777873 299.44905893 164.35763254 314.66699352 151.97265625 328.06298828 C150.09217348 330.10818487 148.30269725 332.19920145 146.51953125 334.32861328 C124.277214 359.74109989 93.42824361 375.89604257 61.83203125 386.39111328 C61.83647247 385.66829666 61.8409137 384.94548004 61.8454895 384.20075989 C61.8858455 377.33239206 61.91615592 370.46404235 61.93565559 363.59558582 C61.94601812 360.06586899 61.96003645 356.53625149 61.98291016 353.0065918 C62.0091389 348.93293395 62.01856614 344.85937767 62.02734375 340.78564453 C62.03766632 339.54031448 62.04798889 338.29498444 62.05862427 337.01191711 C62.06004789 325.70054973 61.442214 314.87551764 55.89453125 304.82861328 C55.54712891 304.15765625 55.19972656 303.48669922 54.84179688 302.79541016 C53.41625317 300.08660865 52.02880288 297.61750645 50.015625 295.30126953 C48.83203125 293.39111328 48.83203125 293.39111328 49.14453125 290.14111328 C49.37140625 289.23361328 49.59828125 288.32611328 49.83203125 287.39111328 C51.04117188 287.05080078 52.2503125 286.71048828 53.49609375 286.35986328 C68.95024464 281.8518084 81.3282155 276.03570999 92.83203125 264.39111328 C93.87617187 263.37984375 93.87617187 263.37984375 94.94140625 262.34814453 C108.52137007 248.3207788 116.27806104 226.15418916 116.14453125 206.82861328 C116.1388916 205.96018799 116.13325195 205.0917627 116.12744141 204.19702148 C115.81423032 187.2696681 111.37048099 172.22729023 102.12060547 158.0300293 C95.15088445 147.23586053 92.5713459 140.31263285 95.26269531 127.31054688 C97.72219369 116.49123837 102.15349942 106.40883418 106.83203125 96.39111328 C102.21478421 94.85203094 97.6067368 95.12416136 92.76953125 95.07861328 C91.76986328 95.04960937 90.77019531 95.02060547 89.74023438 94.99072266 C77.78301085 94.88971947 69.4231929 99.26758874 60.83203125 107.39111328 C58.2692443 110.34196843 55.77035255 113.29392526 53.3515625 116.36376953 C50.83203125 118.39111328 50.83203125 118.39111328 47.48828125 118.38330078 C43.03277152 117.17422015 38.90903369 115.50848493 34.70117188 113.65087891 C24.77912132 109.44626653 14.95561356 109.00198804 4.26953125 109.01611328 C3.60728546 109.01632477 2.94503967 109.01653625 2.26272583 109.01675415 C-13.46592634 109.06683708 -26.69842411 112.25099347 -41.16796875 118.39111328 C-41.72742188 117.68986328 -42.286875 116.98861328 -42.86328125 116.26611328 C-49.44391374 108.47938416 -56.05160546 103.97225806 -65.16796875 99.39111328 C-65.82023437 99.01083984 -66.4725 98.63056641 -67.14453125 98.23876953 C-73.24593558 95.68277583 -80.57564268 96.10087534 -87.10546875 95.82861328 C-88.07548828 95.78542969 -89.04550781 95.74224609 -90.04492188 95.69775391 C-92.41915476 95.59249235 -94.79347796 95.49035621 -97.16796875 95.39111328 C-96.87148437 96.07560547 -96.575 96.76009766 -96.26953125 97.46533203 C-92.47854325 107.5343037 -91.84993309 118.17419443 -91.73046875 128.82861328 C-91.70839355 129.83448486 -91.68631836 130.84035645 -91.66357422 131.87670898 C-91.69079669 141.54468981 -95.14967566 147.94326186 -100.10546875 156.07861328 C-113.96617891 179.76565751 -113.45853779 206.48479133 -107.16796875 232.39111328 C-106.95269531 233.38755859 -106.73742187 234.38400391 -106.515625 235.41064453 C-102.84802662 250.24883668 -90.54327804 264.60487425 -77.8828125 272.80517578 C-65.13954373 280.24944502 -52.50288351 284.28521508 -38.16796875 287.39111328 C-37.50796875 287.72111328 -36.84796875 288.05111328 -36.16796875 288.39111328 C-37.38455181 311.18603804 -37.38455181 311.18603804 -45.66796875 318.64111328 C-53.26001333 322.43713557 -61.68708893 322.58896321 -70.04296875 322.76611328 C-70.75622314 322.7922168 -71.46947754 322.81832031 -72.2043457 322.84521484 C-77.37869497 322.86221376 -80.22353828 321.68375752 -84.16796875 318.39111328 C-87.20614701 315.04582675 -89.36088893 311.46024817 -91.54296875 307.51611328 C-98.77654325 295.0106116 -107.29627906 288.6509235 -121.16796875 284.39111328 C-121.79574219 284.19259766 -122.42351562 283.99408203 -123.0703125 283.78955078 C-126.03581258 283.22627144 -128.90324008 283.29846599 -131.91796875 283.32861328 C-133.67367187 283.34214844 -133.67367187 283.34214844 -135.46484375 283.35595703 C-136.80289063 283.37335938 -136.80289063 283.37335938 -138.16796875 283.39111328 C-138.01000931 285.83601419 -138.01000931 285.83601419 -137.16796875 288.39111328 C-135.2595126 289.72889754 -135.2595126 289.72889754 -132.79296875 290.45361328 C-131.89320313 290.77458984 -130.9934375 291.09556641 -130.06640625 291.42626953 C-129.10992187 291.74466797 -128.1534375 292.06306641 -127.16796875 292.39111328 C-113.93222847 296.93978413 -107.16735402 302.4824882 -100.35546875 314.57861328 C-90.69523982 331.98959821 -90.69523982 331.98959821 -74.17236328 341.74902344 C-68.51675645 342.95772212 -62.80723624 342.97061041 -57.04296875 343.07861328 C-55.8003125 343.11277344 -54.55765625 343.14693359 -53.27734375 343.18212891 C-50.24097578 343.26387727 -47.20487007 343.3332645 -44.16796875 343.39111328 C-44.02706393 358.42096088 -44.43099891 373.37927276 -45.16796875 388.39111328 C-65.5264497 385.185988 -90.33251563 374.89782329 -106.16796875 361.39111328 C-107.31265625 360.71048828 -107.31265625 360.71048828 -108.48046875 360.01611328 C-112.25376143 357.73458747 -115.68968649 355.09644393 -119.16796875 352.39111328 C-119.99425781 351.75302734 -120.82054688 351.11494141 -121.671875 350.45751953 C-134.19244998 340.52489454 -144.69874498 329.22549861 -154.16796875 316.39111328 C-154.81378906 315.51712891 -155.45960938 314.64314453 -156.125 313.74267578 C-167.54781348 297.80746421 -176.33999512 280.72851553 -183.16796875 262.39111328 C-183.53664063 261.41013672 -183.9053125 260.42916016 -184.28515625 259.41845703 C-186.37087666 253.54125262 -187.91508784 247.59073176 -189.29296875 241.51611328 C-189.45168457 240.82155029 -189.61040039 240.1269873 -189.77392578 239.41137695 C-190.28092828 237.07761938 -190.73394576 234.73957548 -191.16796875 232.39111328 C-191.3489209 231.42334961 -191.52987305 230.45558594 -191.71630859 229.45849609 C-193.51017983 218.62460586 -193.56583443 207.8482774 -193.54296875 196.89111328 C-193.54242493 195.91278534 -193.5418811 194.9344574 -193.5413208 193.92648315 C-193.50491952 179.70392071 -192.94159161 166.17707777 -189.16796875 152.39111328 C-188.93770996 151.49473145 -188.70745117 150.59834961 -188.47021484 149.67480469 C-185.7860269 139.25309846 -182.70577502 129.16976624 -178.16796875 119.39111328 C-177.61077968 118.1142923 -177.05488221 116.83690722 -176.5 115.55908203 C-156.33796354 70.01691385 -117.85175437 33.73093099 -72.16796875 14.39111328 C-71.16507812 13.95541016 -70.1621875 13.51970703 -69.12890625 13.07080078 C-62.39166326 10.30278622 -55.48557688 8.22914653 -48.48046875 6.26611328 C-47.63282959 6.0243335 -46.78519043 5.78255371 -45.91186523 5.53344727 C-30.66108793 1.40193739 -15.77061962 -0.10633717 0 0 Z " fill="#FDFDFD" transform="translate(233.16796875,39.60888671875)"/>
<path d="M0 0 C0.66 0 1.32 0 2 0 C2 69.96 2 139.92 2 212 C-67.96 212 -137.92 212 -210 212 C-210 211.34 -210 210.68 -210 210 C-209.23300781 209.90203125 -208.46601563 209.8040625 -207.67578125 209.703125 C-203.77699099 209.17785244 -199.88749977 208.602206 -196 208 C-195.22865723 207.88172852 -194.45731445 207.76345703 -193.66259766 207.64160156 C-149.89162552 200.71229963 -107.91541014 179.74290673 -75.65234375 149.46484375 C-73.54288936 147.50451132 -71.41054058 145.63945317 -69.1875 143.8125 C-66.08591259 141.18922968 -63.48439752 138.26565162 -60.86328125 135.16796875 C-59.603754 133.70248107 -58.30780873 132.26764289 -56.98046875 130.86328125 C-39.02840224 111.81144851 -24.1517841 86.49109519 -15 62 C-14.60216309 60.94353271 -14.60216309 60.94353271 -14.19628906 59.86572266 C-6.85936997 40.21472141 -2.3992536 20.83137748 0 0 Z " fill="#FDFDFD" transform="translate(472,262)"/>
<path d="M0 0 C0.66 0 1.32 0 2 0 C2.10022461 0.70906494 2.20044922 1.41812988 2.30371094 2.14868164 C4.18897521 15.3316379 6.08981764 28.24535753 10 41 C10.28359375 42.01835937 10.5671875 43.03671875 10.859375 44.0859375 C15.80957563 61.3247941 23.27907539 77.38090259 32 93 C32.51046875 93.928125 33.0209375 94.85625 33.546875 95.8125 C41.12908235 109.01446103 50.52434516 121.14809773 60.64648438 132.47900391 C61.87773054 133.86260124 63.08849477 135.26435702 64.296875 136.66796875 C79.03007723 153.57888883 97.38240492 168.14596052 117 179 C117.74797852 179.41701172 118.49595703 179.83402344 119.26660156 180.26367188 C131.8189779 187.20167683 144.55351394 193.02801646 158 198 C159.22332031 198.47050781 160.44664062 198.94101562 161.70703125 199.42578125 C177.42320226 205.12311372 194.46762506 207.79787451 211 210 C211 210.66 211 211.32 211 212 C141.37 212 71.74 212 0 212 C0 142.04 0 72.08 0 0 Z " fill="#FDFDFD" transform="translate(0,262)"/>
<path d="M0 0 C69.96 0 139.92 0 212 0 C212 69.63 212 139.26 212 211 C211.34 211 210.68 211 210 211 C209.84144531 209.88367188 209.68289063 208.76734375 209.51953125 207.6171875 C205.64846431 181.25393603 199.17270275 155.83485064 187 132 C186.54439697 131.09725342 186.54439697 131.09725342 186.07958984 130.17626953 C176.24777853 110.78249983 164.36219105 93.52480379 149.484375 77.671875 C147.42031633 75.45203832 145.44870579 73.19488784 143.5 70.875 C135.48639126 61.68403642 125.78879143 54.192124 116 47 C114.99453125 46.26007812 113.9890625 45.52015625 112.953125 44.7578125 C99.2127893 34.95823298 84.48643389 26.69058601 69 20 C68.33291016 19.70641602 67.66582031 19.41283203 66.97851562 19.11035156 C45.54790019 9.71816884 23.24199674 4.43640242 0 2 C0 1.34 0 0.68 0 0 Z " fill="#FDFDFD" transform="translate(262,0)"/>
<path d="M0 0 C68.64 0 137.28 0 208 0 C208 0.66 208 1.32 208 2 C206.22109375 2.25523437 206.22109375 2.25523437 204.40625 2.515625 C189.45912358 4.72592957 175.27398522 7.97864727 161 13 C159.681507 13.436462 158.36246 13.87125271 157.04296875 14.3046875 C146.87170565 17.69628007 137.43144201 21.91268156 128 27 C127.32018066 27.36528809 126.64036133 27.73057617 125.93994141 28.10693359 C108.89049177 37.33119496 93.02893221 48.04137018 78.92578125 61.3828125 C77 63 77 63 75 63 C75 63.66 75 64.32 75 65 C73.6015625 66.33984375 73.6015625 66.33984375 71.625 67.9375 C35.36645384 98.98903953 12.90836919 148.2776392 4.66015625 194.3359375 C3.83712996 198.90397692 2.92916242 203.45256978 2 208 C1.34 208 0.68 208 0 208 C0 139.36 0 70.72 0 0 Z " fill="#FDFDFD" transform="translate(0,0)"/>
<path d="M0 0 C0.66 0 1.32 0 2 0 C2.66 5.94 3.32 11.88 4 18 C3.34 18 2.68 18 2 18 C2 18.66 2 19.32 2 20 C1.34 20 0.68 20 0 20 C0 13.4 0 6.8 0 0 Z " fill="#D7D7D7" transform="translate(0,262)"/>
<path d="M0 0 C0.66 0.33 1.32 0.66 2 1 C0.58852088 4.52869781 -0.63093896 5.41455951 -4 7 C-5.37086915 8.29470975 -6.71340837 9.62150897 -8 11 C-8.66 10.67 -9.32 10.34 -10 10 C-6.7 6.7 -3.4 3.4 0 0 Z " fill="#D3D3D3" transform="translate(103,91)"/>
<path d="M0 0 C0.66 0.33 1.32 0.66 2 1 C1.50628906 1.40992188 1.01257813 1.81984375 0.50390625 2.2421875 C-0.13675781 2.78101563 -0.77742188 3.31984375 -1.4375 3.875 C-2.07558594 4.40867187 -2.71367188 4.94234375 -3.37109375 5.4921875 C-5.10805004 6.9222757 -5.10805004 6.9222757 -6 9 C-6.99 8.01 -7.98 7.02 -9 6 C-6.03 4.02 -3.06 2.04 0 0 Z " fill="#1C1C1C" transform="translate(112,35)"/>
<path d="M0 0 C0.66 0.33 1.32 0.66 2 1 C1.67 1.99 1.34 2.98 1 4 C-0.32 4 -1.64 4 -3 4 C-3.33 4.99 -3.66 5.98 -4 7 C-4.99 6.67 -5.98 6.34 -7 6 C-6.21625 5.38125 -5.4325 4.7625 -4.625 4.125 C-2.03162353 2.10141339 -2.03162353 2.10141339 0 0 Z " fill="#1E1E1E" transform="translate(353,396)"/>
<path d="M0 0 C0.99 0.33 1.98 0.66 3 1 C2.071875 1.763125 1.14375 2.52625 0.1875 3.3125 C-1.98276101 5.11848552 -4.05568065 6.9476629 -6 9 C-6 6 -6 6 -4.6875 4.39453125 C-4.130625 3.87246094 -3.57375 3.35039062 -3 2.8125 C-2.443125 2.28269531 -1.88625 1.75289063 -1.3125 1.20703125 C-0.6628125 0.60955078 -0.6628125 0.60955078 0 0 Z " fill="#0D0D0D" transform="translate(379,374)"/>
<path d="M0 0 C0.99 0.66 1.98 1.32 3 2 C1.35 3.65 -0.3 5.3 -2 7 C-2.66 6.67 -3.32 6.34 -4 6 C-2.68 4.02 -1.36 2.04 0 0 Z " fill="#242424" transform="translate(401,346)"/>
<path d="M0 0 C1.32 0.66 2.64 1.32 4 2 C3.34 3.32 2.68 4.64 2 6 C1.01 5.34 0.02 4.68 -1 4 C-0.67 2.68 -0.34 1.36 0 0 Z " fill="#ECECEC" transform="translate(402,337)"/>
<path d="M0 0 C1.98 1.65 3.96 3.3 6 5 C2.25 6.125 2.25 6.125 0 5 C0 3.35 0 1.7 0 0 Z " fill="#D0D0D0" transform="translate(378,99)"/>
<path d="M0 0 C0.66 0.33 1.32 0.66 2 1 C0.68 2.32 -0.64 3.64 -2 5 C-3.32 4.34 -4.64 3.68 -6 3 C-4.03533587 1.93224776 -2.03144641 0.93446535 0 0 Z " fill="#181818" transform="translate(134,23)"/>
</svg>
