<?xml version="1.0" encoding="UTF-8"?>
<svg version="1.1" xmlns="http://www.w3.org/2000/svg" width="300" height="300">
<path d="M0 0 C99 0 198 0 300 0 C300 99 300 198 300 300 C201 300 102 300 0 300 C0 201 0 102 0 0 Z " fill="#FEFEFE" transform="translate(0,0)"/>
<path d="M0 0 C0.70251987 -0.00155999 1.40503973 -0.00311998 2.12884808 -0.00472724 C4.50038899 -0.00873956 6.87186673 -0.00554672 9.2434082 -0.00241089 C10.9364933 -0.00376483 12.62957811 -0.00554472 14.32266235 -0.00772095 C18.93410076 -0.01229616 23.5455169 -0.01050536 28.15695572 -0.00734186 C32.97182528 -0.00481871 37.78669287 -0.00715567 42.6015625 -0.00872803 C50.68888696 -0.01054986 58.77620231 -0.00814307 66.86352539 -0.00338745 C76.22762756 0.00205519 85.59170795 0.00029255 94.95580959 -0.00521386 C102.9804093 -0.00974461 111.00500243 -0.01039572 119.029603 -0.00777519 C123.82901428 -0.0062122 128.6284153 -0.00601923 133.42782593 -0.00931168 C137.93883666 -0.01218984 142.4498192 -0.01021571 146.96082687 -0.00441742 C148.62134123 -0.00308953 150.28185794 -0.00348443 151.94237137 -0.00568008 C154.19940647 -0.00839046 156.45634974 -0.00501188 158.71337891 0 C159.97954544 0.00037703 161.24571198 0.00075405 162.55024719 0.0011425 C165.35668945 0.12698364 165.35668945 0.12698364 166.35668945 1.12698364 C166.45473368 2.67861888 166.48300805 4.23471437 166.4836731 5.78944397 C166.48649292 6.7976268 166.48931274 7.80580963 166.49221802 8.84454346 C166.48918167 10.51757034 166.48918167 10.51757034 166.48608398 12.22439575 C166.48871246 13.97543861 166.48871246 13.97543861 166.49139404 15.76185608 C166.49505229 18.9725864 166.49417895 22.1832758 166.49101496 25.39400554 C166.48849044 28.74832291 166.49082921 32.10263748 166.49240112 35.45695496 C166.4942228 41.09200535 166.49181682 46.72704266 166.48706055 52.36209106 C166.48162056 58.8825822 166.48337867 65.40304205 166.48888695 71.92353243 C166.49342128 77.51419847 166.49406698 83.10485508 166.49144828 88.69552237 C166.48988693 92.03787948 166.48968782 95.38022188 166.49298477 98.72257805 C166.49551272 102.44846614 166.4916685 106.17429346 166.48608398 109.900177 C166.48810822 111.01350403 166.49013245 112.12683105 166.49221802 113.27389526 C166.48939819 114.28489792 166.48657837 115.29590057 166.4836731 116.33753967 C166.48310756 117.66020796 166.48310756 117.66020796 166.48253059 119.00959682 C166.35668945 121.12698364 166.35668945 121.12698364 165.35668945 123.12698364 C143.57668945 123.45698364 121.79668945 123.78698364 99.35668945 124.12698364 C99.35668945 129.40698364 99.35668945 134.68698364 99.35668945 140.12698364 C101.13043945 140.06510864 102.90418945 140.00323364 104.73168945 139.93948364 C107.75512695 139.83401489 107.75512695 139.83401489 110.35668945 140.12698364 C111.01668945 141.11698364 111.67668945 142.10698364 112.35668945 143.12698364 C91.56668945 143.12698364 70.77668945 143.12698364 49.35668945 143.12698364 C51.35668945 140.12698364 51.35668945 140.12698364 53.73950195 139.61526489 C55.09688477 139.52825317 55.09688477 139.52825317 56.48168945 139.43948364 C57.39176758 139.37374146 58.3018457 139.30799927 59.23950195 139.24026489 C60.28750977 139.18419067 60.28750977 139.18419067 61.35668945 139.12698364 C61.48946289 138.13956177 61.62223633 137.15213989 61.7590332 136.13479614 C62.02393555 134.21280396 62.02393555 134.21280396 62.29418945 132.25198364 C62.55522461 130.33772583 62.55522461 130.33772583 62.8215332 128.38479614 C63.35668945 125.12698364 63.35668945 125.12698364 64.35668945 123.12698364 C63.46941666 123.12920425 62.58214386 123.13142487 61.66798401 123.13371277 C53.32424289 123.15371325 44.98050976 123.16895653 36.63675022 123.17879581 C32.3466903 123.18402425 28.05665012 123.19112117 23.76660156 123.2024231 C19.62989545 123.21325339 15.49320837 123.21926078 11.35648918 123.22186089 C9.77476641 123.22371488 8.19304474 123.227335 6.61133003 123.2327137 C4.40346107 123.23992604 2.19567173 123.24097451 -0.01220703 123.24050903 C-1.90083717 123.24383995 -1.90083717 123.24383995 -3.82762146 123.24723816 C-6.64331055 123.12698364 -6.64331055 123.12698364 -7.64331055 122.12698364 C-7.74139079 120.56042905 -7.76962932 118.98945212 -7.77029419 117.41983032 C-7.77311401 116.40178818 -7.77593384 115.38374603 -7.77883911 114.33485413 C-7.77681488 113.20858109 -7.77479065 112.08230804 -7.77270508 110.92190552 C-7.7744574 109.74318375 -7.77620972 108.56446198 -7.77801514 107.35002136 C-7.78167322 104.10836757 -7.78080028 100.86675431 -7.77763605 97.62510109 C-7.77511199 94.23961931 -7.77745012 90.85414033 -7.77902222 87.46865845 C-7.78084378 81.78233348 -7.77843796 76.09602149 -7.77368164 70.40969849 C-7.76823904 63.82670347 -7.77000171 57.24373941 -7.77550805 50.66074514 C-7.78003956 45.01829052 -7.78068954 39.37584524 -7.77806938 33.73338938 C-7.77650681 30.35920612 -7.77631227 26.98503744 -7.77960587 23.6108551 C-7.78213067 19.85123568 -7.77829422 16.09167666 -7.77270508 12.33206177 C-7.77472931 11.20578873 -7.77675354 10.07951569 -7.77883911 8.91911316 C-7.77601929 7.90107101 -7.77319946 6.88302887 -7.77029419 5.83413696 C-7.76991716 4.94406197 -7.76954014 4.05398697 -7.76915169 3.13694 C-7.48858046 -1.34439193 -3.68076719 0.00109602 0 0 Z " fill="#F4F4F4" transform="translate(70.643310546875,76.87301635742188)"/>
<path d="M0 0 C0.70251987 -0.00155999 1.40503973 -0.00311998 2.12884808 -0.00472724 C4.50038899 -0.00873956 6.87186673 -0.00554672 9.2434082 -0.00241089 C10.9364933 -0.00376483 12.62957811 -0.00554472 14.32266235 -0.00772095 C18.93410076 -0.01229616 23.5455169 -0.01050536 28.15695572 -0.00734186 C32.97182528 -0.00481871 37.78669287 -0.00715567 42.6015625 -0.00872803 C50.68888696 -0.01054986 58.77620231 -0.00814307 66.86352539 -0.00338745 C76.22762756 0.00205519 85.59170795 0.00029255 94.95580959 -0.00521386 C102.9804093 -0.00974461 111.00500243 -0.01039572 119.029603 -0.00777519 C123.82901428 -0.0062122 128.6284153 -0.00601923 133.42782593 -0.00931168 C137.93883666 -0.01218984 142.4498192 -0.01021571 146.96082687 -0.00441742 C148.62134123 -0.00308953 150.28185794 -0.00348443 151.94237137 -0.00568008 C154.19940647 -0.00839046 156.45634974 -0.00501188 158.71337891 0 C159.97954544 0.00037703 161.24571198 0.00075405 162.55024719 0.0011425 C165.35668945 0.12698364 165.35668945 0.12698364 166.35668945 1.12698364 C166.45473368 2.67861888 166.48300805 4.23471437 166.4836731 5.78944397 C166.48649292 6.7976268 166.48931274 7.80580963 166.49221802 8.84454346 C166.48918167 10.51757034 166.48918167 10.51757034 166.48608398 12.22439575 C166.48871246 13.97543861 166.48871246 13.97543861 166.49139404 15.76185608 C166.49505229 18.9725864 166.49417895 22.1832758 166.49101496 25.39400554 C166.48849044 28.74832291 166.49082921 32.10263748 166.49240112 35.45695496 C166.4942228 41.09200535 166.49181682 46.72704266 166.48706055 52.36209106 C166.48162056 58.8825822 166.48337867 65.40304205 166.48888695 71.92353243 C166.49342128 77.51419847 166.49406698 83.10485508 166.49144828 88.69552237 C166.48988693 92.03787948 166.48968782 95.38022188 166.49298477 98.72257805 C166.49551272 102.44846614 166.4916685 106.17429346 166.48608398 109.900177 C166.48810822 111.01350403 166.49013245 112.12683105 166.49221802 113.27389526 C166.48939819 114.28489792 166.48657837 115.29590057 166.4836731 116.33753967 C166.48310756 117.66020796 166.48310756 117.66020796 166.48253059 119.00959682 C166.35668945 121.12698364 166.35668945 121.12698364 165.35668945 123.12698364 C143.57668945 123.45698364 121.79668945 123.78698364 99.35668945 124.12698364 C99.35668945 129.40698364 99.35668945 134.68698364 99.35668945 140.12698364 C101.13043945 140.06510864 102.90418945 140.00323364 104.73168945 139.93948364 C107.75512695 139.83401489 107.75512695 139.83401489 110.35668945 140.12698364 C111.01668945 141.11698364 111.67668945 142.10698364 112.35668945 143.12698364 C91.56668945 143.12698364 70.77668945 143.12698364 49.35668945 143.12698364 C51.35668945 140.12698364 51.35668945 140.12698364 53.73950195 139.61526489 C55.09688477 139.52825317 55.09688477 139.52825317 56.48168945 139.43948364 C57.39176758 139.37374146 58.3018457 139.30799927 59.23950195 139.24026489 C60.28750977 139.18419067 60.28750977 139.18419067 61.35668945 139.12698364 C61.48946289 138.13956177 61.62223633 137.15213989 61.7590332 136.13479614 C62.02393555 134.21280396 62.02393555 134.21280396 62.29418945 132.25198364 C62.55522461 130.33772583 62.55522461 130.33772583 62.8215332 128.38479614 C63.35668945 125.12698364 63.35668945 125.12698364 64.35668945 123.12698364 C63.46941666 123.12920425 62.58214386 123.13142487 61.66798401 123.13371277 C53.32424289 123.15371325 44.98050976 123.16895653 36.63675022 123.17879581 C32.3466903 123.18402425 28.05665012 123.19112117 23.76660156 123.2024231 C19.62989545 123.21325339 15.49320837 123.21926078 11.35648918 123.22186089 C9.77476641 123.22371488 8.19304474 123.227335 6.61133003 123.2327137 C4.40346107 123.23992604 2.19567173 123.24097451 -0.01220703 123.24050903 C-1.90083717 123.24383995 -1.90083717 123.24383995 -3.82762146 123.24723816 C-6.64331055 123.12698364 -6.64331055 123.12698364 -7.64331055 122.12698364 C-7.74139079 120.56042905 -7.76962932 118.98945212 -7.77029419 117.41983032 C-7.77311401 116.40178818 -7.77593384 115.38374603 -7.77883911 114.33485413 C-7.77681488 113.20858109 -7.77479065 112.08230804 -7.77270508 110.92190552 C-7.7744574 109.74318375 -7.77620972 108.56446198 -7.77801514 107.35002136 C-7.78167322 104.10836757 -7.78080028 100.86675431 -7.77763605 97.62510109 C-7.77511199 94.23961931 -7.77745012 90.85414033 -7.77902222 87.46865845 C-7.78084378 81.78233348 -7.77843796 76.09602149 -7.77368164 70.40969849 C-7.76823904 63.82670347 -7.77000171 57.24373941 -7.77550805 50.66074514 C-7.78003956 45.01829052 -7.78068954 39.37584524 -7.77806938 33.73338938 C-7.77650681 30.35920612 -7.77631227 26.98503744 -7.77960587 23.6108551 C-7.78213067 19.85123568 -7.77829422 16.09167666 -7.77270508 12.33206177 C-7.77472931 11.20578873 -7.77675354 10.07951569 -7.77883911 8.91911316 C-7.77601929 7.90107101 -7.77319946 6.88302887 -7.77029419 5.83413696 C-7.76991716 4.94406197 -7.76954014 4.05398697 -7.76915169 3.13694 C-7.48858046 -1.34439193 -3.68076719 0.00109602 0 0 Z M9.35668945 11.12698364 C9.35668945 40.49698364 9.35668945 69.86698364 9.35668945 100.12698364 C55.88668945 100.12698364 102.41668945 100.12698364 150.35668945 100.12698364 C150.35668945 70.75698364 150.35668945 41.38698364 150.35668945 11.12698364 C103.82668945 11.12698364 57.29668945 11.12698364 9.35668945 11.12698364 Z " fill="#252E46" transform="translate(70.643310546875,76.87301635742188)"/>
<path d="M0 0 C45.87 0 91.74 0 139 0 C139 16.5 139 33 139 50 C138.34 50 137.68 50 137 50 C137 37.46 137 24.92 137 12 C134.69 12 132.38 12 130 12 C130 24.21 130 36.42 130 49 C129.67 49 129.34 49 129 49 C129 37.78 129 26.56 129 15 C127.35 15 125.7 15 124 15 C124.01160156 15.70640625 124.02320313 16.4128125 124.03515625 17.140625 C124.12583225 27.4517812 123.57463581 37.70786223 123 48 C122.67 48 122.34 48 122 48 C122 37.11 122 26.22 122 15 C120.68 15 119.36 15 118 15 C118 26.22 118 37.44 118 49 C117.67 49 117.34 49 117 49 C116.67 41.74 116.34 34.48 116 27 C114.35 27.33 112.7 27.66 111 28 C110.67 34.6 110.34 41.2 110 48 C109.67 48 109.34 48 109 48 C109 43.38 109 38.76 109 34 C107.35 34 105.7 34 104 34 C104 38.95 104 43.9 104 49 C106.31 49.33 108.62 49.66 111 50 C111 50.99 111 51.98 111 53 C104.73 53 98.46 53 92 53 C89.83030855 48.66061709 89.78673896 46.51609592 89.875 41.75 C89.89304687 40.48671875 89.91109375 39.2234375 89.9296875 37.921875 C89.95289063 36.95765625 89.97609375 35.9934375 90 35 C88.88625 35.061875 87.7725 35.12375 86.625 35.1875 C85.42875 35.125625 84.2325 35.06375 83 35 C82.34 34.01 81.68 33.02 81 32 C79.03638136 31.42251197 79.03638136 31.42251197 76.875 31.3125 C75.59625 31.209375 74.3175 31.10625 73 31 C73 33.31 73 35.62 73 38 C68.71 38 64.42 38 60 38 C59.34 35.36 58.68 32.72 58 30 C57.202163 36.69613196 56.87089147 43.25766581 57 50 C56.34 50 55.68 50 55 50 C53.6691089 47.33821779 53.88731007 45.31260604 53.90234375 42.3359375 C53.90556641 41.21445313 53.90878906 40.09296875 53.91210938 38.9375 C53.92467773 37.1740625 53.92467773 37.1740625 53.9375 35.375 C53.94201172 34.19164062 53.94652344 33.00828125 53.95117188 31.7890625 C53.96298533 28.85932493 53.97945742 25.92968728 54 23 C53.34 23 52.68 23 52 23 C52.04125 24.11375 52.0825 25.2275 52.125 26.375 C52 30 52 30 50 32 C49.505 28.04 49.505 28.04 49 24 C46.36 24 43.72 24 41 24 C41 25.65 41 27.3 41 29 C42.32 29 43.64 29 45 29 C45 30.32 45 31.64 45 33 C47.31 33 49.62 33 52 33 C52 38.61 52 44.22 52 50 C41.94140625 50.09765625 41.94140625 50.09765625 39 50 C38.67 49.67 38.34 49.34 38 49 C36.47480724 49.08937803 34.95318071 49.24537146 33.4375 49.4375 C32.61121094 49.53933594 31.78492187 49.64117187 30.93359375 49.74609375 C30.29550781 49.82988281 29.65742187 49.91367188 29 50 C29 49.34 29 48.68 29 48 C30.485 47.505 30.485 47.505 32 47 C37.22341132 41.39438785 39.46532809 36.9744122 39.24609375 29.2109375 C38.72190123 24.50152535 36.8737068 21.83002146 33.5 18.625 C28.59473058 16.34755349 24.32157127 16.21601852 19 17 C14.57022329 19.1357852 11.80386329 21.39012714 10 26 C9.00536287 32.39883217 9.79908795 37.02852436 13.5703125 42.3125 C16.63910711 45.9346838 19.77450844 47.88725422 24 50 C13.11 50.495 13.11 50.495 2 51 C2 42.09 2 33.18 2 24 C3.98 24.33 5.96 24.66 8 25 C8 21.7 8 18.4 8 15 C6.35 15 4.7 15 3 15 C2.67 12.69 2.34 10.38 2 8 C11.405 7.505 11.405 7.505 21 7 C21 6.34 21 5.68 21 5 C20.25234375 5.02320312 19.5046875 5.04640625 18.734375 5.0703125 C17.74953125 5.08835937 16.7646875 5.10640625 15.75 5.125 C14.77546875 5.14820312 13.8009375 5.17140625 12.796875 5.1953125 C9.93126792 4.99520027 8.46708751 4.3798964 6 3 C4.00889599 2.61709538 2.00899487 2.27395385 0 2 C0 1.34 0 0.68 0 0 Z " fill="#F3EEED" transform="translate(81,94)"/>
<path d="M0 0 C57.42 0 114.84 0 174 0 C174 16 174 16 173 18 C151.22 18.33 129.44 18.66 107 19 C107 24.28 107 29.56 107 35 C109.660625 34.9071875 109.660625 34.9071875 112.375 34.8125 C115.3984375 34.70703125 115.3984375 34.70703125 118 35 C118.66 35.99 119.32 36.98 120 38 C99.21 38 78.42 38 57 38 C59 35 59 35 61.3828125 34.48828125 C62.28773437 34.43027344 63.19265625 34.37226563 64.125 34.3125 C65.03507812 34.24675781 65.94515625 34.18101562 66.8828125 34.11328125 C67.93082031 34.05720703 67.93082031 34.05720703 69 34 C69.13277344 33.01257813 69.26554687 32.02515625 69.40234375 31.0078125 C69.57894531 29.72648437 69.75554687 28.44515625 69.9375 27.125 C70.11152344 25.84882813 70.28554687 24.57265625 70.46484375 23.2578125 C71 20 71 20 72 18 C71.1127272 18.00222061 70.22545441 18.00444122 69.31129456 18.00672913 C60.96755343 18.02672961 52.62382031 18.04197289 44.28006077 18.05181217 C39.99000085 18.05704061 35.69996067 18.06413753 31.40991211 18.07543945 C27.273206 18.08626975 23.13651892 18.09227714 18.99979973 18.09487724 C17.41807696 18.09673124 15.83635529 18.10035136 14.25464058 18.10573006 C12.04677162 18.1129424 9.83898227 18.11399086 7.63110352 18.11352539 C5.74247337 18.11685631 5.74247337 18.11685631 3.81568909 18.12025452 C1 18 1 18 0 17 C0 11.39 0 5.78 0 0 Z " fill="#3A9390" transform="translate(63,182)"/>
<path d="M0 0 C46.53 0 93.06 0 141 0 C141 29.37 141 58.74 141 89 C140.67 89 140.34 89 140 89 C140 81.74 140 74.48 140 67 C135.9978192 64.99126409 135.9978192 64.99126409 131.92163086 64.76049805 C131.13078598 64.75676682 130.3399411 64.75303558 129.52513123 64.74919128 C128.25778893 64.75539238 128.25778893 64.75539238 126.96484375 64.76171875 C125.16861216 64.74630768 123.37238804 64.73000469 121.57617188 64.71289062 C118.74942539 64.6963945 115.92322653 64.68753557 113.09643555 64.69458008 C110.36444121 64.6971917 107.63411566 64.66915198 104.90234375 64.63671875 C104.05542465 64.64692551 103.20850555 64.65713226 102.33592224 64.66764832 C99.94897461 64.62768555 99.94897461 64.62768555 96 64 C95.01 62.35 94.02 60.7 93 59 C99.27 59 105.54 59 112 59 C112 58.01 112 57.02 112 56 C109.69 55.67 107.38 55.34 105 55 C105 50.05 105 45.1 105 40 C106.65 40 108.3 40 110 40 C110.66 37.69 111.32 35.38 112 33 C113.65 33 115.3 33 117 33 C116.97679687 32.30132812 116.95359375 31.60265625 116.9296875 30.8828125 C116.91164063 29.97273438 116.89359375 29.06265625 116.875 28.125 C116.85179687 27.22007813 116.82859375 26.31515625 116.8046875 25.3828125 C117 23 117 23 119 21 C120.32 21 121.64 21 123 21 C123.495 27.435 123.495 27.435 124 34 C124.33 29.71 124.66 25.42 125 21 C126.65 21 128.3 21 130 21 C130.33 20.01 130.66 19.02 131 18 C133.31 18 135.62 18 138 18 C138 30.54 138 43.08 138 56 C138.66 56 139.32 56 140 56 C140 39.5 140 23 140 6 C94.13 6 48.26 6 1 6 C1 6.66 1 7.32 1 8 C1.63808594 8.06058594 2.27617188 8.12117188 2.93359375 8.18359375 C3.75988281 8.26738281 4.58617188 8.35117188 5.4375 8.4375 C6.67306641 8.55931641 6.67306641 8.55931641 7.93359375 8.68359375 C10 9 10 9 11 10 C12.84891946 10.23363881 14.70488031 10.41303635 16.5625 10.5625 C17.57441406 10.64628906 18.58632812 10.73007813 19.62890625 10.81640625 C20.41136719 10.87699219 21.19382812 10.93757813 22 11 C22.33 11.99 22.66 12.98 23 14 C13.595 14.495 13.595 14.495 4 15 C4 16.98 4 18.96 4 21 C5.65 21 7.3 21 9 21 C9 24.3 9 27.6 9 31 C7.35 31.33 5.7 31.66 4 32 C4 39.92 4 47.84 4 56 C9.61 56 15.22 56 21 56 C20.34 56.99 19.68 57.98 19 59 C16.2114711 59.22107787 13.65346819 59.28107535 10.875 59.1875 C9.74384766 59.16719727 9.74384766 59.16719727 8.58984375 59.14648438 C6.72625873 59.11109985 4.86304022 59.05729167 3 59 C3 60.32 3 61.64 3 63 C6.96 63 10.92 63 15 63 C15 63.33 15 63.66 15 64 C11.04 64 7.08 64 3 64 C3.33 66.31 3.66 68.62 4 71 C9.28 71 14.56 71 20 71 C20.495 71.99 20.495 71.99 21 73 C23.02463255 73.65213292 23.02463255 73.65213292 25 74 C25 75.98 25 77.96 25 80 C25.556875 79.773125 26.11375 79.54625 26.6875 79.3125 C29 79 29 79 31.6875 80.0625 C34.66579531 82.5578285 34.53684589 84.24896069 35 88 C34.3387915 87.99476318 33.67758301 87.98952637 32.99633789 87.98413086 C30.01840149 87.96342344 27.04048018 87.95035988 24.0625 87.9375 C23.02158203 87.92912109 21.98066406 87.92074219 20.90820312 87.91210938 C19.91884766 87.90888672 18.92949219 87.90566406 17.91015625 87.90234375 C16.99371338 87.89710693 16.07727051 87.89187012 15.13305664 87.88647461 C13.01636977 87.76078789 13.01636977 87.76078789 12 89 C8.04 89 4.08 89 0 89 C0 59.63 0 30.26 0 0 Z " fill="#E6E4EA" transform="translate(80,88)"/>
<path d="M0 0 C0.70251987 -0.00155999 1.40503973 -0.00311998 2.12884808 -0.00472724 C4.50038899 -0.00873956 6.87186673 -0.00554672 9.2434082 -0.00241089 C10.9364933 -0.00376483 12.62957811 -0.00554472 14.32266235 -0.00772095 C18.93410076 -0.01229616 23.5455169 -0.01050536 28.15695572 -0.00734186 C32.97182528 -0.00481871 37.78669287 -0.00715567 42.6015625 -0.00872803 C50.68888696 -0.01054986 58.77620231 -0.00814307 66.86352539 -0.00338745 C76.22762756 0.00205519 85.59170795 0.00029255 94.95580959 -0.00521386 C102.9804093 -0.00974461 111.00500243 -0.01039572 119.029603 -0.00777519 C123.82901428 -0.0062122 128.6284153 -0.00601923 133.42782593 -0.00931168 C137.93883666 -0.01218984 142.4498192 -0.01021571 146.96082687 -0.00441742 C148.62134123 -0.00308953 150.28185794 -0.00348443 151.94237137 -0.00568008 C154.19940647 -0.00839046 156.45634974 -0.00501188 158.71337891 0 C159.97954544 0.00037703 161.24571198 0.00075405 162.55024719 0.0011425 C165.35668945 0.12698364 165.35668945 0.12698364 166.35668945 1.12698364 C166.45200108 2.48038954 166.47857665 3.83872349 166.47694397 5.19548035 C166.47900597 6.51015038 166.47900597 6.51015038 166.48110962 7.85137939 C166.47751434 8.82026093 166.47391907 9.78914246 166.47021484 10.78738403 C166.47036087 11.8019014 166.4705069 12.81641876 166.47065735 13.86167908 C166.46995775 17.23268737 166.46216314 20.60364119 166.4543457 23.97463989 C166.45248169 26.30491607 166.45105771 28.63519265 166.45005798 30.96546936 C166.44623147 37.1123563 166.43640005 43.25921977 166.425354 49.40609741 C166.41514274 55.6730823 166.41056098 61.94007096 166.40551758 68.20706177 C166.3947779 80.51371273 166.37769989 92.82034624 166.35668945 105.12698364 C164.37668945 105.12698364 162.39668945 105.12698364 160.35668945 105.12698364 C160.35668945 72.45698364 160.35668945 39.78698364 160.35668945 6.12698364 C133.46340409 2.06865431 133.46340409 2.06865431 111.35668945 9.12698364 C109.24288517 9.28647668 107.12394815 9.3785571 105.00512695 9.44338989 C104.35403961 9.46417099 103.70295227 9.48495209 103.03213501 9.50636292 C101.6416913 9.54974896 100.25117232 9.5907753 98.8605957 9.62966919 C96.78877803 9.68787966 94.7173036 9.75339835 92.64575195 9.82034302 C83.54678131 10.10180081 74.45991723 10.17873453 65.35668945 10.12698364 C65.35668945 9.13698364 65.35668945 8.14698364 65.35668945 7.12698364 C64.19790283 7.13060913 63.03911621 7.13423462 61.84521484 7.13796997 C49.20571765 7.16513509 36.56985128 7.08206459 23.93212891 6.86453247 C21.80981838 6.8306825 19.68740467 6.80285265 17.56494141 6.7805481 C14.45216679 6.74720961 11.34021555 6.69505124 8.2277832 6.63870239 C7.27794052 6.63231247 6.32809784 6.62592255 5.34947205 6.61933899 C4.47327713 6.59954483 3.59708221 6.57975067 2.69433594 6.55935669 C1.54238991 6.5427021 1.54238991 6.5427021 0.36717224 6.52571106 C-2.12917099 6.03062575 -3.0386369 5.05037241 -4.64331055 3.12698364 C-6.1001043 4.35567266 -6.1001043 4.35567266 -5.76831055 8.06448364 C-5.73707026 11.37074744 -5.51952462 14.59317221 -5.14331055 17.87698364 C-3.51107914 32.73028943 -3.51107914 32.73028943 -5.64331055 39.12698364 C-3.33331055 38.13698364 -1.02331055 37.14698364 1.35668945 36.12698364 C1.02668945 37.11698364 0.69668945 38.10698364 0.35668945 39.12698364 C-0.30331055 39.12698364 -0.96331055 39.12698364 -1.64331055 39.12698364 C-1.76706055 40.05510864 -1.89081055 40.98323364 -2.01831055 41.93948364 C-2.64331055 45.12698364 -2.64331055 45.12698364 -4.64331055 48.12698364 C-4.93373629 50.69410125 -4.93373629 50.69410125 -4.87036133 53.60818481 C-4.87021027 54.72912033 -4.8700592 55.85005585 -4.86990356 57.00495911 C-4.85958099 58.21440689 -4.84925842 59.42385468 -4.83862305 60.66995239 C-4.83579315 61.90868607 -4.83296326 63.14741974 -4.83004761 64.4236908 C-4.82074241 67.71336451 -4.80277846 71.00284228 -4.78063965 74.29244995 C-4.76016324 77.65068159 -4.75104206 81.00894192 -4.7409668 84.36721802 C-4.71889326 90.95388337 -4.68540577 97.54041748 -4.64331055 104.12698364 C-6.12831055 104.62198364 -6.12831055 104.62198364 -7.64331055 105.12698364 C-7.66643115 91.58434186 -7.68422418 78.04170474 -7.69512272 64.49904728 C-7.70035217 58.2113634 -7.70745093 51.92369298 -7.71875 45.63601685 C-7.72957668 39.57360641 -7.73558691 33.51120895 -7.73818779 27.4487896 C-7.74004244 25.13022088 -7.74366379 22.8116529 -7.7490406 20.49308968 C-7.75624813 17.25783856 -7.75730161 14.02264182 -7.75683594 10.78738403 C-7.76043121 9.8185025 -7.76402649 8.84962097 -7.76773071 7.85137939 C-7.76635605 6.97493271 -7.76498138 6.09848602 -7.76356506 5.19548035 C-7.76448686 4.42947038 -7.76540865 3.66346041 -7.76635838 2.87423801 C-7.46953917 -1.34053496 -3.34165794 0.00099504 0 0 Z " fill="#243A50" transform="translate(70.643310546875,76.87301635742188)"/>
<path d="M0 0 C1.89142825 0.00186795 3.78285698 0.00329007 5.67428589 0.00428772 C10.62257248 0.00808319 15.57082914 0.01788772 20.519104 0.0289917 C25.58044022 0.03927007 30.64178133 0.04379904 35.703125 0.04882812 C45.61199223 0.05951298 55.52083736 0.07655323 65.4296875 0.09765625 C65.45659594 2.72272427 65.47648154 5.34751798 65.4921875 7.97265625 C65.50056641 8.71902344 65.50894531 9.46539062 65.51757812 10.234375 C65.54296875 15.87109375 65.54296875 15.87109375 64.4296875 18.09765625 C63.6072757 18.10352249 62.78486389 18.10938873 61.93753052 18.11543274 C54.19725459 18.1732718 46.45730382 18.24529701 38.71731758 18.33337116 C34.73783507 18.37815066 30.75845672 18.41738959 26.77880859 18.4440918 C22.94014199 18.47004985 19.10187465 18.51039773 15.26345444 18.56084251 C13.79704621 18.5775623 12.33056885 18.58904467 10.86407852 18.59527016 C8.81406782 18.60485646 6.76509038 18.63284606 4.71533203 18.6652832 C3.54729034 18.67638626 2.37924866 18.68748932 1.17581177 18.69892883 C0.26959076 18.83050888 -0.63663025 18.96208893 -1.5703125 19.09765625 C-2.2303125 20.08765625 -2.8903125 21.07765625 -3.5703125 22.09765625 C-3.5703125 20.77765625 -3.5703125 19.45765625 -3.5703125 18.09765625 C-9.8403125 18.09765625 -16.1103125 18.09765625 -22.5703125 18.09765625 C-21.5803125 17.10765625 -20.5903125 16.11765625 -19.5703125 15.09765625 C-20.5603125 14.43765625 -21.5503125 13.77765625 -22.5703125 13.09765625 C-20.9203125 13.09765625 -19.2703125 13.09765625 -17.5703125 13.09765625 C-17.5703125 11.44765625 -17.5703125 9.79765625 -17.5703125 8.09765625 C-18.8903125 7.76765625 -20.2103125 7.43765625 -21.5703125 7.09765625 C-22.2303125 9.07765625 -22.8903125 11.05765625 -23.5703125 13.09765625 C-23.6940625 12.45828125 -23.8178125 11.81890625 -23.9453125 11.16015625 C-24.1515625 10.47953125 -24.3578125 9.79890625 -24.5703125 9.09765625 C-25.2303125 8.76765625 -25.8903125 8.43765625 -26.5703125 8.09765625 C-25.1803994 5.31783004 -23.38372897 5.22302284 -20.5703125 4.09765625 C-20.2403125 3.43765625 -19.9103125 2.77765625 -19.5703125 2.09765625 C-22.8703125 2.09765625 -26.1703125 2.09765625 -29.5703125 2.09765625 C-29.5703125 1.76765625 -29.5703125 1.43765625 -29.5703125 1.09765625 C-19.72381723 -0.18996236 -9.91020236 -0.02887142 0 0 Z " fill="#47C3CD" transform="translate(171.5703125,181.90234375)"/>
<path d="M0 0 C22.11 0 44.22 0 67 0 C66 5 66 5 63.125 7.3125 C60 9 60 9 57 9 C56.67 9.99 56.34 10.98 56 12 C54.68 12 53.36 12 52 12 C54.31 12.33 56.62 12.66 59 13 C59 13.33 59 13.66 59 14 C57.35 14 55.7 14 54 14 C54.01160156 14.70640625 54.02320313 15.4128125 54.03515625 16.140625 C54.12583225 26.4517812 53.57463581 36.70786223 53 47 C52.67 47 52.34 47 52 47 C52 36.11 52 25.22 52 14 C50.68 14 49.36 14 48 14 C48 25.22 48 36.44 48 48 C47.67 48 47.34 48 47 48 C46.67 40.74 46.34 33.48 46 26 C44.35 26.33 42.7 26.66 41 27 C40.67 33.6 40.34 40.2 40 47 C39.67 47 39.34 47 39 47 C39 42.38 39 37.76 39 33 C37.35 33 35.7 33 34 33 C34 37.95 34 42.9 34 48 C36.31 48.33 38.62 48.66 41 49 C41 49.99 41 50.98 41 52 C34.73 52 28.46 52 22 52 C20.79970092 49.59940183 20.88540257 48.10639351 20.90234375 45.4296875 C20.90556641 44.53378906 20.90878906 43.63789063 20.91210938 42.71484375 C20.92048828 41.77769531 20.92886719 40.84054688 20.9375 39.875 C20.94201172 38.93011719 20.94652344 37.98523438 20.95117188 37.01171875 C20.96297643 34.67441613 20.97944241 32.33723939 21 30 C22.32 29.67 23.64 29.34 25 29 C25.33 23.72 25.66 18.44 26 13 C23.525 13.020625 21.05 13.04125 18.5 13.0625 C9.96717933 13.09677507 1.50576431 12.64108049 -7 12 C-7 11.01 -7 10.02 -7 9 C-2.545 8.505 -2.545 8.505 2 8 C2 7.67 2 7.34 2 7 C3.134375 6.87625 4.26875 6.7525 5.4375 6.625 C7.2009375 6.315625 7.2009375 6.315625 9 6 C9.33 5.34 9.66 4.68 10 4 C9.01 4.33 8.02 4.66 7 5 C5.60560336 5.06665376 4.20830125 5.08538199 2.8125 5.0625 C0.9253125 5.0315625 0.9253125 5.0315625 -1 5 C-1 4.34 -1 3.68 -1 3 C4.94 2.67 10.88 2.34 17 2 C11.39 1.67 5.78 1.34 0 1 C0 0.67 0 0.34 0 0 Z " fill="#E8DDE4" transform="translate(151,95)"/>
<path d="M0 0 C0.33 0 0.66 0 1 0 C1 27.39 1 54.78 1 83 C0.67 83 0.34 83 0 83 C0 75.74 0 68.48 0 61 C-4.0021808 58.99126409 -4.0021808 58.99126409 -8.07836914 58.76049805 C-8.86921402 58.75676682 -9.6600589 58.75303558 -10.47486877 58.74919128 C-11.31976364 58.75332535 -12.16465851 58.75745941 -13.03515625 58.76171875 C-14.83138784 58.74630768 -16.62761196 58.73000469 -18.42382812 58.71289062 C-21.25057461 58.6963945 -24.07677347 58.68753557 -26.90356445 58.69458008 C-29.63555879 58.6971917 -32.36588434 58.66915198 -35.09765625 58.63671875 C-35.94457535 58.64692551 -36.79149445 58.65713226 -37.66407776 58.66764832 C-40.05102539 58.62768555 -40.05102539 58.62768555 -44 58 C-44.99 56.35 -45.98 54.7 -47 53 C-40.73 53 -34.46 53 -28 53 C-28 52.01 -28 51.02 -28 50 C-31.465 49.505 -31.465 49.505 -35 49 C-35 44.05 -35 39.1 -35 34 C-33.35 34 -31.7 34 -30 34 C-29.01 30.535 -29.01 30.535 -28 27 C-26.35 27 -24.7 27 -23 27 C-23.02320313 26.30132812 -23.04640625 25.60265625 -23.0703125 24.8828125 C-23.08835938 23.97273438 -23.10640625 23.06265625 -23.125 22.125 C-23.14820313 21.22007813 -23.17140625 20.31515625 -23.1953125 19.3828125 C-23 17 -23 17 -21 15 C-19.68 15 -18.36 15 -17 15 C-16.67 19.29 -16.34 23.58 -16 28 C-15.67 23.71 -15.34 19.42 -15 15 C-13.35 15 -11.7 15 -10 15 C-9.67 14.01 -9.34 13.02 -9 12 C-6.69 12 -4.38 12 -2 12 C-2 24.54 -2 37.08 -2 50 C-1.34 50 -0.68 50 0 50 C0 33.5 0 17 0 0 Z " fill="#DDDDE1" transform="translate(220,94)"/>
<path d="M0 0 C3.41731792 0.1100917 6.83355574 0.24067061 10.25 0.375 C11.21808594 0.4059375 12.18617188 0.436875 13.18359375 0.46875 C14.58544922 0.52675781 14.58544922 0.52675781 16.015625 0.5859375 C16.87446289 0.6173584 17.73330078 0.6487793 18.61816406 0.68115234 C21.15244172 1.02040682 22.74526765 1.8409408 25 3 C27.02023042 3.35804177 27.02023042 3.35804177 29.109375 3.4140625 C29.86347656 3.45273438 30.61757812 3.49140625 31.39453125 3.53125 C32.17183594 3.5621875 32.94914062 3.593125 33.75 3.625 C34.93916016 3.68300781 34.93916016 3.68300781 36.15234375 3.7421875 C38.10119416 3.836108 40.05056451 3.91912822 42 4 C42.02712153 5.916588 42.04645097 7.8332873 42.0625 9.75 C42.07410156 10.81734375 42.08570313 11.8846875 42.09765625 12.984375 C41.94533762 17.68797428 41.94533762 17.68797428 41 20 C40.01 20.33 39.02 20.66 38 21 C37.67 26.94 37.34 32.88 37 39 C36.67 39 36.34 39 36 39 C36 34.38 36 29.76 36 25 C33.69 25 31.38 25 29 25 C28.34 24.01 27.68 23.02 27 22 C25.03638136 21.42251197 25.03638136 21.42251197 22.875 21.3125 C21.59625 21.209375 20.3175 21.10625 19 21 C19 23.31 19 25.62 19 28 C14.71 28 10.42 28 6 28 C5.34 25.36 4.68 22.72 4 20 C3.202163 26.69613196 2.87089147 33.25766581 3 40 C2.34 40 1.68 40 1 40 C-0.63945963 36.72108075 -0.12030178 33.09386466 -0.09765625 29.4921875 C-0.0962413 28.65156769 -0.09482635 27.81094788 -0.09336853 26.94485474 C-0.08776237 24.25486725 -0.07520886 21.56496241 -0.0625 18.875 C-0.05748579 17.05338662 -0.05292275 15.23177193 -0.04882812 13.41015625 C-0.03779094 8.94007223 -0.0205222 4.47005014 0 0 Z " fill="#FBFBFD" transform="translate(135,104)"/>
<path d="M0 0 C17.49 0 34.98 0 53 0 C53 34.32 53 68.64 53 104 C51.02 104 49.04 104 47 104 C47 71.33 47 38.66 47 5 C31.49 5 15.98 5 0 5 C0 3.35 0 1.7 0 0 Z " fill="#3A4E6E" transform="translate(184,78)"/>
<path d="M0 0 C4.004793 2.0023965 6.6587028 4.17998877 9 8 C10.83333814 13.50001441 10.78391652 18.93976246 8.5 24.3125 C6.0330723 28.67974657 2.73548494 30.58735065 -2 32 C-7.2453441 32.63305877 -10.56130208 31.86049421 -15 29 C-19.83468731 23.76242209 -21.52862509 19.60055772 -21.3828125 12.5390625 C-20.60861461 7.4040765 -17.58451994 4.44470936 -13.875 1.0625 C-9.27535785 -0.63736775 -4.83665408 -0.64630767 0 0 Z " fill="#EEB65E" transform="translate(111,110)"/>
<path d="M0 0 C10.89 0 21.78 0 33 0 C35.25 11.25 35.25 11.25 35 17 C36.15628906 16.94779297 36.15628906 16.94779297 37.3359375 16.89453125 C38.33882812 16.86746094 39.34171875 16.84039062 40.375 16.8125 C41.87160156 16.76029297 41.87160156 16.76029297 43.3984375 16.70703125 C44.25695312 16.80371094 45.11546875 16.90039062 46 17 C46.66 17.99 47.32 18.98 48 20 C27.21 20 6.42 20 -15 20 C-13 17 -13 17 -10.6171875 16.48828125 C-9.71226563 16.43027344 -8.80734375 16.37226563 -7.875 16.3125 C-6.96492187 16.24675781 -6.05484375 16.18101562 -5.1171875 16.11328125 C-4.41851562 16.07589844 -3.71984375 16.03851563 -3 16 C-2.86722656 15.01257813 -2.73445312 14.02515625 -2.59765625 13.0078125 C-2.42105469 11.72648438 -2.24445313 10.44515625 -2.0625 9.125 C-1.88847656 7.84882813 -1.71445313 6.57265625 -1.53515625 5.2578125 C-1 2 -1 2 0 0 Z " fill="#3E668B" transform="translate(135,200)"/>
<path d="M0 0 C0 0.99 0 1.98 0 3 C-1.32 3 -2.64 3 -4 3 C-3.505 3.99 -3.505 3.99 -3 5 C-0.47266765 5.65555119 -0.47266765 5.65555119 2 6 C2 6.66 2 7.32 2 8 C1.34 8 0.68 8 0 8 C0 8.99 0 9.98 0 11 C1.65 10.34 3.3 9.68 5 9 C5 9.66 5 10.32 5 11 C5.99 11 6.98 11 8 11 C7.67 12.32 7.34 13.64 7 15 C7.66 15.33 8.32 15.66 9 16 C9 16.66 9 17.32 9 18 C8.01 18 7.02 18 6 18 C6 18.66 6 19.32 6 20 C4.68 20 3.36 20 2 20 C2 20.66 2 21.32 2 22 C1.01 22 0.02 22 -1 22 C-1 22.66 -1 23.32 -1 24 C-0.45472656 23.82597656 0.09054688 23.65195313 0.65234375 23.47265625 C3.44309372 22.91079145 5.7365124 23.12606463 8.5625 23.4375 C11.4123566 23.74297988 14.13169534 24 17 24 C17 22.35 17 20.7 17 19 C18.32 19 19.64 19 21 19 C21 18.34 21 17.68 21 17 C20.34 17 19.68 17 19 17 C19.20625 16.21625 19.4125 15.4325 19.625 14.625 C19.810625 13.325625 19.810625 13.325625 20 12 C19.34 11.34 18.68 10.68 18 10 C19 9 19 9 21.68383789 8.88647461 C22.85164795 8.89171143 24.01945801 8.89694824 25.22265625 8.90234375 C26.48271484 8.90556641 27.74277344 8.90878906 29.04101562 8.91210938 C30.38151109 8.92046597 31.72200588 8.92893093 33.0625 8.9375 C34.40689942 8.9425134 35.7513006 8.94707658 37.09570312 8.95117188 C40.39717941 8.96300512 43.69856803 8.97949029 47 9 C47 9.66 47 10.32 47 11 C43.04 11.33 39.08 11.66 35 12 C34.67 12.99 34.34 13.98 34 15 C33.01 15 32.02 15 31 15 C31 17.97 31 20.94 31 24 C30.67 24 30.34 24 30 24 C30 20.7 30 17.4 30 14 C28.68 14 27.36 14 26 14 C25.505 13.01 25.505 13.01 25 12 C24.01 11.67 23.02 11.34 22 11 C22 15.29 22 19.58 22 24 C23.32 24.33 24.64 24.66 26 25 C26 25.33 26 25.66 26 26 C7.85 26 -10.3 26 -29 26 C-28.67 25.34 -28.34 24.68 -28 24 C-21.07 24 -14.14 24 -7 24 C-7 22.35 -7 20.7 -7 19 C-9.98241547 18.22678118 -12.97580475 17.58803797 -16 17 C-16 15.02 -16 13.04 -16 11 C-18.97 10.505 -18.97 10.505 -22 10 C-22 9.67 -22 9.34 -22 9 C-27.28 9 -32.56 9 -38 9 C-38 6.36 -38 3.72 -38 1 C-33.7133455 0.85610373 -29.42664344 0.71374336 -25.13989258 0.57275391 C-23.68414969 0.52466485 -22.22842017 0.47616942 -20.77270508 0.42724609 C-18.67011921 0.35665568 -16.56748829 0.28756785 -14.46484375 0.21875 C-13.202771 0.17685547 -11.94069824 0.13496094 -10.64038086 0.09179688 C-7.09177252 0.00231416 -3.54955964 -0.01599802 0 0 Z " fill="#F7F9FA" transform="translate(121,151)"/>
<path d="M0 0 C1.67968616 0.00502803 3.35937378 0.00958862 5.0390625 0.01367188 C9.10944194 0.02370733 13.17961281 0.04330006 17.25 0.0625 C17.25 8.3125 17.25 16.5625 17.25 25.0625 C16.26 24.0725 16.26 24.0725 15.25 23.0625 C14.79625 23.5575 14.3425 24.0525 13.875 24.5625 C12.25 26.0625 12.25 26.0625 10.25 26.0625 C10.25 25.4025 10.25 24.7425 10.25 24.0625 C9.59 24.0625 8.93 24.0625 8.25 24.0625 C8.25 47.1625 8.25 70.2625 8.25 94.0625 C7.92 94.0625 7.59 94.0625 7.25 94.0625 C7.25 64.6925 7.25 35.3225 7.25 5.0625 C-39.28 5.0625 -85.81 5.0625 -133.75 5.0625 C-133.75 4.7325 -133.75 4.4025 -133.75 4.0625 C-132.51901833 4.0470388 -132.51901833 4.0470388 -131.26316833 4.03126526 C-123.37021289 3.93158189 -115.47730276 3.828892 -107.58442593 3.72316074 C-103.53066724 3.66895453 -99.4769016 3.61574843 -95.4230957 3.56518555 C-79.29315314 3.36321771 -63.1646063 3.13533644 -47.04023933 2.65171623 C-45.67040367 2.61072386 -44.30052316 2.57120138 -42.93060112 2.53320503 C-41.05783001 2.4803172 -39.18527479 2.41993989 -37.31274414 2.35913086 C-35.72992393 2.30951454 -35.72992393 2.30951454 -34.11512756 2.25889587 C-31.79479847 2.32268713 -31.79479847 2.32268713 -30.75 1.0625 C-20.622822 -0.47958212 -10.21350122 -0.05363809 0 0 Z " fill="#29273A" transform="translate(213.75,82.9375)"/>
<path d="M0 0 C1.32 0 2.64 0 4 0 C4.33 4.29 4.66 8.58 5 13 C5.33 8.71 5.66 4.42 6 0 C7.65 0 9.3 0 11 0 C11 11.55 11 23.1 11 35 C3.575 35.99 3.575 35.99 -4 37 C-4 36.34 -4 35.68 -4 35 C-5.485 35.495 -5.485 35.495 -7 36 C-9.31 35.34 -11.62 34.68 -14 34 C-14 29.05 -14 24.1 -14 19 C-12.35 19 -10.7 19 -9 19 C-8.01 15.535 -8.01 15.535 -7 12 C-5.35 12 -3.7 12 -2 12 C-2.02320313 11.30132812 -2.04640625 10.60265625 -2.0703125 9.8828125 C-2.08835938 8.97273438 -2.10640625 8.06265625 -2.125 7.125 C-2.14820313 6.22007813 -2.17140625 5.31515625 -2.1953125 4.3828125 C-2 2 -2 2 0 0 Z " fill="#FDDEF2" transform="translate(199,109)"/>
<path d="M0 0 C-0.33 0.33 -0.66 0.66 -1 1 C19.13 1 39.26 1 60 1 C59.505 0.01 59.505 0.01 59 -1 C63.19528189 -0.88003561 67.39040758 -0.75571666 71.58544922 -0.62768555 C73.00696476 -0.58487654 74.42851415 -0.54317473 75.85009766 -0.50268555 C101.22249591 0.22249591 101.22249591 0.22249591 104 3 C100.69090217 4.65454892 96.98822224 4.38754482 93.34326172 4.55419922 C92.45359144 4.59630964 91.56392117 4.63842007 90.64729118 4.68180656 C79.93599407 5.14602132 69.2271759 5.14462679 58.5078125 5.1328125 C56.30223581 5.13348893 54.0966592 5.13446175 51.89108276 5.13571167 C47.30091634 5.13717335 42.71076958 5.13508432 38.12060547 5.13037109 C32.30308524 5.12468159 26.48561126 5.12795778 20.66809273 5.13394356 C16.12242295 5.13759667 11.57676373 5.13638893 7.0310936 5.13381577 C4.88897572 5.1331592 2.74685681 5.13392918 0.60474014 5.13629532 C-10.28990537 5.14569246 -21.16197668 5.03150999 -32.04736328 4.55419922 C-33.39616483 4.49611682 -33.39616483 4.49611682 -34.77221489 4.43686104 C-39.57430125 4.20278498 -44.25337583 3.76752316 -49 3 C-48.67 2.34 -48.34 1.68 -48 1 C-40.01674956 -0.86951009 -31.12549655 -0.3238658 -22.93896484 -0.55761719 C-20.60879055 -0.62547202 -18.27906846 -0.70311629 -15.94921875 -0.78125 C-14.45835099 -0.82611144 -12.96746594 -0.87040297 -11.4765625 -0.9140625 C-10.78486969 -0.93796051 -10.09317688 -0.96185852 -9.38052368 -0.98648071 C-6.0846291 -1.07226196 -3.14903261 -1.03830798 0 0 Z " fill="#D3D7D8" transform="translate(122,218)"/>
<path d="M0 0 C12.54 0 25.08 0 38 0 C38.495 4.455 38.495 4.455 39 9 C39.66 9.99 40.32 10.98 41 12 C41.13525391 14.91088867 41.13525391 14.91088867 40.9765625 18.41796875 C40.925 19.67158203 40.8734375 20.92519531 40.8203125 22.21679688 C40.75585938 23.52712891 40.69140625 24.83746094 40.625 26.1875 C40.56674184 27.52274464 40.50943894 28.85803133 40.453125 30.19335938 C40.31148964 33.4627755 40.16005905 36.73144242 40 40 C42.64 40 45.28 40 48 40 C48 40.99 48 41.98 48 43 C41.73 43 35.46 43 29 43 C27.79970092 40.59940183 27.88540257 39.10639351 27.90234375 36.4296875 C27.90556641 35.53378906 27.90878906 34.63789063 27.91210938 33.71484375 C27.92048828 32.77769531 27.92886719 31.84054688 27.9375 30.875 C27.94201172 29.93011719 27.94652344 28.98523438 27.95117188 28.01171875 C27.96297643 25.67441613 27.97944241 23.33723939 28 21 C29.32 20.67 30.64 20.34 32 20 C32.33 14.72 32.66 9.44 33 4 C30.525 4.020625 28.05 4.04125 25.5 4.0625 C16.96717933 4.09677507 8.50576431 3.64108049 0 3 C0 2.01 0 1.02 0 0 Z " fill="#F3FAFD" transform="translate(144,104)"/>
<path d="M0 0 C0.99 0 1.98 0 3 0 C3.2475 0.78375 3.495 1.5675 3.75 2.375 C5.15389099 5.32317108 6.00675737 5.9024777 9 7 C8.67 5.02 8.34 3.04 8 1 C8.64026123 1.00523682 9.28052246 1.01047363 9.94018555 1.01586914 C12.85594695 1.03672429 15.77169262 1.04968729 18.6875 1.0625 C19.69490234 1.07087891 20.70230469 1.07925781 21.74023438 1.08789062 C22.71669922 1.09111328 23.69316406 1.09433594 24.69921875 1.09765625 C25.59471436 1.10289307 26.49020996 1.10812988 27.4128418 1.11352539 C30.42579316 1.04739001 30.42579316 1.04739001 35 0 C35 5.28 35 10.56 35 16 C30.71 16 26.42 16 22 16 C22 16.66 22 17.32 22 18 C19.03 17.67 16.06 17.34 13 17 C13 14.03 13 11.06 13 8 C11.74050951 9.03406673 11.74050951 9.03406673 11.90234375 11.28515625 C11.91394531 12.20167969 11.92554688 13.11820313 11.9375 14.0625 C11.95103516 15.44115234 11.95103516 15.44115234 11.96484375 16.84765625 C11.97644531 17.55792969 11.98804688 18.26820313 12 19 C9.66705225 19.04241723 7.33297433 19.04092937 5 19 C4 18 4 18 3.90234375 16.00390625 C3.91394531 15.19824219 3.92554688 14.39257812 3.9375 13.5625 C3.94652344 12.75941406 3.95554688 11.95632812 3.96484375 11.12890625 C3.97644531 10.42636719 3.98804688 9.72382813 4 9 C4 8.34 4 7.68 4 7 C3.67 9.97 3.34 12.94 3 16 C2.01 16 1.02 16 0 16 C0 10.72 0 5.44 0 0 Z " fill="#F8F6EB" transform="translate(178,158)"/>
<path d="M0 0 C1.59567724 0.00187028 3.19135506 0.00329129 4.78703308 0.00428772 C8.94122974 0.00806491 13.09539018 0.01785287 17.24957275 0.0289917 C21.50687165 0.03931032 25.76417652 0.04380749 30.02148438 0.04882812 C38.34116226 0.05948057 46.66081097 0.07649762 54.98046875 0.09765625 C54.98046875 2.07765625 54.98046875 4.05765625 54.98046875 6.09765625 C26.93046875 6.09765625 -1.11953125 6.09765625 -30.01953125 6.09765625 C-30.01953125 4.44765625 -30.01953125 2.79765625 -30.01953125 1.09765625 C-19.99854028 0.13672252 -10.05363347 -0.0351248 0 0 Z " fill="#D07465" transform="translate(166.01953125,87.90234375)"/>
<path d="M0 0 C56.43 0 112.86 0 171 0 C170.67 0.66 170.34 1.32 170 2 C169.08584824 1.99666908 169.08584824 1.99666908 168.15322876 1.99327087 C161.82709335 1.9711979 155.50096882 1.95608495 149.17480469 1.94506836 C146.81184444 1.94003041 144.44888732 1.93319992 142.0859375 1.92456055 C138.69530465 1.91247146 135.30471291 1.90676641 131.9140625 1.90234375 C130.85256989 1.89718246 129.79107727 1.89202118 128.69741821 1.88670349 C127.71655243 1.88662796 126.73568665 1.88655243 125.72509766 1.88647461 C124.85905914 1.884254 123.99302063 1.88203339 123.10073853 1.87974548 C120.9416034 1.86446254 120.9416034 1.86446254 119 3 C119 3.99 119 4.98 119 6 C122.63 6 126.26 6 130 6 C130 6.33 130 6.66 130 7 C128.71802734 7.09087891 128.71802734 7.09087891 127.41015625 7.18359375 C126.30542969 7.26738281 125.20070313 7.35117188 124.0625 7.4375 C122.96035156 7.51871094 121.85820312 7.59992188 120.72265625 7.68359375 C118.08890097 7.70418084 118.08890097 7.70418084 117 9 C114.87445502 9.15944905 112.74381179 9.25155968 110.61328125 9.31640625 C109.95982224 9.33718735 109.30636322 9.35796844 108.63310242 9.37937927 C107.23846213 9.42275907 105.84374705 9.46378624 104.44897461 9.50268555 C102.36617641 9.56099723 100.28371017 9.62646949 98.20117188 9.69335938 C89.46450732 9.96263076 80.74136168 10.05401724 72 10 C74.27511257 6.58733115 75.3542658 6.45829368 79 5 C79.66 4.01 80.32 3.02 81 2 C54.27 1.67 27.54 1.34 0 1 C0 0.67 0 0.34 0 0 Z " fill="#1F3045" transform="translate(65,77)"/>
<path d="M0 0 C5.94 0 11.88 0 18 0 C18 0.33 18 0.66 18 1 C18.70608398 1.01458252 19.41216797 1.02916504 20.13964844 1.04418945 C23.34364674 1.11873167 26.54661016 1.21537205 29.75 1.3125 C31.41675781 1.34633789 31.41675781 1.34633789 33.1171875 1.38085938 C34.18710938 1.41630859 35.25703125 1.45175781 36.359375 1.48828125 C37.34389648 1.51446533 38.32841797 1.54064941 39.34277344 1.56762695 C42.44911722 2.07307852 43.84975759 2.70155163 46 5 C46.45410156 7.36010742 46.45410156 7.36010742 46.390625 10.10546875 C46.38063477 10.99129639 46.37064453 11.87712402 46.36035156 12.78979492 C46.30572754 14.47165894 46.30572754 14.47165894 46.25 16.1875 C46.1675 19.755625 46.085 23.32375 46 27 C36.1 27 26.2 27 16 27 C15.67 23.37 15.34 19.74 15 16 C15.66 16 16.32 16 17 16 C17 18.97 17 21.94 17 25 C19.97 25.33 22.94 25.66 26 26 C26 25.34 26 24.68 26 24 C27.32 24 28.64 24 30 24 C30 22.02 30 20.04 30 18 C30.33 18 30.66 18 31 18 C31 19.98 31 21.96 31 24 C31.99 24 32.98 24 34 24 C34 21.69 34 19.38 34 17 C34.33 17 34.66 17 35 17 C35 19.31 35 21.62 35 24 C36.32 24 37.64 24 39 24 C39 18.72 39 13.44 39 8 C37.68 8 36.36 8 35 8 C35 10.31 35 12.62 35 15 C34.67 15 34.34 15 34 15 C34 13.02 34 11.04 34 9 C26.74 9 19.48 9 12 9 C12 8.34 12 7.68 12 7 C21.57 6.67 31.14 6.34 41 6 C27.14 6 13.28 6 -1 6 C-1 2 -1 2 0 0 Z " fill="#F2F8F7" transform="translate(174,150)"/>
<path d="M0 0 C9.9 0 19.8 0 30 0 C25.39916162 4.60083838 17.18124572 5.53897828 11 7 C10.86722656 7.61617188 10.73445313 8.23234375 10.59765625 8.8671875 C10 11 10 11 8.4375 13.125 C6.28794769 17.42410462 6.23239313 21.28675033 7 26 C9.83780672 32.83175693 14.46104746 36.73052373 21 40 C10.11 40.495 10.11 40.495 -1 41 C-1 32.09 -1 23.18 -1 14 C1.97 14.495 1.97 14.495 5 15 C5 11.7 5 8.4 5 5 C3.35 5 1.7 5 0 5 C0 3.35 0 1.7 0 0 Z " fill="#FBFBFB" transform="translate(84,104)"/>
<path d="M0 0 C0.66 0.33 1.32 0.66 2 1 C0.68 1.33 -0.64 1.66 -2 2 C-2 2.66 -2 3.32 -2 4 C1.3 3.34 4.6 2.68 8 2 C8 2.66 8 3.32 8 4 C8.74765625 3.96519531 9.4953125 3.93039063 10.265625 3.89453125 C11.25046875 3.86746094 12.2353125 3.84039062 13.25 3.8125 C14.71179688 3.76029297 14.71179688 3.76029297 16.203125 3.70703125 C19.37468742 4.03924798 20.67040307 4.88672279 23 7 C20.03 7 17.06 7 14 7 C14 7.99 14 8.98 14 10 C19.445 10.495 19.445 10.495 25 11 C25 11.33 25 11.66 25 12 C20.545 12.495 20.545 12.495 16 13 C15.67 14.32 15.34 15.64 15 17 C15.804375 17.45375 16.60875 17.9075 17.4375 18.375 C20 20 20 20 21 22 C22.32 22 23.64 22 25 22 C24.67 23.32 24.34 24.64 24 26 C22.68 26 21.36 26 20 26 C19.34 24.35 18.68 22.7 18 21 C14.65747276 20.92572162 12.1964086 20.93453047 9 22 C9 21.01 9 20.02 9 19 C9.66 19 10.32 19 11 19 C11 18.34 11 17.68 11 17 C9.35 17 7.7 17 6 17 C5.505 15.515 5.505 15.515 5 14 C6.32 14 7.64 14 9 14 C7.2041956 11.77912428 7.2041956 11.77912428 4.76025391 11.78881836 C3.84163574 11.80565674 2.92301758 11.82249512 1.9765625 11.83984375 C0.96013672 11.85144531 -0.05628906 11.86304688 -1.10351562 11.875 C-2.18310547 11.895625 -3.26269531 11.91625 -4.375 11.9375 C-12.6556695 12.02585332 -20.7694371 12.01077088 -29 11 C-29 9.68 -29 8.36 -29 7 C-27.86820312 6.96261719 -26.73640625 6.92523438 -25.5703125 6.88671875 C-24.08850795 6.82106918 -22.60673861 6.75462149 -21.125 6.6875 C-20.00544922 6.65366211 -20.00544922 6.65366211 -18.86328125 6.61914062 C-16.900396 6.52188055 -14.94671678 6.26957706 -13 6 C-12.34 5.01 -11.68 4.02 -11 3 C-11.33 2.34 -11.66 1.68 -12 1 C-11.07767578 1.01740234 -11.07767578 1.01740234 -10.13671875 1.03515625 C-8.92435547 1.04869141 -8.92435547 1.04869141 -7.6875 1.0625 C-6.88699219 1.07410156 -6.08648437 1.08570313 -5.26171875 1.09765625 C-2.83138666 1.09657855 -2.83138666 1.09657855 0 0 Z " fill="#EEEDEB" transform="translate(112,140)"/>
<path d="M0 0 C22.77 0 45.54 0 69 0 C69 0.33 69 0.66 69 1 C64.71 1 60.42 1 56 1 C56 2.65 56 4.3 56 6 C37.52 6 19.04 6 0 6 C0 4.02 0 2.04 0 0 Z " fill="#DCB275" transform="translate(80,88)"/>
<path d="M0 0 C1.52519276 0.08937803 3.04681929 0.24537146 4.5625 0.4375 C5.80193359 0.59025391 5.80193359 0.59025391 7.06640625 0.74609375 C7.70449219 0.82988281 8.34257813 0.91367188 9 1 C8.01 2.485 8.01 2.485 7 4 C6.195625 3.814375 5.39125 3.62875 4.5625 3.4375 C3.2940625 3.2209375 3.2940625 3.2209375 2 3 C0.54320625 4.22868902 0.54320625 4.22868902 0.875 7.9375 C0.90624029 11.2437638 1.12378592 14.46618857 1.5 17.75 C3.1322314 32.60330579 3.1322314 32.60330579 1 39 C3.31 38.01 5.62 37.02 8 36 C7.67 36.99 7.34 37.98 7 39 C6.34 39 5.68 39 5 39 C4.87625 39.928125 4.7525 40.85625 4.625 41.8125 C4 45 4 45 2 48 C1.70957425 50.56711761 1.70957425 50.56711761 1.77294922 53.48120117 C1.77310028 54.60213669 1.77325134 55.7230722 1.77340698 56.87797546 C1.78372955 58.08742325 1.79405212 59.29687103 1.8046875 60.54296875 C1.8075174 61.78170242 1.81034729 63.0204361 1.81326294 64.29670715 C1.82256814 67.58638087 1.84053209 70.87585863 1.8626709 74.16546631 C1.8831473 77.52369794 1.89226848 80.88195828 1.90234375 84.24023438 C1.92441729 90.82689973 1.95790478 97.41343383 2 104 C0.515 104.495 0.515 104.495 -1 105 C-1.0231206 91.45735822 -1.04091364 77.9147211 -1.05181217 64.37206364 C-1.05704162 58.08437976 -1.06414039 51.79670934 -1.07543945 45.5090332 C-1.08626614 39.44662277 -1.09227637 33.38422531 -1.09487724 27.32180595 C-1.09673189 25.00323723 -1.10035325 22.68466926 -1.10573006 20.36610603 C-1.11293758 17.13085492 -1.11399106 13.89565817 -1.11352539 10.66040039 C-1.11712067 9.69151886 -1.12071594 8.72263733 -1.12442017 7.72439575 C-1.1230455 6.84794907 -1.12167084 5.97150238 -1.12025452 5.0684967 C-1.12117631 4.30248673 -1.1220981 3.53647676 -1.12304783 2.74725437 C-1 1 -1 1 0 0 Z " fill="#23404E" transform="translate(64,77)"/>
<path d="M0 0 C1.32 0.33 2.64 0.66 4 1 C4 1.66 4 2.32 4 3 C5.65 3.33 7.3 3.66 9 4 C9 3.01 9 2.02 9 1 C9 0.67 9 0.34 9 0 C14.28 0 19.56 0 25 0 C25 0.33 25 0.66 25 1 C22.69 1 20.38 1 18 1 C18 1.66 18 2.32 18 3 C20.31 3.33 22.62 3.66 25 4 C25 6.64 25 9.28 25 12 C22.03 12 19.06 12 16 12 C15.67 12.99 15.34 13.98 15 15 C13.25034642 15.05429959 11.50020213 15.09292823 9.75 15.125 C8.77546875 15.14820313 7.8009375 15.17140625 6.796875 15.1953125 C4 15 4 15 0 13 C0 8.71 0 4.42 0 0 Z " fill="#F1ECF4" transform="translate(143,162)"/>
<path d="M0 0 C2.97 0 5.94 0 9 0 C9 1.98 9 3.96 9 6 C9.556875 5.773125 10.11375 5.54625 10.6875 5.3125 C13 5 13 5 15.6875 6.0625 C18.66579531 8.5578285 18.53684589 10.24896069 19 14 C15.9999376 14.02721831 13.00012744 14.04694378 10 14.0625 C8.74123047 14.07506836 8.74123047 14.07506836 7.45703125 14.08789062 C2.20680661 14.10824033 -2.80455662 13.76368207 -8 13 C-8 10.03 -8 7.06 -8 4 C-5.36 4 -2.72 4 0 4 C0 2.68 0 1.36 0 0 Z " fill="#E5D2EA" transform="translate(96,162)"/>
<path d="M0 0 C17.16 0 34.32 0 52 0 C52 1.98 52 3.96 52 6 C37.15 6 22.3 6 7 6 C7 5.67 7 5.34 7 5 C10.07617188 4.70703125 10.07617188 4.70703125 13.15234375 4.4140625 C14.06693359 4.20910156 14.06693359 4.20910156 15 4 C15.33 3.34 15.66 2.68 16 2 C10.72 1.67 5.44 1.34 0 1 C0 0.67 0 0.34 0 0 Z " fill="#BC5066" transform="translate(169,88)"/>
<path d="M0 0 C0 0.66 0 1.32 0 2 C-0.99 2 -1.98 2 -3 2 C-3 7.28 -3 12.56 -3 18 C-2.01 18 -1.02 18 0 18 C0 14.7 0 11.4 0 8 C0.99 8.99 1.98 9.98 3 11 C2.34 11 1.68 11 1 11 C1.33 14.3 1.66 17.6 2 21 C-2.12486838 21.08676908 -6.24950384 21.14031295 -10.375 21.1875 C-11.550625 21.21263672 -12.72625 21.23777344 -13.9375 21.26367188 C-15.05898437 21.27333984 -16.18046875 21.28300781 -17.3359375 21.29296875 C-18.37282715 21.3086792 -19.4097168 21.32438965 -20.47802734 21.34057617 C-21.31027832 21.22818604 -22.1425293 21.1157959 -23 21 C-23.66 20.01 -24.32 19.02 -25 18 C-24.01 18 -23.02 18 -22 18 C-22 16.02 -22 14.04 -22 12 C-21.67 12 -21.34 12 -21 12 C-21 13.98 -21 15.96 -21 18 C-19.68 18 -18.36 18 -17 18 C-17 16.02 -17 14.04 -17 12 C-16.67 12 -16.34 12 -16 12 C-16 13.98 -16 15.96 -16 18 C-15.01 18 -14.02 18 -13 18 C-13.03480469 17.39671875 -13.06960937 16.7934375 -13.10546875 16.171875 C-13.32961088 9.55434556 -13.32961088 9.55434556 -11.625 6.6875 C-11.08875 6.130625 -10.5525 5.57375 -10 5 C-9.690625 4.278125 -9.38125 3.55625 -9.0625 2.8125 C-8 1 -8 1 -6.125 0.25 C-4 0 -4 0 0 0 Z " fill="#F3DFEA" transform="translate(181,156)"/>
<path d="M0 0 C4.92604873 0.43465136 7.51891224 2.59626975 11 6 C13.61937593 10.28625152 13.39352617 15.11295408 13 20 C12.67 20.99 12.34 21.98 12 23 C8.42959697 22.34097701 5.82267745 20.83770842 2.75 18.9375 C1.85796875 18.38964844 0.9659375 17.84179688 0.046875 17.27734375 C-0.62859375 16.85582031 -1.3040625 16.43429688 -2 16 C-1.50130596 10.63108121 -0.97772468 5.30764827 0 0 Z " fill="#E8B95C" transform="translate(108,110)"/>
<path d="M0 0 C0.33 1.32 0.66 2.64 1 4 C3.31 4 5.62 4 8 4 C8 9.61 8 15.22 8 21 C-2.05859375 21.09765625 -2.05859375 21.09765625 -5 21 C-5.33 20.67 -5.66 20.34 -6 20 C-7.52519276 20.08937803 -9.04681929 20.24537146 -10.5625 20.4375 C-11.38878906 20.53933594 -12.21507813 20.64117187 -13.06640625 20.74609375 C-14.02353516 20.87177734 -14.02353516 20.87177734 -15 21 C-15 20.34 -15 19.68 -15 19 C-14.36191406 18.74605469 -13.72382812 18.49210937 -13.06640625 18.23046875 C-12.24011719 17.88628906 -11.41382812 17.54210937 -10.5625 17.1875 C-9.73878906 16.85105469 -8.91507812 16.51460937 -8.06640625 16.16796875 C-5.66627512 15.11596912 -5.66627512 15.11596912 -5 12 C-4.34 12 -3.68 12 -3 12 C-2.86722656 11.21753906 -2.73445313 10.43507812 -2.59765625 9.62890625 C-2.42105469 8.61699219 -2.24445313 7.60507813 -2.0625 6.5625 C-1.88847656 5.55316406 -1.71445313 4.54382813 -1.53515625 3.50390625 C-1 1 -1 1 0 0 Z " fill="#FCFBFB" transform="translate(125,123)"/>
<path d="M0 0 C10.89 0 21.78 0 33 0 C33.495 4.95 33.495 4.95 34 10 C33.505 8.02 33.505 8.02 33 6 C22.11 6 11.22 6 0 6 C0 4.02 0 2.04 0 0 Z " fill="#184057" transform="translate(135,200)"/>
<path d="M0 0 C4.19528189 0.11996439 8.39040758 0.24428334 12.58544922 0.37231445 C14.00696476 0.41512346 15.42851415 0.45682527 16.85009766 0.49731445 C42.22249591 1.22249591 42.22249591 1.22249591 45 4 C41.85425544 5.57287228 38.46209417 5.39355813 35 5.5625 C34.15727539 5.6049585 33.31455078 5.64741699 32.44628906 5.69116211 C17.98026544 6.31678113 3.47573022 6.08193334 -11 6 C-10.67 5.34 -10.34 4.68 -10 4 C-6.04 4 -2.08 4 2 4 C1.34 2.68 0.68 1.36 0 0 Z " fill="#D2D6D8" transform="translate(181,217)"/>
<path d="M0 0 C0.66 0 1.32 0 2 0 C2.33 8.91 2.66 17.82 3 27 C3.99 26.67 4.98 26.34 6 26 C8.6875 26.4375 8.6875 26.4375 11 27 C9 29 9 29 6.375 29.125 C5.59125 29.08375 4.8075 29.0425 4 29 C6.64 29.33 9.28 29.66 12 30 C11.67 30.99 11.34 31.98 11 33 C5.06 33 -0.88 33 -7 33 C-7 32.01 -7 31.02 -7 30 C-5.02 29.67 -3.04 29.34 -1 29 C-1.33 28.34 -1.66 27.68 -2 27 C-1.34 27 -0.68 27 0 27 C0 21.39 0 15.78 0 10 C-2.31 10 -4.62 10 -7 10 C-7 8.68 -7 7.36 -7 6 C-8.32 6 -9.64 6 -11 6 C-11 4.35 -11 2.7 -11 1 C-8.36 1 -5.72 1 -3 1 C-2.34 2.98 -1.68 4.96 -1 7 C-0.67 4.69 -0.34 2.38 0 0 Z " fill="#E9EAEA" transform="translate(133,117)"/>
<path d="M0 0 C0.66 0.33 1.32 0.66 2 1 C2 16.84 2 32.68 2 49 C1.34 49 0.68 49 0 49 C0 36.46 0 23.92 0 11 C-2.31 11 -4.62 11 -7 11 C-7 23.21 -7 35.42 -7 48 C-7.33 48 -7.66 48 -8 48 C-8 36.45 -8 24.9 -8 13 C-11.96 13 -15.92 13 -20 13 C-20 12.67 -20 12.34 -20 12 C-19.04287109 11.92652344 -19.04287109 11.92652344 -18.06640625 11.8515625 C-16.82697266 11.73941406 -16.82697266 11.73941406 -15.5625 11.625 C-14.73878906 11.55539063 -13.91507813 11.48578125 -13.06640625 11.4140625 C-12.38449219 11.27742188 -11.70257813 11.14078125 -11 11 C-10.67 10.34 -10.34 9.68 -10 9 C-8.70936788 8.35042911 -7.39228791 7.75259975 -6.0625 7.1875 C-2.9957756 5.73368611 -2.18001896 5.33003477 -0.5 2.25 C-0.335 1.5075 -0.17 0.765 0 0 Z " fill="#F0F0F5" transform="translate(218,95)"/>
<path d="M0 0 C1.8871875 0.061875 1.8871875 0.061875 3.8125 0.125 C2.84894647 10.68308656 2.84894647 10.68308656 1.8125 15.125 C-3.42630078 14.57354729 -8.16100697 13.69577907 -13.1875 12.125 C-12.77174938 7.27457612 -10.77090022 5.28180495 -7.1875 2.125 C-4.09861478 0.06574319 -3.47814073 -0.1140374 0 0 Z " fill="#D11A5D" transform="translate(104.1875,109.875)"/>
<path d="M0 0 C2.46691895 -0.38095093 2.46691895 -0.38095093 5.61132812 -0.38818359 C6.78594604 -0.39764008 7.96056396 -0.40709656 9.17077637 -0.4168396 C11.08171082 -0.40773056 11.08171082 -0.40773056 13.03125 -0.3984375 C14.33324341 -0.40130768 15.63523682 -0.40417786 16.97668457 -0.40713501 C19.7340765 -0.41156096 22.49117706 -0.40511907 25.24853516 -0.39111328 C28.78640179 -0.37402066 32.32358574 -0.38386048 35.86142731 -0.40183067 C39.23058992 -0.41526603 42.59956797 -0.40586469 45.96875 -0.3984375 C47.2427063 -0.40451019 48.5166626 -0.41058289 49.82922363 -0.4168396 C51.00384155 -0.40738312 52.17845947 -0.39792664 53.38867188 -0.38818359 C54.4263269 -0.38579681 55.46398193 -0.38341003 56.53308105 -0.38095093 C57.34716431 -0.25523712 58.16124756 -0.12952332 59 0 C59.66 0.99 60.32 1.98 61 3 C40.21 3 19.42 3 -2 3 C-1.34 2.01 -0.68 1.02 0 0 Z " fill="#152A43" transform="translate(122,217)"/>
<path d="M0 0 C0.99 0 1.98 0 3 0 C3.309375 0.804375 3.61875 1.60875 3.9375 2.4375 C4.76335345 4.89080405 4.76335345 4.89080405 6 6 C9.62059232 6.29356154 11.87703962 5.85064319 15 4 C17.83022097 7.99560608 16.76210446 11.42737323 16 16 C15.01 16 14.02 16 13 16 C13 13.36 13 10.72 13 8 C11.74050951 9.03406673 11.74050951 9.03406673 11.90234375 11.28515625 C11.91394531 12.20167969 11.92554688 13.11820313 11.9375 14.0625 C11.95103516 15.44115234 11.95103516 15.44115234 11.96484375 16.84765625 C11.97644531 17.55792969 11.98804688 18.26820313 12 19 C9.66705225 19.04241723 7.33297433 19.04092937 5 19 C4 18 4 18 3.90234375 16.00390625 C3.91394531 15.19824219 3.92554688 14.39257812 3.9375 13.5625 C3.94652344 12.75941406 3.95554688 11.95632812 3.96484375 11.12890625 C3.97644531 10.42636719 3.98804688 9.72382813 4 9 C4 8.34 4 7.68 4 7 C3.67 9.97 3.34 12.94 3 16 C2.01 16 1.02 16 0 16 C0 10.72 0 5.44 0 0 Z " fill="#C3C6C0" transform="translate(178,158)"/>
<path d="M0 0 C2.39073445 3.82517513 2.55966552 7.59665524 3 12 C3.804375 11.979375 4.60875 11.95875 5.4375 11.9375 C8 12 8 12 9 13 C9.825 13 10.65 13 11.5 13 C12.325 13 13.15 13 14 13 C15 14 15 14 15.09765625 16.06640625 C15.06510417 18.37760417 15.03255208 20.68880208 15 23 C10.05 23 5.1 23 0 23 C-1.28571429 7 -1.28571429 7 0 0 Z " fill="#CFE4F4" transform="translate(138,120)"/>
<path d="M0 0 C1.65 0 3.3 0 5 0 C5 11.22 5 22.44 5 34 C3.35 34 1.7 34 0 34 C0 22.78 0 11.56 0 0 Z " fill="#BD396A" transform="translate(205,109)"/>
<path d="M0 0 C2.20914 3.31371 2.22481553 4.3446021 2.125 8.1875 C2.10695312 9.08855469 2.08890625 9.98960938 2.0703125 10.91796875 C2.03550781 11.94857422 2.03550781 11.94857422 2 13 C0.35 13.33 -1.3 13.66 -3 14 C-3.33 20.6 -3.66 27.2 -4 34 C-4.33 34 -4.66 34 -5 34 C-5 29.38 -5 24.76 -5 20 C-6.65 20 -8.3 20 -10 20 C-10 24.95 -10 29.9 -10 35 C-8.35 35 -6.7 35 -5 35 C-5 35.33 -5 35.66 -5 36 C-6.98 36 -8.96 36 -11 36 C-11.05783842 31.70838953 -11.0935412 27.41687855 -11.125 23.125 C-11.14175781 21.90167969 -11.15851563 20.67835938 -11.17578125 19.41796875 C-11.18222656 18.25136719 -11.18867188 17.08476563 -11.1953125 15.8828125 C-11.20578613 14.80402832 -11.21625977 13.72524414 -11.22705078 12.61376953 C-11 10 -11 10 -9 8 C-6.33333333 8 -3.66666667 8 -1 8 C-1 7.01 -1 6.02 -1 5 C-3.97 4.505 -3.97 4.505 -7 4 C-7 3.67 -7 3.34 -7 3 C-4.69 3 -2.38 3 0 3 C0 2.01 0 1.02 0 0 Z " fill="#F3FBFD" transform="translate(195,108)"/>
<path d="M0 0 C1.89142825 0.00186795 3.78285698 0.00329007 5.67428589 0.00428772 C10.62257248 0.00808319 15.57082914 0.01788772 20.519104 0.0289917 C25.58044022 0.03927007 30.64178133 0.04379904 35.703125 0.04882812 C45.61199223 0.05951298 55.52083736 0.07655323 65.4296875 0.09765625 C65.4296875 0.42765625 65.4296875 0.75765625 65.4296875 1.09765625 C64.74303009 1.10796371 64.05637268 1.11827118 63.34890747 1.12889099 C56.7910531 1.22798177 50.23326431 1.33062565 43.67552376 1.43699551 C40.30632944 1.49152732 36.93712886 1.54442152 33.56787109 1.5949707 C14.09258873 1.8327675 14.09258873 1.8327675 -5.35250854 2.85850525 C-8.63405449 3.09060357 -11.43167419 3.16825742 -14.5703125 2.09765625 C-15.2303125 4.07765625 -15.8903125 6.05765625 -16.5703125 8.09765625 C-18.2203125 7.76765625 -19.8703125 7.43765625 -21.5703125 7.09765625 C-22.2303125 9.07765625 -22.8903125 11.05765625 -23.5703125 13.09765625 C-23.6940625 12.45828125 -23.8178125 11.81890625 -23.9453125 11.16015625 C-24.1515625 10.47953125 -24.3578125 9.79890625 -24.5703125 9.09765625 C-25.2303125 8.76765625 -25.8903125 8.43765625 -26.5703125 8.09765625 C-25.1803994 5.31783004 -23.38372897 5.22302284 -20.5703125 4.09765625 C-20.2403125 3.43765625 -19.9103125 2.77765625 -19.5703125 2.09765625 C-22.8703125 2.09765625 -26.1703125 2.09765625 -29.5703125 2.09765625 C-29.5703125 1.76765625 -29.5703125 1.43765625 -29.5703125 1.09765625 C-19.72381723 -0.18996236 -9.91020236 -0.02887142 0 0 Z " fill="#4DA3B0" transform="translate(171.5703125,181.90234375)"/>
<path d="M0 0 C46.53 0 93.06 0 141 0 C141 0.33 141 0.66 141 1 C123.18923126 1.1305168 105.3784616 1.26090875 87.56769085 1.39115143 C79.29813786 1.45162612 71.02858518 1.5121419 62.7590332 1.57275391 C55.55261618 1.62557352 48.3461986 1.67831656 41.13978034 1.73096704 C37.32286368 1.75885634 33.50594731 1.78678438 29.6890316 1.81480408 C26.09812869 1.84116342 22.50722504 1.86742056 18.9163208 1.89359856 C16.9666997 1.90783829 15.01707939 1.92218706 13.06745911 1.9365387 C11.91059601 1.94495285 10.75373291 1.953367 9.56181335 1.96203613 C8.55429362 1.96941048 7.54677389 1.97678482 6.50872326 1.98438263 C4.67251037 1.99581347 2.83624847 2 1 2 C0.67 1.34 0.34 0.68 0 0 Z " fill="#3E4151" transform="translate(80,177)"/>
<path d="M0 0 C11.55 0 23.1 0 35 0 C35.495 1.98 35.495 1.98 36 4 C24.12 4 12.24 4 0 4 C0 2.68 0 1.36 0 0 Z " fill="#E4D9AA" transform="translate(81,90)"/>
<path d="M0 0 C1.32 0 2.64 0 4 0 C4 11.55 4 23.1 4 35 C2.68 35 1.36 35 0 35 C0 23.45 0 11.9 0 0 Z " fill="#48ABBE" transform="translate(212,108)"/>
<path d="M0 0 C20.79 0 41.58 0 63 0 C63 0.33 63 0.66 63 1 C62.14535156 1.06058594 61.29070312 1.12117187 60.41015625 1.18359375 C58.75306641 1.30927734 58.75306641 1.30927734 57.0625 1.4375 C55.96035156 1.51871094 54.85820312 1.59992188 53.72265625 1.68359375 C51.08890097 1.70418084 51.08890097 1.70418084 50 3 C47.26105915 3.08858646 44.5474673 3.11523479 41.80859375 3.09765625 C40.98875504 3.0962413 40.16891632 3.09482635 39.32423401 3.09336853 C36.69528618 3.08775289 34.06642227 3.07519779 31.4375 3.0625 C29.65950643 3.05748701 27.88151154 3.05292376 26.10351562 3.04882812 C21.73564455 3.03777839 17.36783652 3.02050331 13 3 C13 2.67 13 2.34 13 2 C8.71 1.67 4.42 1.34 0 1 C0 0.67 0 0.34 0 0 Z " fill="#BCC4C7" transform="translate(120,220)"/>
<path d="M0 0 C1.32 0 2.64 0 4 0 C4 5.28 4 10.56 4 16 C0.04 16 -3.92 16 -8 16 C-9.125 9.25 -9.125 9.25 -8 7 C-7.01 7 -6.02 7 -5 7 C-4.67 5.35 -4.34 3.7 -4 2 C-3.01 2 -2.02 2 -1 2 C-0.67 1.34 -0.34 0.68 0 0 Z " fill="#BBB083" transform="translate(209,158)"/>
<path d="M0 0 C1.32 0 2.64 0 4 0 C4 11.22 4 22.44 4 34 C2.68 34 1.36 34 0 34 C0 22.78 0 11.56 0 0 Z " fill="#AA1E53" transform="translate(199,109)"/>
<path d="M0 0 C0.66 0.33 1.32 0.66 2 1 C2.625 4.0625 2.625 4.0625 3 7 C3.804375 6.979375 4.60875 6.95875 5.4375 6.9375 C8 7 8 7 9 8 C11.17731389 8.12401914 13.35863454 8.1780151 15.53930664 8.20532227 C16.22220261 8.21522186 16.90509857 8.22512146 17.60868835 8.23532104 C19.87580853 8.26701935 22.14294969 8.29172613 24.41015625 8.31640625 C25.97815001 8.3369686 27.54613813 8.35796488 29.11412048 8.37937927 C33.24870248 8.43467424 37.38333511 8.48405062 41.51800537 8.53222656 C45.73405483 8.58238753 49.95003043 8.63810174 54.16601562 8.69335938 C62.44394803 8.8010317 70.72194208 8.90245635 79 9 C79 9.33 79 9.66 79 10 C78.20264435 10.00586624 77.4052887 10.01173248 76.58377075 10.01777649 C69.07894682 10.07561797 61.57445815 10.14764452 54.06993294 10.23571491 C50.21151939 10.28049253 46.35321323 10.31973184 42.49462891 10.34643555 C38.77266501 10.37239553 35.05111276 10.41274469 31.32940292 10.46318626 C29.90765366 10.47990476 28.48583311 10.49138794 27.06399918 10.49761391 C25.07656914 10.50720011 23.08926678 10.53692451 21.10205078 10.56762695 C19.40328293 10.58428154 19.40328293 10.58428154 17.67019653 10.60127258 C16.34844925 10.79864265 16.34844925 10.79864265 15 11 C14.01 12.485 14.01 12.485 13 14 C13 12.68 13 11.36 13 10 C6.73 10 0.46 10 -6 10 C-5.01 9.01 -4.02 8.02 -3 7 C-3.99 6.34 -4.98 5.68 -6 5 C-4.35 5 -2.7 5 -1 5 C-0.67 3.35 -0.34 1.7 0 0 Z " fill="#58B3BA" transform="translate(155,190)"/>
<path d="M0 0 C1.2777832 0.02618408 2.55556641 0.05236816 3.87207031 0.0793457 C4.55448792 0.08642044 5.23690552 0.09349518 5.94000244 0.1007843 C8.11120093 0.12868674 10.27978199 0.19140443 12.45019531 0.25512695 C13.92541837 0.28021578 15.40068202 0.30302795 16.87597656 0.32348633 C20.48489435 0.37849558 24.09228922 0.46473388 27.70019531 0.56762695 C27.70019531 1.55762695 27.70019531 2.54762695 27.70019531 3.56762695 C24.70053361 5.0674578 21.58072571 4.80664751 18.28613281 4.8840332 C17.55649323 4.9048143 16.82685364 4.9255954 16.07510376 4.94700623 C13.74189768 5.01244612 11.4085781 5.07136063 9.07519531 5.13012695 C7.49445436 5.17331748 5.91372493 5.21693195 4.33300781 5.26098633 C0.45552028 5.36812176 -3.42208154 5.46940478 -7.29980469 5.56762695 C-5.11315313 2.08776847 -4.14009858 0.71217292 0 0 Z " fill="#23405D" transform="translate(76.2998046875,77.432373046875)"/>
<path d="M0 0 C2.31 0 4.62 0 7 0 C7 6.27 7 12.54 7 19 C4.69 19 2.38 19 0 19 C0 12.73 0 6.46 0 0 Z " fill="#55B4C6" transform="translate(173,124)"/>
<path d="M0 0 C2.31 0 4.62 0 7 0 C7 12.54 7 25.08 7 38 C4.36 38 1.72 38 -1 38 C-0.67 25.46 -0.34 12.92 0 0 Z M1 2 C1 13.55 1 25.1 1 37 C2.32 37 3.64 37 5 37 C5 25.45 5 13.9 5 2 C3.68 2 2.36 2 1 2 Z " fill="#C7EDEC" transform="translate(211,106)"/>
<path d="M0 0 C2.93774463 -0.05390357 5.87450232 -0.0936255 8.8125 -0.125 C10.06256836 -0.15013672 10.06256836 -0.15013672 11.33789062 -0.17578125 C12.14033203 -0.18222656 12.94277344 -0.18867188 13.76953125 -0.1953125 C14.50792236 -0.20578613 15.24631348 -0.21625977 16.00708008 -0.22705078 C18 0 18 0 21 2 C23.12337771 2.36433373 23.12337771 2.36433373 25.44921875 2.4140625 C26.29677734 2.45273438 27.14433594 2.49140625 28.01757812 2.53125 C29.33918945 2.57765625 29.33918945 2.57765625 30.6875 2.625 C31.58017578 2.66367188 32.47285156 2.70234375 33.39257812 2.7421875 C35.5948462 2.83640218 37.79710722 2.92201588 40 3 C40 3.66 40 4.32 40 5 C26.47 5.33 12.94 5.66 -1 6 C-1 2 -1 2 0 0 Z " fill="#FCFBFA" transform="translate(174,150)"/>
<path d="M0 0 C1.52519276 0.08937803 3.04681929 0.24537146 4.5625 0.4375 C5.80193359 0.59025391 5.80193359 0.59025391 7.06640625 0.74609375 C7.70449219 0.82988281 8.34257813 0.91367188 9 1 C8.01 2.485 8.01 2.485 7 4 C6.195625 3.814375 5.39125 3.62875 4.5625 3.4375 C3.2940625 3.2209375 3.2940625 3.2209375 2 3 C-0.17881083 5.17881083 0.81322672 10.35285939 0.79467773 13.38500977 C0.78477814 14.37026642 0.77487854 15.35552307 0.76467896 16.37063599 C0.73296006 19.6442012 0.70826563 22.91778095 0.68359375 26.19140625 C0.66303318 28.45442595 0.64203696 30.71744173 0.62062073 32.98045349 C0.56530734 38.94974605 0.51593907 44.91907379 0.46777344 50.88842773 C0.4176259 56.97447864 0.3619047 63.06047816 0.30664062 69.14648438 C0.19894578 81.09761241 0.09752613 93.04878496 0 105 C-0.33 105 -0.66 105 -1 105 C-1.0231206 91.45735822 -1.04091364 77.9147211 -1.05181217 64.37206364 C-1.05704162 58.08437976 -1.06414039 51.79670934 -1.07543945 45.5090332 C-1.08626614 39.44662277 -1.09227637 33.38422531 -1.09487724 27.32180595 C-1.09673189 25.00323723 -1.10035325 22.68466926 -1.10573006 20.36610603 C-1.11293758 17.13085492 -1.11399106 13.89565817 -1.11352539 10.66040039 C-1.11712067 9.69151886 -1.12071594 8.72263733 -1.12442017 7.72439575 C-1.1230455 6.84794907 -1.12167084 5.97150238 -1.12025452 5.0684967 C-1.12117631 4.30248673 -1.1220981 3.53647676 -1.12304783 2.74725437 C-1 1 -1 1 0 0 Z " fill="#3B484D" transform="translate(64,77)"/>
<path d="M0 0 C0.75732422 0.00644531 1.51464844 0.01289063 2.29492188 0.01953125 C3.08060547 0.03628906 3.86628906 0.05304688 4.67578125 0.0703125 C5.47306641 0.07933594 6.27035156 0.08835938 7.09179688 0.09765625 C9.05742025 0.12119665 11.022889 0.15706703 12.98828125 0.1953125 C11.99828125 1.6803125 11.99828125 1.6803125 10.98828125 3.1953125 C8.19975235 3.41639037 5.64174944 3.47638785 2.86328125 3.3828125 C2.10917969 3.36927734 1.35507813 3.35574219 0.578125 3.34179688 C-1.28546002 3.30641235 -3.14867853 3.25260417 -5.01171875 3.1953125 C-5.01171875 4.5153125 -5.01171875 5.8353125 -5.01171875 7.1953125 C-1.05171875 7.1953125 2.90828125 7.1953125 6.98828125 7.1953125 C6.98828125 7.5253125 6.98828125 7.8553125 6.98828125 8.1953125 C3.02828125 8.1953125 -0.93171875 8.1953125 -5.01171875 8.1953125 C-5.01171875 16.4453125 -5.01171875 24.6953125 -5.01171875 33.1953125 C-5.67171875 33.1953125 -6.33171875 33.1953125 -7.01171875 33.1953125 C-7.08579065 28.81709341 -7.1402825 24.43920468 -7.17651367 20.06054688 C-7.19161475 18.57057341 -7.21209733 17.08064449 -7.23803711 15.59082031 C-7.27436459 13.4510602 -7.29143096 11.31188684 -7.3046875 9.171875 C-7.32039795 7.88361816 -7.3361084 6.59536133 -7.35229492 5.26806641 C-7.23990479 4.25405762 -7.12751465 3.24004883 -7.01171875 2.1953125 C-3.96490814 0.16410543 -3.41053551 -0.05128625 0 0 Z " fill="#E7E9ED" transform="translate(88.01171875,143.8046875)"/>
<path d="M0 0 C2.42451075 3.63676612 2.17129076 5.11447415 1.9765625 9.41796875 C1.925 10.67158203 1.8734375 11.92519531 1.8203125 13.21679688 C1.75585938 14.52712891 1.69140625 15.83746094 1.625 17.1875 C1.56674184 18.52274464 1.50943894 19.85803133 1.453125 21.19335938 C1.31148964 24.4627755 1.16005905 27.73144242 1 31 C3.64 31 6.28 31 9 31 C9 31.99 9 32.98 9 34 C2.73 34 -3.54 34 -10 34 C-10.495 32.515 -10.495 32.515 -11 31 C-7.7 31 -4.4 31 -1 31 C-1.00523682 30.16750732 -1.01047363 29.33501465 -1.01586914 28.47729492 C-1.03292225 25.38550065 -1.04545565 22.29373036 -1.05493164 19.2019043 C-1.06242729 17.20685232 -1.07513345 15.21182214 -1.08789062 13.21679688 C-1.09111328 11.96318359 -1.09433594 10.70957031 -1.09765625 9.41796875 C-1.10289307 8.26063232 -1.10812988 7.1032959 -1.11352539 5.91088867 C-1 3 -1 3 0 0 Z " fill="#E9ECEE" transform="translate(183,113)"/>
<path d="M0 0 C2.31 0 4.62 0 7 0 C7 5.61 7 11.22 7 17 C4.69 17 2.38 17 0 17 C0 11.39 0 5.78 0 0 Z " fill="#B03268" transform="translate(155,126)"/>
<path d="M0 0 C11.55 0 23.1 0 35 0 C34.67 0.66 34.34 1.32 34 2 C24.43 2 14.86 2 5 2 C5.33 4.64 5.66 7.28 6 10 C3.13275314 9.42655063 2.1385485 9.1385485 0 7 C0 4.69 0 2.38 0 0 Z " fill="#E4E5DF" transform="translate(181,155)"/>
<path d="M0 0 C1.47968324 0.14049518 2.95874516 0.28754826 4.4375 0.4375 C5.67306641 0.55931641 5.67306641 0.55931641 6.93359375 0.68359375 C9 1 9 1 10 2 C11.84891946 2.23363881 13.70488031 2.41303635 15.5625 2.5625 C16.57441406 2.64628906 17.58632812 2.73007813 18.62890625 2.81640625 C19.80259766 2.90728516 19.80259766 2.90728516 21 3 C21.33 3.99 21.66 4.98 22 6 C12.595 6.495 12.595 6.495 3 7 C3 8.98 3 10.96 3 13 C2.67 13 2.34 13 2 13 C0.24252386 8.49646738 -0.19294408 4.82360189 0 0 Z " fill="#9C9FA3" transform="translate(81,96)"/>
<path d="M0 0 C4.62 0 9.24 0 14 0 C13.67 0.99 13.34 1.98 13 3 C26.365 3.495 26.365 3.495 40 4 C40 4.33 40 4.66 40 5 C26.8 5 13.6 5 0 5 C0 3.35 0 1.7 0 0 Z " fill="#D48D68" transform="translate(136,89)"/>
<path d="M0 0 C1.02577148 0.00676758 1.02577148 0.00676758 2.07226562 0.01367188 C3.73571604 0.0253044 5.3991205 0.04323306 7.0625 0.0625 C7.0625 2.0425 7.0625 4.0225 7.0625 6.0625 C2.4425 6.0625 -2.1775 6.0625 -6.9375 6.0625 C-6.9375 5.0725 -6.9375 4.0825 -6.9375 3.0625 C-7.2675 3.3925 -7.5975 3.7225 -7.9375 4.0625 C-9.93708364 4.10330783 -11.93795254 4.10504356 -13.9375 4.0625 C-14.2675 3.0725 -14.5975 2.0825 -14.9375 1.0625 C-9.89895894 0.23038724 -5.1249338 -0.0453534 0 0 Z " fill="#992954" transform="translate(213.9375,87.9375)"/>
<path d="M0 0 C0 0.66 0 1.32 0 2 C1.32 2 2.64 2 4 2 C4 3.65 4 5.3 4 7 C-2.23182639 8.03863773 -7.74692761 7.83288874 -14 7 C-14 6.34 -14 5.68 -14 5 C-13.01 5 -12.02 5 -11 5 C-11 4.34 -11 3.68 -11 3 C-9.68 3 -8.36 3 -7 3 C-7 2.34 -7 1.68 -7 1 C-4 0 -4 0 0 0 Z " fill="#88B0C8" transform="translate(134,168)"/>
<path d="M0 0 C1.32 0.33 2.64 0.66 4 1 C4 1.66 4 2.32 4 3 C5.32 3 6.64 3 8 3 C8 6.3 8 9.6 8 13 C4.71303767 13.79953138 3.28976808 14.09658936 0 13 C0 8.71 0 4.42 0 0 Z " fill="#A3D3E0" transform="translate(143,162)"/>
<path d="M0 0 C2.31 0 4.62 0 7 0 C7 4.29 7 8.58 7 13 C4.69 13 2.38 13 0 13 C0 8.71 0 4.42 0 0 Z " fill="#B7306A" transform="translate(164,130)"/>
<path d="M0 0 C10.89 0 21.78 0 33 0 C33 0.33 33 0.66 33 1 C32.08476562 1.04898438 31.16953125 1.09796875 30.2265625 1.1484375 C29.03804687 1.22320312 27.84953125 1.29796875 26.625 1.375 C24.84996094 1.47941406 24.84996094 1.47941406 23.0390625 1.5859375 C19.89437681 1.70217346 19.89437681 1.70217346 18 4 C15.0906442 4.14517744 12.280054 4.18630796 9.375 4.125 C8.57320312 4.11597656 7.77140625 4.10695312 6.9453125 4.09765625 C4.96341477 4.07406223 2.98167019 4.03819065 1 4 C0.67 2.68 0.34 1.36 0 0 Z " fill="#0C434E" transform="translate(135,200)"/>
<path d="M0 0 C2.97 0.495 2.97 0.495 6 1 C6 1.66 6 2.32 6 3 C5.34 3 4.68 3 4 3 C3.67 4.32 3.34 5.64 3 7 C2.34 7 1.68 7 1 7 C1 7.99 1 8.98 1 10 C1.66 9.67 2.32 9.34 3 9 C4.125 12.75 4.125 12.75 3 15 C3.598125 15.12375 4.19625 15.2475 4.8125 15.375 C7 16 7 16 10 18 C10 18.66 10 19.32 10 20 C5.22390502 18.35821735 1.20617096 15.73453298 -3 13 C-2.88557539 11.39504433 -2.75805306 9.79101881 -2.625 8.1875 C-2.55539063 7.29417969 -2.48578125 6.40085937 -2.4140625 5.48046875 C-2 3 -2 3 0 0 Z " fill="#F5AD64" transform="translate(109,113)"/>
<path d="M0 0 C1 1 1 1 1.09765625 3.28515625 C1.08605469 4.20167969 1.07445312 5.11820313 1.0625 6.0625 C1.05347656 6.98160156 1.04445312 7.90070313 1.03515625 8.84765625 C1.02355469 9.55792969 1.01195312 10.26820313 1 11 C-1.33294775 11.04241723 -3.66702567 11.04092937 -6 11 C-7 10 -7 10 -7.09765625 7.93359375 C-7.08605469 7.10988281 -7.07445312 6.28617188 -7.0625 5.4375 C-7.05347656 4.61121094 -7.04445312 3.78492188 -7.03515625 2.93359375 C-7.02355469 2.29550781 -7.01195312 1.65742188 -7 1 C-4.51588385 -0.24205807 -2.74800896 -0.14092354 0 0 Z " fill="#CFEBEF" transform="translate(189,166)"/>
<path d="M0 0 C1.32 0 2.64 0 4 0 C4 6.93 4 13.86 4 21 C2.68 21 1.36 21 0 21 C0 14.07 0 7.14 0 0 Z " fill="#B22259" transform="translate(192,122)"/>
<path d="M0 0 C17.82 0 35.64 0 54 0 C53.67 0.66 53.34 1.32 53 2 C52.08584824 1.99666908 52.08584824 1.99666908 51.15322876 1.99327087 C44.82709335 1.9711979 38.50096882 1.95608495 32.17480469 1.94506836 C29.81184444 1.94003041 27.44888732 1.93319992 25.0859375 1.92456055 C21.69530465 1.91247146 18.30471291 1.90676641 14.9140625 1.90234375 C13.85256989 1.89718246 12.79107727 1.89202118 11.69741821 1.88670349 C10.71655243 1.88662796 9.73568665 1.88655243 8.72509766 1.88647461 C7.85905914 1.884254 6.99302063 1.88203339 6.10073853 1.87974548 C3.9416034 1.86446254 3.9416034 1.86446254 2 3 C2 3.99 2 4.98 2 6 C0.02 6.33 -1.96 6.66 -4 7 C-3.67 5.68 -3.34 4.36 -3 3 C-2.01 3 -1.02 3 0 3 C0 2.01 0 1.02 0 0 Z " fill="#2C4056" transform="translate(182,77)"/>
<path d="M0 0 C11.22 0 22.44 0 34 0 C34.495 8.91 34.495 8.91 35 18 C34.01 18 33.02 18 32 18 C32.33 12.72 32.66 7.44 33 2 C30.525 2.020625 28.05 2.04125 25.5 2.0625 C16.96717933 2.09677507 8.50576431 1.64108049 0 1 C0 0.67 0 0.34 0 0 Z " fill="#EEF0F0" transform="translate(144,106)"/>
<path d="M0 0 C1.65 0.33 3.3 0.66 5 1 C5.0270043 2.45823212 5.04639787 3.91660675 5.0625 5.375 C5.07410156 6.18710938 5.08570313 6.99921875 5.09765625 7.8359375 C5 10 5 10 4 12 C1.03 11.67 -1.94 11.34 -5 11 C-4.01 10.67 -3.02 10.34 -2 10 C-2 7.36 -2 4.72 -2 2 C-1.34 2 -0.68 2 0 2 C0 1.34 0 0.68 0 0 Z " fill="#F1E3D5" transform="translate(196,164)"/>
<path d="M0 0 C2.64 0 5.28 0 8 0 C8.66 1.32 9.32 2.64 10 4 C12.31 4 14.62 4 17 4 C17 4.33 17 4.66 17 5 C14.69 5 12.38 5 10 5 C10 9.29 10 13.58 10 18 C10.99 18.33 11.98 18.66 13 19 C8.71 19 4.42 19 0 19 C0 12.73 0 6.46 0 0 Z M1 1 C1 6.61 1 12.22 1 18 C3.31 18 5.62 18 8 18 C8 12.39 8 6.78 8 1 C5.69 1 3.38 1 1 1 Z " fill="#FFE3F9" transform="translate(154,125)"/>
<path d="M0 0 C0.99 0 1.98 0 3 0 C2.875 1.75 2.875 1.75 2 4 C-1.0625 6.25 -1.0625 6.25 -4 8 C-4.33 7.34 -4.66 6.68 -5 6 C-7.64 6 -10.28 6 -13 6 C-13 5.67 -13 5.34 -13 5 C-15.97 4.505 -15.97 4.505 -19 4 C-19 3.34 -19 2.68 -19 2 C-17.71222656 1.93941406 -16.42445313 1.87882812 -15.09765625 1.81640625 C-13.41925841 1.73201753 -11.74087364 1.6473687 -10.0625 1.5625 C-8.78729492 1.50352539 -8.78729492 1.50352539 -7.48632812 1.44335938 C-6.67744141 1.40146484 -5.86855469 1.35957031 -5.03515625 1.31640625 C-3.91185913 1.26141968 -3.91185913 1.26141968 -2.76586914 1.20532227 C-0.97538674 1.18228937 -0.97538674 1.18228937 0 0 Z " fill="#E3D7DF" transform="translate(215,96)"/>
<path d="M0 0 C1.60540659 0.78914921 3.20928016 1.58141765 4.8125 2.375 C5.70582031 2.81585938 6.59914063 3.25671875 7.51953125 3.7109375 C10 5 10 5 13 7 C11.52307692 11.67692308 11.52307692 11.67692308 8.875 13.3125 C7.946875 13.6528125 7.946875 13.6528125 7 14 C6.401875 12.948125 5.80375 11.89625 5.1875 10.8125 C3.91366341 8.57308622 2.61179435 6.37609806 1.25 4.1875 C0 2 0 2 0 0 Z " fill="#C31955" transform="translate(106,126)"/>
<path d="M0 0 C1.65 0 3.3 0 5 0 C5 4.95 5 9.9 5 15 C3.35 15 1.7 15 0 15 C0 10.05 0 5.1 0 0 Z " fill="#7DBDC8" transform="translate(185,128)"/>
<path d="M0 0 C3.3 0 6.6 0 10 0 C10 0.66 10 1.32 10 2 C7.69 2 5.38 2 3 2 C3 14.21 3 26.42 3 39 C2.67 39 2.34 39 2 39 C2 27.45 2 15.9 2 4 C-1.96 4 -5.92 4 -10 4 C-10 3.67 -10 3.34 -10 3 C-9.36191406 2.95101562 -8.72382813 2.90203125 -8.06640625 2.8515625 C-7.24011719 2.77679688 -6.41382813 2.70203125 -5.5625 2.625 C-4.73878906 2.55539063 -3.91507813 2.48578125 -3.06640625 2.4140625 C-2.38449219 2.27742188 -1.70257813 2.14078125 -1 2 C-0.67 1.34 -0.34 0.68 0 0 Z " fill="#FDF7FE" transform="translate(208,104)"/>
<path d="M0 0 C0.33 0 0.66 0 1 0 C1.84681133 5.08086796 2.09038099 9.84828377 2 15 C-2.66666667 15 -7.33333333 15 -12 15 C-12.66 14.34 -13.32 13.68 -14 13 C-13.01 13 -12.02 13 -11 13 C-11 11.02 -11 9.04 -11 7 C-10.67 7 -10.34 7 -10 7 C-10 8.98 -10 10.96 -10 13 C-8.68 13 -7.36 13 -6 13 C-6 11.02 -6 9.04 -6 7 C-5.67 7 -5.34 7 -5 7 C-5 8.98 -5 10.96 -5 13 C-4.01 13 -3.02 13 -2 13 C-2.02320313 12.39671875 -2.04640625 11.7934375 -2.0703125 11.171875 C-2.09738281 9.97304687 -2.09738281 9.97304687 -2.125 8.75 C-2.14820313 7.96109375 -2.17140625 7.1721875 -2.1953125 6.359375 C-1.9828378 3.79268059 -1.28654105 2.2083933 0 0 Z " fill="#EAD9E6" transform="translate(170,161)"/>
<path d="M0 0 C0 0.99 0 1.98 0 3 C-11.88 3 -23.76 3 -36 3 C-35.67 2.34 -35.34 1.68 -35 1 C-30.33692578 0.85719857 -25.67383973 0.7147919 -21.01074219 0.57275391 C-19.42382479 0.5243604 -17.83691071 0.47585828 -16.25 0.42724609 C-13.97136275 0.35746283 -11.69271395 0.28806785 -9.4140625 0.21875 C-8.70255035 0.19687622 -7.99103821 0.17500244 -7.25796509 0.15246582 C-2.22774341 0 -2.22774341 0 0 0 Z " fill="#2B2D39" transform="translate(136,84)"/>
<path d="M0 0 C7.59 0.33 15.18 0.66 23 1 C19.20836973 3.52775351 16.19125969 3.22443035 11.8125 3.125 C11.06291016 3.11597656 10.31332031 3.10695312 9.54101562 3.09765625 C7.69387346 3.07412578 5.84689588 3.03825561 4 3 C2.41506916 6.16986168 2.7059958 9.54032261 3 13 C3.86265968 15.40557853 3.86265968 15.40557853 5 17 C3.0625 17.5625 3.0625 17.5625 1 18 C0 17 0 17 -0.09765625 13.18359375 C-0.09191138 11.60152953 -0.07889593 10.01948969 -0.0625 8.4375 C-0.041875 5.653125 -0.02125 2.86875 0 0 Z " fill="#4C8E88" transform="translate(63,182)"/>
<path d="M0 0 C0.33 0 0.66 0 1 0 C1.09796875 0.58007812 1.1959375 1.16015625 1.296875 1.7578125 C2.76450263 9.42490168 5.46663152 14.42664206 12 19 C13.32 19.66 14.64 20.32 16 21 C11.38 21 6.76 21 2 21 C2.33 19.35 2.66 17.7 3 16 C2.25569759 14.31722933 1.50695608 12.63563001 0.703125 10.98046875 C-0.56459729 7.40971764 -0.22875711 3.73636611 0 0 Z " fill="#FAF9F9" transform="translate(89,123)"/>
<path d="M0 0 C3.3 0.33 6.6 0.66 10 1 C10 4.96 10 8.92 10 13 C3.92122066 16.24201565 -1.18401613 16.33278764 -8 16 C-7.67 15.34 -7.34 14.68 -7 14 C-5.35 14 -3.7 14 -2 14 C-2.99 13.34 -3.98 12.68 -5 12 C-0.02936879 11.08702692 4.02936879 11.08702692 9 12 C8.67 9.03 8.34 6.06 8 3 C5.69 3 3.38 3 1 3 C0.67 2.01 0.34 1.02 0 0 Z " fill="#E4EEF3" transform="translate(144,131)"/>
<path d="M0 0 C0.99 0.99 1.98 1.98 3 3 C2.34 3 1.68 3 1 3 C1.33 6.3 1.66 9.6 2 13 C-5.59 13 -13.18 13 -21 13 C-20.67 12.34 -20.34 11.68 -20 11 C-16.37 11.33 -12.74 11.66 -9 12 C-8.67 10.35 -8.34 8.7 -8 7 C-7.01 6.67 -6.02 6.34 -5 6 C-4.67 7.65 -4.34 9.3 -4 11 C-2.68 11 -1.36 11 0 11 C0 7.37 0 3.74 0 0 Z " fill="#F9F4FD" transform="translate(181,164)"/>
<path d="M0 0 C1.875 0.25 1.875 0.25 4 1 C6.11103658 3.95545121 6.19785783 6.43855901 6 10 C6.99 10.33 7.98 10.66 9 11 C8.55149342 12.81495662 8.09090429 14.62693134 7.625 16.4375 C7.36976562 17.44683594 7.11453125 18.45617187 6.8515625 19.49609375 C6 22 6 22 4 23 C4 23.99 4 24.98 4 26 C2.02 26.33 0.04 26.66 -2 27 C-1.38125 26.278125 -0.7625 25.55625 -0.125 24.8125 C3.93567473 19.43807757 4.79308118 14.62456043 4 8 C2.69280737 4.63121229 2.69280737 4.63121229 1 2 C0.67 1.34 0.34 0.68 0 0 Z " fill="#FDF2E9" transform="translate(116,113)"/>
<path d="M0 0 C1.32 0 2.64 0 4 0 C4 5.28 4 10.56 4 16 C2.68 16 1.36 16 0 16 C-0.91397824 10.31302429 -0.91397824 5.68697571 0 0 Z " fill="#549C88" transform="translate(209,158)"/>
<path d="M0 0 C0.66 0 1.32 0 2 0 C1.42655063 2.86724686 1.1385485 3.8614515 -1 6 C-2.87939453 6.22705078 -2.87939453 6.22705078 -5.1328125 6.1953125 C-5.93847656 6.18886719 -6.74414062 6.18242187 -7.57421875 6.17578125 C-8.41597656 6.15902344 -9.25773438 6.14226562 -10.125 6.125 C-11.39923828 6.11146484 -11.39923828 6.11146484 -12.69921875 6.09765625 C-14.79959884 6.07405647 -16.89983444 6.03818483 -19 6 C-19.33 5.01 -19.66 4.02 -20 3 C-13.73 3 -7.46 3 -1 3 C-0.67 2.01 -0.34 1.02 0 0 Z " fill="#939192" transform="translate(193,144)"/>
<path d="M0 0 C10.89 0 21.78 0 33 0 C33 0.33 33 0.66 33 1 C17.655 1.495 17.655 1.495 2 2 C2 2.99 2 3.98 2 5 C7.94 5 13.88 5 20 5 C20 5.33 20 5.66 20 6 C16.85418577 6.02888514 13.70840531 6.04675923 10.5625 6.0625 C9.21575195 6.07506836 9.21575195 6.07506836 7.84179688 6.08789062 C6.56079102 6.09272461 6.56079102 6.09272461 5.25390625 6.09765625 C4.46314697 6.10289307 3.6723877 6.10812988 2.85766602 6.11352539 C1 6 1 6 0 5 C0 3.35 0 1.7 0 0 Z " fill="#D9A77A" transform="translate(116,88)"/>
<path d="M0 0 C1.98 0 3.96 0 6 0 C6 3.3 6 6.6 6 10 C4.35 10.33 2.7 10.66 1 11 C-0.20272819 8.59454362 -0.10071472 7.05003047 -0.0625 4.375 C-0.05347656 3.55773437 -0.04445313 2.74046875 -0.03515625 1.8984375 C-0.02355469 1.27195312 -0.01195313 0.64546875 0 0 Z " fill="#E0BBB6" transform="translate(83,109)"/>
<path d="M0 0 C3.0390625 -0.29296875 3.0390625 -0.29296875 6.625 -0.1875 C7.81351563 -0.16042969 9.00203125 -0.13335937 10.2265625 -0.10546875 C11.14179688 -0.07066406 12.05703125 -0.03585938 13 0 C13 0.66 13 1.32 13 2 C18.61 2 24.22 2 30 2 C30 2.33 30 2.66 30 3 C19.44 3 8.88 3 -2 3 C-1.34 2.01 -0.68 1.02 0 0 Z " fill="#171F2D" transform="translate(122,217)"/>
<path d="M0 0 C6.27 0 12.54 0 19 0 C18.67 0.99 18.34 1.98 18 3 C12.06 3 6.12 3 0 3 C0 2.01 0 1.02 0 0 Z " fill="#878787" transform="translate(126,147)"/>
<path d="M0 0 C6.27 0 12.54 0 19 0 C18.67 0.99 18.34 1.98 18 3 C12.06 3 6.12 3 0 3 C0 2.01 0 1.02 0 0 Z " fill="#85868A" transform="translate(83,147)"/>
<path d="M0 0 C2.31 0 4.62 0 7 0 C7 2.64 7 5.28 7 8 C4.69 8 2.38 8 0 8 C0 5.36 0 2.72 0 0 Z " fill="#5EB5BA" transform="translate(138,135)"/>
<path d="M0 0 C2.64 0 5.28 0 8 0 C8 2.97 8 5.94 8 9 C6.68 9 5.36 9 4 9 C4 7.68 4 6.36 4 5 C2.68 5 1.36 5 0 5 C0 3.35 0 1.7 0 0 Z " fill="#D09095" transform="translate(122,118)"/>
<path d="M0 0 C1.4540625 0.0309375 1.4540625 0.0309375 2.9375 0.0625 C2.9375 2.7025 2.9375 5.3425 2.9375 8.0625 C0.6275 8.0625 -1.6825 8.0625 -4.0625 8.0625 C-4.10491723 5.72955225 -4.10342937 3.39547433 -4.0625 1.0625 C-3.0625 0.0625 -3.0625 0.0625 0 0 Z " fill="#60B5C1" transform="translate(150.0625,134.9375)"/>
<path d="M0 0 C0 2.64 0 5.28 0 8 C-2.64 8 -5.28 8 -8 8 C-8 5.69 -8 3.38 -8 1 C-5.10765685 0.17361624 -3.11257569 0 0 0 Z " fill="#C85B88" transform="translate(168,166)"/>
<path d="M0 0 C0.33 0 0.66 0 1 0 C1.33 8.91 1.66 17.82 2 27 C0.68 27 -0.64 27 -2 27 C-1.85785272 23.99978513 -1.71138304 20.99988211 -1.5625 18 C-1.52318359 17.16082031 -1.48386719 16.32164062 -1.44335938 15.45703125 C-1.18148668 10.25986542 -0.7100648 5.15542847 0 0 Z " fill="#C12963" transform="translate(201,116)"/>
<path d="M0 0 C1 3 1 3 0 6 C-3.3 6 -6.6 6 -10 6 C-10 4.35 -10 2.7 -10 1 C-6.7 0.67 -3.4 0.34 0 0 Z " fill="#A4D7D3" transform="translate(132,111)"/>
<path d="M0 0 C0.66 0.33 1.32 0.66 2 1 C2.625 4.0625 2.625 4.0625 3 7 C4.65 7 6.3 7 8 7 C8.33 7.66 8.66 8.32 9 9 C4.05 9.33 -0.9 9.66 -6 10 C-5.01 9.01 -4.02 8.02 -3 7 C-3.99 6.34 -4.98 5.68 -6 5 C-4.35 5 -2.7 5 -1 5 C-0.67 3.35 -0.34 1.7 0 0 Z " fill="#3EAAB2" transform="translate(155,190)"/>
<path d="M0 0 C1.32 0 2.64 0 4 0 C4 4.29 4 8.58 4 13 C2.68 13 1.36 13 0 13 C0 8.71 0 4.42 0 0 Z " fill="#D91360" transform="translate(157,128)"/>
<path d="M0 0 C3.3 0 6.6 0 10 0 C9.67 0.66 9.34 1.32 9 2 C9.66 2.66 10.32 3.32 11 4 C10.01 4 9.02 4 8 4 C8 4.66 8 5.32 8 6 C7.01 6 6.02 6 5 6 C5 6.66 5 7.32 5 8 C5.66 8.33 6.32 8.66 7 9 C5.35 9 3.7 9 2 9 C2 6.33333333 2 3.66666667 2 1 C1.34 0.67 0.68 0.34 0 0 Z " fill="#E9EDED" transform="translate(115,167)"/>
<path d="M0 0 C1.34384766 -0.03867188 1.34384766 -0.03867188 2.71484375 -0.078125 C3.48957031 0.03015625 4.26429688 0.1384375 5.0625 0.25 C5.7225 1.24 6.3825 2.23 7.0625 3.25 C-1.5175 3.25 -10.0975 3.25 -18.9375 3.25 C-18.9375 2.92 -18.9375 2.59 -18.9375 2.25 C-18.01066406 2.18941406 -17.08382812 2.12882813 -16.12890625 2.06640625 C-14.33259766 1.94072266 -14.33259766 1.94072266 -12.5 1.8125 C-10.70755859 1.69068359 -10.70755859 1.69068359 -8.87890625 1.56640625 C-5.50357912 1.20332325 -3.61440895 0.06222799 0 0 Z " fill="#1A212F" transform="translate(175.9375,216.75)"/>
<path d="M0 0 C1.32 0 2.64 0 4 0 C4 3.96 4 7.92 4 12 C2.68 12 1.36 12 0 12 C0 8.04 0 4.08 0 0 Z " fill="#72ABB3" transform="translate(101,162)"/>
<path d="M0 0 C0.99 0 1.98 0 3 0 C3 5.28 3 10.56 3 16 C2.01 16 1.02 16 0 16 C0 10.72 0 5.44 0 0 Z " fill="#A72D5D" transform="translate(178,158)"/>
<path d="M0 0 C1.32 0 2.64 0 4 0 C4 3.96 4 7.92 4 12 C2.68 12 1.36 12 0 12 C0 8.04 0 4.08 0 0 Z " fill="#A42B66" transform="translate(97,162)"/>
<path d="M0 0 C-0.33 3.3 -0.66 6.6 -1 10 C-1.33 10 -1.66 10 -2 10 C-2 7.03 -2 4.06 -2 1 C-2.99 1 -3.98 1 -5 1 C-5 1.66 -5 2.32 -5 3 C-6.32 3 -7.64 3 -9 3 C-9 3.99 -9 4.98 -9 6 C-10.65 5.67 -12.3 5.34 -14 5 C-9.10666796 -0.05644311 -6.85563609 -0.11057478 0 0 Z " fill="#BD2C58" transform="translate(108,110)"/>
<path d="M0 0 C2.35119399 3.52679099 2.21443452 5.02879485 2.125 9.1875 C2.10695312 10.27417969 2.08890625 11.36085938 2.0703125 12.48046875 C2.03550781 13.72763672 2.03550781 13.72763672 2 15 C1.01 15.495 1.01 15.495 0 16 C0 12.7 0 9.4 0 6 C-0.66 6 -1.32 6 -2 6 C-2.33 6.99 -2.66 7.98 -3 9 C-3.66 9 -4.32 9 -5 9 C-4.5206753 4.68607774 -3.2542015 2.83430453 0 0 Z " fill="#2C3451" transform="translate(229,105)"/>
<path d="M0 0 C0.99 1.485 0.99 1.485 2 3 C3.32 3 4.64 3 6 3 C5.67 4.32 5.34 5.64 5 7 C3.68 7 2.36 7 1 7 C0.34 5.35 -0.32 3.7 -1 2 C-4.34252724 1.92572162 -6.8035914 1.93453047 -10 3 C-10 2.01 -10 1.02 -10 0 C-6.24260149 -2.60127589 -4.02666309 -1.83825924 0 0 Z " fill="#D0D7C6" transform="translate(131,159)"/>
<path d="M0 0 C2.64 0 5.28 0 8 0 C8.33 1.98 8.66 3.96 9 6 C6.03 5.67 3.06 5.34 0 5 C0 3.35 0 1.7 0 0 Z " fill="#958B9D" transform="translate(106,170)"/>
<path d="M0 0 C7.26 0.33 14.52 0.66 22 1 C22 1.99 22 2.98 22 4 C21.01 3.67 20.02 3.34 19 3 C17.45301241 3.13682742 15.91066544 3.3309314 14.375 3.5625 C9.21607101 4.16943282 4.9531796 3.44766844 0 2 C0 1.34 0 0.68 0 0 Z " fill="#EBE9E7" transform="translate(81,94)"/>
<path d="M0 0 C2.475 0.495 2.475 0.495 5 1 C5.33 2.65 5.66 4.3 6 6 C7.98 6.66 9.96 7.32 12 8 C12 8.66 12 9.32 12 10 C10.68 10 9.36 10 8 10 C8 9.34 8 8.68 8 8 C5.69 7.67 3.38 7.34 1 7 C1.66 5.35 2.32 3.7 3 2 C2.01 2 1.02 2 0 2 C0 1.34 0 0.68 0 0 Z " fill="#E4F2ED" transform="translate(126,160)"/>
<path d="M0 0 C0.66 0 1.32 0 2 0 C2 2.97 2 5.94 2 9 C4.97 9.33 7.94 9.66 11 10 C11 9.34 11 8.68 11 8 C12.32 8 13.64 8 15 8 C15 8.66 15 9.32 15 10 C15.66 10.33 16.32 10.66 17 11 C11.72 11 6.44 11 1 11 C0.67 7.37 0.34 3.74 0 0 Z " fill="#F2F1FB" transform="translate(189,166)"/>
<path d="M0 0 C0 0.33 0 0.66 0 1 C-1.39025391 1.19916016 -1.39025391 1.19916016 -2.80859375 1.40234375 C-4.00613281 1.57894531 -5.20367187 1.75554687 -6.4375 1.9375 C-7.63246094 2.11152344 -8.82742187 2.28554687 -10.05859375 2.46484375 C-12.87955676 2.68985213 -12.87955676 2.68985213 -14 4 C-15.99958364 4.04080783 -18.00045254 4.04254356 -20 4 C-20.33 3.01 -20.66 2.02 -21 1 C-14.03220597 -0.32719886 -7.07011089 -0.08825381 0 0 Z " fill="#AF3761" transform="translate(220,88)"/>
<path d="M0 0 C0.99 0 1.98 0 3 0 C3 3.96 3 7.92 3 12 C2.01 12 1.02 12 0 12 C0 8.04 0 4.08 0 0 Z " fill="#6288A9" transform="translate(143,162)"/>
<path d="M0 0 C0.99 0 1.98 0 3 0 C3 3.96 3 7.92 3 12 C2.01 12 1.02 12 0 12 C0 8.04 0 4.08 0 0 Z " fill="#49B1C1" transform="translate(186,129)"/>
<path d="M0 0 C0.99 0.495 0.99 0.495 2 1 C2 1.66 2 2.32 2 3 C4.31 3 6.62 3 9 3 C9 3.33 9 3.66 9 4 C6.69 4 4.38 4 2 4 C2 7.63 2 11.26 2 15 C1.34 15 0.68 15 0 15 C0 10.05 0 5.1 0 0 Z " fill="#FFD9F7" transform="translate(162,126)"/>
<path d="M0 0 C0.66 0 1.32 0 2 0 C2 0.66 2 1.32 2 2 C2.81984375 1.97679688 3.6396875 1.95359375 4.484375 1.9296875 C6.10085937 1.90261719 6.10085937 1.90261719 7.75 1.875 C9.35101563 1.84019531 9.35101563 1.84019531 10.984375 1.8046875 C14 2 14 2 18 4 C12.06 4 6.12 4 0 4 C0 2.68 0 1.36 0 0 Z " fill="#DCCA96" transform="translate(81,90)"/>
<path d="M0 0 C0.33 0 0.66 0 1 0 C1 2.31 1 4.62 1 7 C2.32 7 3.64 7 5 7 C5 7.66 5 8.32 5 9 C-1.75 10.125 -1.75 10.125 -4 9 C-4 6.36 -4 3.72 -4 1 C-3.67 1 -3.34 1 -3 1 C-3 2.98 -3 4.96 -3 7 C-2.01 7 -1.02 7 0 7 C0 4.69 0 2.38 0 0 Z " fill="#EDF6E5" transform="translate(208,167)"/>
<path d="M0 0 C3.3 0.33 6.6 0.66 10 1 C9.67 1.99 9.34 2.98 9 4 C8.01 4 7.02 4 6 4 C6 6.97 6 9.94 6 13 C5.67 13 5.34 13 5 13 C5 9.7 5 6.4 5 3 C3.68 3 2.36 3 1 3 C0.67 2.01 0.34 1.02 0 0 Z " fill="#EDF9FD" transform="translate(146,162)"/>
<path d="M0 0 C1 2 2 4 3 6 C5.34907875 6.68931344 5.34907875 6.68931344 8.0625 7.125 C8.98160156 7.29257813 9.90070313 7.46015625 10.84765625 7.6328125 C11.91306641 7.81457031 11.91306641 7.81457031 13 8 C13 8.66 13 9.32 13 10 C7.76119922 9.44854729 3.02649303 8.57077907 -2 7 C-1.125 2.25 -1.125 2.25 0 0 Z " fill="#B6324A" transform="translate(93,115)"/>
<path d="M0 0 C0.99 0 1.98 0 3 0 C3 1.65 3 3.3 3 5 C-0.3 5.33 -3.6 5.66 -7 6 C-7 5.34 -7 4.68 -7 4 C-6.01 4 -5.02 4 -4 4 C-4 3.34 -4 2.68 -4 2 C-2.68 2 -1.36 2 0 2 C0 1.34 0 0.68 0 0 Z " fill="#877396" transform="translate(127,169)"/>
<path d="M0 0 C0.33 0 0.66 0 1 0 C1.09796875 0.58007812 1.1959375 1.16015625 1.296875 1.7578125 C2.57293749 8.42413895 4.85364247 13.36827823 10 18 C7.61435923 17.42415568 5.33317216 16.77772405 3 16 C-0.04598127 10.58492219 -0.37559975 6.13479598 0 0 Z " fill="#F9F3D0" transform="translate(89,123)"/>
<path d="M0 0 C0.66 0 1.32 0 2 0 C2.33 0.66 2.66 1.32 3 2 C9.93 2.33 16.86 2.66 24 3 C24 3.33 24 3.66 24 4 C15.75 4 7.5 4 -1 4 C-0.67 2.68 -0.34 1.36 0 0 Z " fill="#375370" transform="translate(133,213)"/>
<path d="M0 0 C1.32 0 2.64 0 4 0 C4 2.64 4 5.28 4 8 C2.68 8 1.36 8 0 8 C0 5.36 0 2.72 0 0 Z " fill="#9D235A" transform="translate(88,166)"/>
<path d="M0 0 C1.32 0 2.64 0 4 0 C4 2.64 4 5.28 4 8 C2.68 8 1.36 8 0 8 C0 5.36 0 2.72 0 0 Z " fill="#5FABA8" transform="translate(92,166)"/>
<path d="M0 0 C0.33 0 0.66 0 1 0 C1 2.31 1 4.62 1 7 C0.34 6.34 -0.32 5.68 -1 5 C-3.68839385 4.73008094 -6.29141936 4.91262643 -9 5 C-8.67 4.01 -8.34 3.02 -8 2 C-6.865625 1.855625 -5.73125 1.71125 -4.5625 1.5625 C-1.19222799 1.38828522 -1.19222799 1.38828522 0 0 Z " fill="#FCF7FB" transform="translate(169,161)"/>
<path d="M0 0 C2.0625 0.4375 2.0625 0.4375 4 1 C4.5625 2.9375 4.5625 2.9375 5 5 C4 6 4 6 1.4375 6.0625 C0.2309375 6.0315625 0.2309375 6.0315625 -1 6 C-1.042721 4.33388095 -1.04063832 2.66617115 -1 1 C-0.67 0.67 -0.34 0.34 0 0 Z " fill="#053F55" transform="translate(150,188)"/>
<path d="M0 0 C0.99 0 1.98 0 3 0 C3 1.32 3 2.64 3 4 C2.01 4 1.02 4 0 4 C0 4.66 0 5.32 0 6 C0.99 5.67 1.98 5.34 3 5 C3 6.65 3 8.3 3 10 C2.01 10 1.02 10 0 10 C-1.36952673 7.26094655 -1.12621361 5.02912668 -1 2 C-0.67 1.34 -0.34 0.68 0 0 Z " fill="#D3C087" transform="translate(196,164)"/>
<path d="M0 0 C3.82601624 4.23594655 5.86362904 8.78407302 8 14 C7.01 14 6.02 14 5 14 C2.70366176 10.55549263 2.45983515 8.06187717 2 4 C1.34 4 0.68 4 0 4 C0 2.68 0 1.36 0 0 Z " fill="#F29E6F" transform="translate(105,126)"/>
<path d="M0 0 C0.61875 0.165 1.2375 0.33 1.875 0.5 C6.25470729 1.20075317 10.57428989 1.07734251 15 1 C15 1.66 15 2.32 15 3 C11.92805092 4.53597454 9.39755707 4.2265038 6 4 C2.5625 2.5 2.5625 2.5 0 1 C0 0.67 0 0.34 0 0 Z " fill="#E2BA6D" transform="translate(96,138)"/>
<path d="M0 0 C0.99 0 1.98 0 3 0 C2.67 4.29 2.34 8.58 2 13 C1.67 13 1.34 13 1 13 C-0.10228696 8.59085217 -0.07654536 4.51617599 0 0 Z " fill="#E9F6F8" transform="translate(131,203)"/>
<path d="M0 0 C0.99 0 1.98 0 3 0 C3 2.97 3 5.94 3 9 C2.01 9 1.02 9 0 9 C0 6.03 0 3.06 0 0 Z " fill="#64B1B6" transform="translate(148,165)"/>
<path d="M0 0 C1.95216435 3.90432869 2.50639991 6.72213252 3 11 C1.68 11.33 0.36 11.66 -1 12 C-0.67 8.04 -0.34 4.08 0 0 Z " fill="#DFE0E5" transform="translate(138,120)"/>
<path d="M0 0 C0 0.99 0 1.98 0 3 C-0.66 3 -1.32 3 -2 3 C-2 4.32 -2 5.64 -2 7 C-3.65 7.66 -5.3 8.32 -7 9 C-5.64978174 4.58110387 -3.73884332 2.65654657 0 0 Z " fill="#2D445C" transform="translate(71,113)"/>
<path d="M0 0 C1.875 0.25 1.875 0.25 4 1 C6.03648687 4.11129938 6.2214727 6.58403732 6.125 10.25 C6.10695313 11.14203125 6.08890625 12.0340625 6.0703125 12.953125 C6.03550781 13.96632813 6.03550781 13.96632813 6 15 C5.67 15 5.34 15 5 15 C4.89042969 14.33613281 4.78085938 13.67226562 4.66796875 12.98828125 C3.78863977 8.09120522 3.00548286 4.09838572 0 0 Z " fill="#FBF0C9" transform="translate(116,113)"/>
<path d="M0 0 C0.99 0 1.98 0 3 0 C3 2.64 3 5.28 3 8 C2.01 8 1.02 8 0 8 C0 5.36 0 2.72 0 0 Z " fill="#6687A5" transform="translate(182,167)"/>
<path d="M0 0 C0.99 0 1.98 0 3 0 C3 2.64 3 5.28 3 8 C2.01 8 1.02 8 0 8 C0 5.36 0 2.72 0 0 Z " fill="#48958F" transform="translate(186,167)"/>
<path d="M0 0 C2.35333796 4.70667591 2.17102038 6.8693886 2 12 C1.01 12 0.02 12 -1 12 C-0.67 8.04 -0.34 4.08 0 0 Z " fill="#D5DEE0" transform="translate(177,112)"/>
<path d="M0 0 C0.99 0 1.98 0 3 0 C3.33 1.98 3.66 3.96 4 6 C3.01 6.66 2.02 7.32 1 8 C0 7 0 7 -0.0625 3.4375 C-0.041875 2.303125 -0.02125 1.16875 0 0 Z " fill="#D8C481" transform="translate(205,160)"/>
<path d="M0 0 C4.83256305 0.41421969 6.82679218 2.46413986 10 6 C9.278125 5.67 8.55625 5.34 7.8125 5 C4.98302573 3.99396471 2.97104534 3.83022598 0 4 C0 2.68 0 1.36 0 0 Z " fill="#EAB67F" transform="translate(108,110)"/>
<path d="M0 0 C-0.33 0.99 -0.66 1.98 -1 3 C-7.0546875 3.1953125 -7.0546875 3.1953125 -9 3 C-9.66 2.34 -10.32 1.68 -11 1 C-3.375 0 -3.375 0 0 0 Z " fill="#FBEEF7" transform="translate(161,99)"/>
<path d="M0 0 C2.97 0.33 5.94 0.66 9 1 C8.01 2.485 8.01 2.485 7 4 C4.36 3.67 1.72 3.34 -1 3 C-0.67 2.01 -0.34 1.02 0 0 Z " fill="#364D5A" transform="translate(64,77)"/>
<path d="M0 0 C0.99 0 1.98 0 3 0 C3 2.31 3 4.62 3 7 C2.01 7 1.02 7 0 7 C0 4.69 0 2.38 0 0 Z " fill="#A52F5C" transform="translate(191,167)"/>
<path d="M0 0 C0.99 0 1.98 0 3 0 C3 2.31 3 4.62 3 7 C2.01 7 1.02 7 0 7 C0 4.69 0 2.38 0 0 Z " fill="#A82B59" transform="translate(165,167)"/>
<path d="M0 0 C2.125 0.9375 2.125 0.9375 4 2 C4 2.33 4 2.66 4 3 C2.35 3 0.7 3 -1 3 C-1 4.65 -1 6.3 -1 8 C-0.34 8.33 0.32 8.66 1 9 C0.01 9 -0.98 9 -2 9 C-2 6.36 -2 3.72 -2 1 C-1.34 0.67 -0.68 0.34 0 0 Z " fill="#F1DFEF" transform="translate(107,167)"/>
<path d="M0 0 C1.42944945 2.35438733 2.08661261 3.48032433 1.625 6.25 C1.41875 6.8275 1.2125 7.405 1 8 C0.01 7.34 -0.98 6.68 -2 6 C-1.125 1.125 -1.125 1.125 0 0 Z " fill="#F6F2ED" transform="translate(183,156)"/>
<path d="M0 0 C0.98484375 0.02707031 1.9696875 0.05414063 2.984375 0.08203125 C3.73203125 0.11683594 4.4796875 0.15164062 5.25 0.1875 C5.25 0.5175 5.25 0.8475 5.25 1.1875 C1.95 1.1875 -1.35 1.1875 -4.75 1.1875 C-5.08 2.1775 -5.41 3.1675 -5.75 4.1875 C-7.07 3.8575 -8.39 3.5275 -9.75 3.1875 C-6.47698081 0.21840402 -4.36934238 -0.15604794 0 0 Z " fill="#D55A85" transform="translate(212.75,89.8125)"/>
<path d="M0 0 C0.33 0 0.66 0 1 0 C1 3.63 1 7.26 1 11 C-0.32 11 -1.64 11 -3 11 C-3 10.01 -3 9.02 -3 8 C-2.01 8 -1.02 8 0 8 C0 5.36 0 2.72 0 0 Z " fill="#CC1763" transform="translate(160,130)"/>
<path d="M0 0 C0.66 0 1.32 0 2 0 C2 2.97 2 5.94 2 9 C1.34 9 0.68 9 0 9 C-1.125 2.25 -1.125 2.25 0 0 Z " fill="#506E8F" transform="translate(201,165)"/>
<path d="M0 0 C0.66 0.33 1.32 0.66 2 1 C2 3.97 2 6.94 2 10 C1.54625 9.34 1.0925 8.68 0.625 8 C0.08875 7.34 -0.4475 6.68 -1 6 C-1.66 6 -2.32 6 -3 6 C-3 5.34 -3 4.68 -3 4 C-2.01 4 -1.02 4 0 4 C0 2.68 0 1.36 0 0 Z " fill="#C6D2C1" transform="translate(199,164)"/>
<path d="M0 0 C0.99 0 1.98 0 3 0 C3 2.97 3 5.94 3 9 C2.67 7.68 2.34 6.36 2 5 C1.34 5 0.68 5 0 5 C0 3.35 0 1.7 0 0 Z " fill="#CB0F57" transform="translate(166,131)"/>
<path d="M0 0 C1.98 0 3.96 0 6 0 C6 0.66 6 1.32 6 2 C3.29120665 3.35439668 0.99066732 3.06501451 -2 3 C-1.34 2.67 -0.68 2.34 0 2 C0 1.34 0 0.68 0 0 Z " fill="#303A4D" transform="translate(118,178)"/>
<path d="M0 0 C0.99 0 1.98 0 3 0 C3 1.98 3 3.96 3 6 C2.01 6 1.02 6 0 6 C0 4.02 0 2.04 0 0 Z " fill="#5DA9A1" transform="translate(156,168)"/>
<path d="M0 0 C0.99 0 1.98 0 3 0 C3 1.98 3 3.96 3 6 C2.01 6 1.02 6 0 6 C0 4.02 0 2.04 0 0 Z " fill="#982750" transform="translate(152,168)"/>
<path d="M0 0 C0.66 0 1.32 0 2 0 C3.125 3.75 3.125 3.75 2 6 C1.01 6 0.02 6 -1 6 C-0.67 4.02 -0.34 2.04 0 0 Z " fill="#FCE4F4" transform="translate(90,113)"/>
<path d="M0 0 C1.67542976 0.28604898 3.34385343 0.61781233 5 1 C3 3 3 3 1.0546875 3.1953125 C-0.96354167 3.13020833 -2.98177083 3.06510417 -5 3 C-4.360625 2.690625 -3.72125 2.38125 -3.0625 2.0625 C-1.06389179 1.1654837 -1.06389179 1.1654837 0 0 Z " fill="#DDE0E0" transform="translate(221,219)"/>
<path d="M0 0 C0 1.65 0 3.3 0 5 C-1.32 5 -2.64 5 -4 5 C-4 3.68 -4 2.36 -4 1 C-1 0 -1 0 0 0 Z " fill="#E1F0EC" transform="translate(217,161)"/>
<path d="M0 0 C3.37462715 0.54723683 5.08235 1.0549 8 3 C8 3.66 8 4.32 8 5 C4.62496331 3.8141763 2.35277269 2.72426311 0 0 Z " fill="#F99F70" transform="translate(111,128)"/>
<path d="M0 0 C1.98 0.99 3.96 1.98 6 3 C5.01 4.32 4.02 5.64 3 7 C0 2.25 0 2.25 0 0 Z " fill="#B3273D" transform="translate(106,126)"/>
<path d="M0 0 C0.99 0.495 0.99 0.495 2 1 C2 1.66 2 2.32 2 3 C4.31 3 6.62 3 9 3 C9 3.33 9 3.66 9 4 C7.329375 4.2165625 7.329375 4.2165625 5.625 4.4375 C2.17857953 4.78372035 2.17857953 4.78372035 0 6 C0 4.02 0 2.04 0 0 Z " fill="#F5D3E5" transform="translate(162,126)"/>
</svg>
