<?xml version="1.0" encoding="UTF-8"?>
<svg version="1.1" xmlns="http://www.w3.org/2000/svg" width="612" height="612">
<path d="M0 0 C201.96 0 403.92 0 612 0 C612 201.96 612 403.92 612 612 C410.04 612 208.08 612 0 612 C0 410.04 0 208.08 0 0 Z " fill="#FEFEFE" transform="translate(0,0)"/>
<path d="M0 0 C7.61712256 -0.07600577 15.23414747 -0.1285813 22.8515625 -0.16479492 C25.44339655 -0.17989015 28.03520503 -0.20036824 30.62695312 -0.22631836 C34.35032459 -0.26266827 38.0733586 -0.2797192 41.796875 -0.29296875 C43.53768341 -0.31619453 43.53768341 -0.31619453 45.31365967 -0.33988953 C46.39447815 -0.34011612 47.47529663 -0.34034271 48.58886719 -0.34057617 C50.01449982 -0.35056892 50.01449982 -0.35056892 51.46893311 -0.36076355 C54.46549871 0.06634948 55.79993471 0.95845917 58 3 C60.44778901 7.3071672 60.36108808 11.85432337 60.5 16.6875 C60.80864139 24.43198093 61.26393805 32.1484342 61.875 39.875 C61.99959595 41.46308472 61.99959595 41.46308472 62.12670898 43.08325195 C62.53461979 48.23958663 62.95085062 53.39524015 63.36865234 58.55078125 C63.7689659 63.49199872 64.16681253 68.43340994 64.5625 73.375 C64.66253326 74.62259094 64.66253326 74.62259094 64.7645874 75.89538574 C65.46233194 84.63456676 66.14576746 93.36384371 66.5 102.125 C66.88568087 111.60796731 67.74674247 121.04721792 68.57122803 130.49969482 C70.00096957 147.00061504 71.02244299 163.52238962 71.99755859 180.05566406 C72.05731873 181.05521118 72.11707886 182.0547583 72.1786499 183.08459473 C72.29015082 184.95448834 72.3994101 186.82451763 72.50592041 188.69470215 C72.81247134 193.83589062 73.33772832 198.89298377 74 204 C74.1175187 205.62345416 74.21512643 207.24864157 74.28125 208.875 C74.31863281 209.71546875 74.35601562 210.5559375 74.39453125 211.421875 C74.46484375 213.140625 74.53515625 214.859375 74.60546875 216.578125 C74.80208093 220.99850916 75.14353265 225.32314959 75.73681641 229.71191406 C76.35410554 235.07855025 76.59938223 240.4850656 76.9375 245.875 C77.11000954 248.56783791 77.28489204 251.26051606 77.4609375 253.953125 C77.52726128 254.96851852 77.52726128 254.96851852 77.59492493 256.00442505 C78.02737296 262.54925311 78.54003915 269.08686 79.0625 275.625 C79.75501583 284.30726821 80.31564465 292.98251214 80.65844727 301.68603516 C80.78980348 304.80566115 80.96301384 307.78623748 81.49609375 310.8671875 C82.24395741 315.51669647 82.33006471 320.17345685 82.5 324.875 C82.56974747 326.7891806 82.64261258 328.70325041 82.71875 330.6171875 C82.74904297 331.45878418 82.77933594 332.30038086 82.81054688 333.16748047 C83.00623969 336.09328985 83.37845974 338.97798522 83.75598145 341.88497925 C84.16115156 345.39677449 84.32797098 348.91563872 84.5 352.4453125 C84.58332251 354.03255265 84.66665618 355.61979222 84.75 357.20703125 C84.87594514 359.67329301 85.00073611 362.13961002 85.125 364.60595703 C85.24717994 367.01089732 85.37345099 369.41559876 85.5 371.8203125 C85.55317383 372.91740036 85.55317383 372.91740036 85.60742188 374.03665161 C85.82196993 378.09230388 86.28264897 382.0048234 87 386 C87.18505579 388.35020851 87.30832966 390.70596 87.375 393.0625 C87.42398437 394.24972656 87.47296875 395.43695312 87.5234375 396.66015625 C86.82138301 401.13968305 85.62303086 402.28898465 82 405 C78.56025812 405.72828387 75.18487248 405.65327977 71.67997742 405.60127258 C70.63031589 405.60554471 69.58065436 405.60981683 68.49918491 405.61421841 C64.97648232 405.62246441 61.45496622 405.59493507 57.93237305 405.56762695 C55.40950041 405.56621684 52.88662572 405.56700774 50.36375427 405.56983948 C44.92941337 405.57097864 39.4954556 405.55678346 34.06119347 405.52865028 C26.20426933 405.48800147 18.34749031 405.47499169 10.49047241 405.46871033 C-2.25716646 405.45776928 -15.00464529 405.42450031 -27.75219727 405.37719727 C-40.1346761 405.33129672 -52.51711146 405.29590726 -64.8996582 405.2746582 C-66.04469408 405.27268778 -66.04469408 405.27268778 -67.21286199 405.27067754 C-71.04243079 405.26415232 -74.87199989 405.25783379 -78.7015692 405.25161803 C-110.46783018 405.19979092 -142.23389021 405.11135902 -174 405 C-170.90213202 403.40688121 -167.89398611 402.28063614 -164.5625 401.25 C-158.51097314 399.25459246 -152.84549065 396.77117923 -147.11035156 394.00585938 C-144.60168954 392.81015281 -142.07835098 391.64807868 -139.5546875 390.484375 C-128.47513563 385.33547017 -118.04131256 379.97505205 -108 373 C-106.41638672 371.95392578 -106.41638672 371.95392578 -104.80078125 370.88671875 C-101.94445889 369.02554879 -101.94445889 369.02554879 -99.25 366.75 C-97 365 -97 365 -95 365 C-95 364.34 -95 363.68 -95 363 C-93.01399663 361.6459068 -91.01182457 360.31542376 -89 359 C-87.88625 357.88625 -87.88625 357.88625 -86.75 356.75 C-85.88375 355.88375 -85.88375 355.88375 -85 355 C-84.34 355 -83.68 355 -83 355 C-82.67 354.01 -82.34 353.02 -82 352 C-80.46875 350.52734375 -80.46875 350.52734375 -78.5 348.9375 C-65.34411169 337.67774506 -52.34073159 321.66188378 -50 304 C-49.05389025 288.41245415 -50.92137464 274.06174583 -58.046875 260.00390625 C-59 258 -59 258 -59 256 C-59.66 256 -60.32 256 -61 256 C-62.26171875 254.42578125 -62.26171875 254.42578125 -63.6875 252.3125 C-66.68521269 248.15390838 -69.74065092 245.8127777 -74 243 C-74.46148437 242.51789063 -74.92296875 242.03578125 -75.3984375 241.5390625 C-86.88531287 230.50045543 -108.92540613 227.98439354 -123.71655273 224.1730957 C-136.34742652 220.90188969 -148.63761257 216.84329165 -160.9375 212.5 C-161.99243652 212.13221436 -163.04737305 211.76442871 -164.13427734 211.38549805 C-174.29714638 207.7425549 -184.7954844 203.01772116 -192 194.6875 C-195.00192585 186.61982428 -192.19524888 179.24718026 -189.0390625 171.703125 C-184.06648646 160.911577 -176.59852327 151.47460781 -168.625 142.75 C-168.12540771 142.20110107 -167.62581543 141.65220215 -167.11108398 141.08666992 C-164.56701484 138.3794919 -162.31753824 136.6057491 -159 135 C-158.67 134.01 -158.34 133.02 -158 132 C-155.5625 129.3125 -155.5625 129.3125 -153 127 C-152.34 127 -151.68 127 -151 127 C-151 126.34 -151 125.68 -151 125 C-149.63671875 123.58984375 -149.63671875 123.58984375 -147.6875 121.9375 C-146.95917969 121.31875 -146.23085938 120.7 -145.48046875 120.0625 C-144.66191406 119.381875 -143.84335937 118.70125 -143 118 C-142.10925781 117.2575 -141.21851563 116.515 -140.30078125 115.75 C-124.85863598 103 -124.85863598 103 -122 103 C-122 102.34 -122 101.68 -122 101 C-120.20137336 99.5926429 -118.33139607 98.27627172 -116.4375 97 C-115.85468262 96.60554688 -115.27186523 96.21109375 -114.67138672 95.8046875 C-113.42316722 94.96171686 -112.17276136 94.12197636 -110.92041016 93.28515625 C-109.04865386 92.03255962 -107.18569396 90.76781017 -105.32421875 89.5 C-48.55363331 50.99460225 -48.55363331 50.99460225 -20 50.8125 C-18.4840625 50.79123047 -18.4840625 50.79123047 -16.9375 50.76953125 C-12.75688292 51.09753179 -9.97666171 52.02333829 -7 55 C-4.94771902 67.60686886 -12.71091521 80.99582498 -19.703125 90.96484375 C-25.50175723 98.92613602 -31.81399921 106.43663958 -38.29296875 113.84765625 C-41.27235067 117.2738935 -44.01631456 120.85814181 -46.6953125 124.5234375 C-47.12585938 125.01070313 -47.55640625 125.49796875 -48 126 C-48.66 126 -49.32 126 -50 126 C-50.25394531 126.58265625 -50.50789062 127.1653125 -50.76953125 127.765625 C-52.13320333 130.24188033 -53.64225203 131.80520626 -55.6875 133.75 C-58.44231937 136.4302304 -61.05924859 139.14581567 -63.5625 142.0625 C-66.35340977 145.3111444 -69.30099461 148.32490441 -72.35546875 151.32421875 C-74.74105421 153.755136 -76.86521159 156.34768712 -79 159 C-60.45335911 158.6990958 -44.5671386 152.97580327 -28 145 C-27.30632324 144.6709668 -26.61264648 144.34193359 -25.89794922 144.00292969 C-17.10727045 139.81927569 -8.69063918 135.18337845 -0.40234375 130.078125 C1.85798201 128.69753567 4.14650471 127.36204648 6.4609375 126.07421875 C10.37485013 123.85344301 13.95598405 121.24616131 17.5625 118.5625 C18.19607422 118.09779297 18.82964844 117.63308594 19.48242188 117.15429688 C22.52293977 114.90913588 25.47532204 112.61894282 28.33984375 110.15234375 C31 108 31 108 33 108 C33.99 106.02 33.99 106.02 35 104 C35.66 104 36.32 104 37 104 C37.2578125 103.44054687 37.515625 102.88109375 37.78125 102.3046875 C39.61840237 98.83058525 42.0101219 95.78716573 44.34375 92.6328125 C49.6135194 84.25586775 49.0455173 73.81608125 47.34765625 64.37109375 C42.16142895 44.80588431 31.45768161 25.45343904 15.76953125 12.48828125 C14 11 14 11 11.4375 8.3125 C8.49961009 5.52527111 5.54845449 3.94160718 2 2 C1.01 1.01 1.01 1.01 0 0 Z " fill="#415C4B" transform="translate(418,176)"/>
<path d="M0 0 C0.96599121 0.00942627 1.93198242 0.01885254 2.92724609 0.02856445 C10.01248264 0.17823575 16.4336931 0.92480085 23.125 3.375 C24.1253125 3.72691406 25.125625 4.07882813 26.15625 4.44140625 C50.36804876 13.7042535 68.88970359 35.17845254 81.125 57.375 C81.75003418 58.49382568 81.75003418 58.49382568 82.38769531 59.63525391 C88.29640552 70.26784333 93.23324596 80.85868327 97.125 92.375 C97.44210937 93.29506836 97.75921875 94.21513672 98.0859375 95.16308594 C109.51126031 128.33303157 109.51126031 128.33303157 110.125 141.375 C108.41569188 141.08910149 106.70759088 140.79598242 105 140.5 C104.04867188 140.33757812 103.09734375 140.17515625 102.1171875 140.0078125 C95.95488456 138.70455783 95.95488456 138.70455783 93.125 137.375 C92.1640625 134.99609375 92.1640625 134.99609375 91.75 131.8125 C85.2928896 95.17215263 66.78229991 52.48310064 35.87939453 30.16650391 C29.95678635 26.06807699 23.86926085 22.94822349 17.125 20.375 C16.45726562 20.11074219 15.78953125 19.84648438 15.1015625 19.57421875 C1.19201554 15.10980084 -13.99000313 18.99693331 -26.65234375 25.1484375 C-39.72691583 32.04301768 -50.94994 43.12786335 -58.62866211 55.6875 C-59.03995361 56.244375 -59.45124512 56.80125 -59.875 57.375 C-60.535 57.375 -61.195 57.375 -61.875 57.375 C-62.10316406 58.01695313 -62.33132812 58.65890625 -62.56640625 59.3203125 C-63.62942842 61.80175531 -64.7637802 64.02694794 -66.08984375 66.3671875 C-79.1880914 89.66594815 -86.55743344 115.23088979 -93.20166016 140.9777832 C-93.875 143.375 -93.875 143.375 -94.875 145.375 C-50.985 145.375 -7.095 145.375 38.125 145.375 C35.61271373 147.04985751 33.63613324 148.04885796 30.86328125 149.1171875 C20.51246543 153.18382184 10.39262068 157.53459057 0.4375 162.5 C-1.01112427 163.21712158 -1.01112427 163.21712158 -2.48901367 163.94873047 C-8.3483088 166.9124349 -13.88472064 170.1966895 -19.38769531 173.77685547 C-21.42998013 175.08906556 -23.47795426 176.31994131 -25.59765625 177.5 C-29.30438207 179.62065363 -32.80288138 181.94665424 -36.3125 184.375 C-36.9926416 184.84268799 -37.6727832 185.31037598 -38.37353516 185.79223633 C-44.31802201 189.91441028 -50.10152543 194.23898392 -55.82202148 198.66601562 C-60.66451187 202.375 -60.66451187 202.375 -62.875 202.375 C-62.875 203.035 -62.875 203.695 -62.875 204.375 C-64.5535513 205.87129179 -66.29458898 207.29792661 -68.0625 208.6875 C-71.0916834 211.07597259 -73.91027765 213.4109822 -76.61328125 216.16796875 C-78.875 218.375 -78.875 218.375 -80.875 218.375 C-80.875 219.035 -80.875 219.695 -80.875 220.375 C-82.34375 221.8203125 -82.34375 221.8203125 -84.375 223.5 C-91.57642696 229.65095519 -97.73530374 236.26911203 -103.65625 243.66015625 C-105.6561499 246.10721687 -107.73012822 248.43064461 -109.875 250.75 C-126.13266457 268.87858629 -143.25858378 295.04322133 -142.26171875 320.30859375 C-140.92445959 330.91211338 -137.82439026 341.95132328 -131.22265625 350.51953125 C-129.875 352.375 -129.875 352.375 -129.875 354.375 C-128.885 354.705 -127.895 355.035 -126.875 355.375 C-125.36499023 356.99414062 -125.36499023 356.99414062 -123.74609375 359.03125 C-119.95634143 363.48721238 -115.79109554 366.65221655 -110.9375 369.875 C-110.10774658 370.43251953 -109.27799316 370.99003906 -108.4230957 371.56445312 C-87.22626055 385.54314736 -63.63184248 392.0618924 -39.07958984 397.4934082 C-31.58337808 399.16795348 -24.20108495 401.14080713 -16.8203125 403.26171875 C-12.86066081 404.39683198 -8.87447043 405.38956347 -4.875 406.375 C2.83233442 408.31365467 10.54751184 410.80819115 17.125 415.375 C19.01473461 419.70564182 18.50049986 421.40942892 16.8125 425.75 C11.13690848 434.41888294 1.88616529 440.23425742 -6.875 445.375 C-7.6484375 445.83777344 -8.421875 446.30054688 -9.21875 446.77734375 C-14.57482626 449.87971891 -20.09895069 452.17671929 -25.875 454.375 C-27.54291987 455.03852507 -29.2095945 455.70518902 -30.875 456.375 C-40.5625 460.25 -40.5625 460.25 -43.10546875 461.25390625 C-45.05796579 462.04426824 -46.99718044 462.86783981 -48.92578125 463.71484375 C-61.18581718 468.94930983 -73.95806844 472.17482319 -86.875 475.375 C-87.77444336 475.60525879 -88.67388672 475.83551758 -89.60058594 476.07275391 C-99.84122123 478.65377549 -109.67962718 479.7337934 -120.25 479.8125 C-121.31484619 479.82273193 -122.37969238 479.83296387 -123.47680664 479.84350586 C-133.52196606 479.72839585 -133.52196606 479.72839585 -137.875 476.375 C-142.26206068 467.45216472 -139.00892674 456.23040348 -136.24609375 447.203125 C-132.80222854 437.18750466 -128.2537055 427.48758365 -122.875 418.375 C-129.98200148 417.69454241 -134.63403556 418.74407089 -140.84375 422.28125 C-142.875 423.375 -142.875 423.375 -144.875 423.375 C-144.875 424.035 -144.875 424.695 -144.875 425.375 C-146.44921875 426.890625 -146.44921875 426.890625 -148.5625 428.625 C-156.45424485 435.37744366 -163.99880546 444.79353321 -165.09545898 455.53417969 C-165.60908736 466.11948507 -165.32951555 475.6157791 -160.875 485.375 C-160.56884766 486.0851123 -160.26269531 486.79522461 -159.94726562 487.52685547 C-155.32844858 498.22711495 -150.24957141 507.32207785 -142.875 516.375 C-141.27218952 518.50681689 -139.70186839 520.66127557 -138.125 522.8125 C-129.69827951 534.28220289 -118.63780996 543.19458415 -105.875 549.375 C-105.875 549.705 -105.875 550.035 -105.875 550.375 C-117.91423693 550.49083311 -129.95334136 550.57968486 -141.99302197 550.63406086 C-147.58352015 550.66015829 -153.1736372 550.69555972 -158.76391602 550.75219727 C-164.15854451 550.80651076 -169.55280634 550.83641943 -174.94768715 550.84938622 C-177.00622646 550.85862721 -179.06474562 550.87667281 -181.12312889 550.90365028 C-184.0059488 550.93993144 -186.88725232 550.94494569 -189.77026367 550.94262695 C-190.62190598 550.96060333 -191.47354828 550.97857971 -192.35099792 550.99710083 C-196.6780981 550.95942419 -198.36928696 550.76484245 -201.90913391 548.03605652 C-207.16475854 540.92188213 -203.6963782 526.73087959 -202.96484375 518.26953125 C-202.78328617 516.1280385 -202.60206096 513.98651755 -202.42114258 511.8449707 C-202.32958893 510.76430328 -202.23803528 509.68363586 -202.14370728 508.57022095 C-201.39560818 499.67451131 -200.69311769 490.77514105 -200 481.875 C-199.91507294 480.78562134 -199.83014587 479.69624268 -199.74264526 478.57385254 C-198.23387123 459.09755305 -196.99272987 439.60966057 -195.81594467 420.11088562 C-194.52610259 398.76378335 -193.01527002 377.44309692 -191.3125 356.125 C-191.20304267 354.75349942 -191.09358629 353.38199877 -190.98413086 352.01049805 C-190.93018787 351.33479012 -190.87624489 350.65908218 -190.82066727 349.96289825 C-190.55472911 346.631531 -190.28899861 343.30014734 -190.0234375 339.96875 C-189.87047211 338.04983948 -189.87047211 338.04983948 -189.7144165 336.09216309 C-188.88336506 325.60757847 -188.13225135 315.11940877 -187.4375 304.625 C-186.05054222 283.70985396 -184.56682819 262.80199378 -183.07276535 241.89427185 C-182.87944381 239.18722587 -182.68649542 236.48015357 -182.49368286 233.77307129 C-181.8158807 224.25964259 -181.13310297 214.74660006 -180.44200993 205.23412704 C-180.04933308 199.81873187 -179.66561044 194.40277163 -179.28707886 188.98637009 C-179.02915146 185.31347375 -178.76564397 181.6409907 -178.50097656 177.96857452 C-178.37701198 176.23190111 -178.25536399 174.49506051 -178.13623047 172.75804901 C-176.62606202 150.78269139 -176.62606202 150.78269139 -173.63749695 146.67344666 C-171.20859155 144.88405116 -169.57781261 145.01344187 -166.57739258 145.03442383 C-165.49649857 145.03465042 -164.41560455 145.03487701 -163.30195618 145.03511047 C-161.55340584 145.05833626 -161.55340584 145.05833626 -159.76953125 145.08203125 C-158.57518967 145.08627609 -157.38084808 145.09052094 -156.15031433 145.09489441 C-152.32914856 145.11171041 -148.50850684 145.14936907 -144.6875 145.1875 C-142.09961698 145.20254301 -139.51172571 145.21623208 -136.92382812 145.22851562 C-130.57403942 145.26162355 -124.22455714 145.31185238 -117.875 145.375 C-117.79128095 152.90838564 -117.78019188 160.27501741 -118.75 167.75 C-119.65271282 175.05149589 -120.30311005 182.35298298 -120.875 189.6875 C-121.84490901 201.81041354 -123.00751313 213.7725394 -126.875 225.375 C-127.45237645 232.07256682 -125.94812706 236.44825495 -122.875 242.375 C-122.545 242.375 -122.215 242.375 -121.875 242.375 C-122.04 241.859375 -122.205 241.34375 -122.375 240.8125 C-123.52434794 235.20942879 -122.8168734 230.53913037 -120.984375 225.1953125 C-118.48824963 216.87123889 -117.9174373 208.66694251 -117.32211304 200.02874756 C-114.62816806 162.05158922 -108.43535305 122.75338593 -93.875 87.375 C-93.47796875 86.37339844 -93.0809375 85.37179688 -92.671875 84.33984375 C-83.31261074 61.16006594 -83.31261074 61.16006594 -76.25390625 51.3125 C-74.31105347 48.58259921 -72.64374074 45.69954667 -70.953125 42.80859375 C-70.41945312 42.09896484 -70.41945312 42.09896484 -69.875 41.375 C-69.215 41.375 -68.555 41.375 -67.875 41.375 C-67.62621094 40.82070312 -67.37742188 40.26640625 -67.12109375 39.6953125 C-57.78316927 22.30745313 -39.22915037 9.34537305 -20.875 3.375 C-20.13523926 3.11460938 -19.39547852 2.85421875 -18.63330078 2.5859375 C-12.32339819 0.4863681 -6.62883808 -0.10061318 0 0 Z " fill="#702935" transform="translate(310.875,30.625)"/>
<path d="M0 0 C0.33 1.32 0.66 2.64 1 4 C1.66 4 2.32 4 3 4 C2.88724731 4.81561401 2.88724731 4.81561401 2.7722168 5.64770508 C1.35652016 16.04339127 0.07969979 26.43276429 -0.7265625 36.89453125 C-0.7864183 37.65697647 -0.84627411 38.41942169 -0.90794373 39.20497131 C-1.20242238 42.98171409 -1.48027571 46.75861124 -1.73364258 50.53833008 C-2.33213943 58.74355888 -3.55291997 66.0070226 -6.17993164 73.84716797 C-7.52627092 79.02329938 -7.25239705 83.83386217 -6 89 C-8.39550925 88.33916986 -9.69084131 87.54070432 -10.93359375 85.3671875 C-13.20579875 79.82257243 -14.20683166 74.36188821 -12.125 68.5625 C-11.568125 67.2940625 -11.568125 67.2940625 -11 66 C-7.04212776 51.40534613 -6.67429199 35.76210604 -5.78515625 20.74682617 C-4.78864083 5.20140409 -4.78864083 5.20140409 -1.375 1 C-0.92125 0.67 -0.4675 0.34 0 0 Z " fill="#F5EDE8" transform="translate(196,185)"/>
<path d="M0 0 C0.33 0 0.66 0 1 0 C1.22119939 2.62450086 1.42746669 5.24870486 1.625 7.875 C1.68945312 8.62136719 1.75390625 9.36773437 1.8203125 10.13671875 C1.96087365 12.0870047 1.98759849 14.04469467 2 16 C1.34 16.66 0.68 17.32 0 18 C-0.21676408 21.39597063 -0.08073852 23.75778445 1 27 C0.67 27.33 0.34 27.66 0 28 C-0.20316702 29.58440373 -0.34715591 31.17649592 -0.46484375 32.76953125 C-0.54283203 33.74083984 -0.62082031 34.71214844 -0.70117188 35.71289062 C-0.85781322 37.76735193 -1.01149442 39.82204123 -1.16210938 41.87695312 C-1.24138672 42.85212891 -1.32066406 43.82730469 -1.40234375 44.83203125 C-1.50276978 46.17358276 -1.50276978 46.17358276 -1.60522461 47.54223633 C-2.00844658 50.0525861 -2.74105676 51.806827 -4 54 C-3.55128865 40.85968876 -2.91554643 27.74160399 -2 14.625 C-1.9170166 13.40135742 -1.8340332 12.17771484 -1.74853516 10.91699219 C-1.62551025 9.21397949 -1.62551025 9.21397949 -1.5 7.4765625 C-1.4278125 6.46674316 -1.355625 5.45692383 -1.28125 4.41650391 C-1 2 -1 2 0 0 Z " fill="#79454F" transform="translate(126,310)"/>
<path d="M0 0 C-0.1875 1.875 -0.1875 1.875 -1 4 C-1.7425 4.268125 -2.485 4.53625 -3.25 4.8125 C-7.1865909 6.51239152 -8.76917701 9.44966894 -11 13 C-11.33 12.34 -11.66 11.68 -12 11 C-13.98 11.99 -15.96 12.98 -18 14 C-18.66 13.34 -19.32 12.68 -20 12 C-17.04666001 9.99254745 -14.08653968 7.99533174 -11.125 6 C-10.28324219 5.42765625 -9.44148438 4.8553125 -8.57421875 4.265625 C-7.76855469 3.72421875 -6.96289062 3.1828125 -6.1328125 2.625 C-5.38918457 2.12226563 -4.64555664 1.61953125 -3.87939453 1.1015625 C-2 0 -2 0 0 0 Z " fill="#4C5F51" transform="translate(326,258)"/>
<path d="M0 0 C-2.94945594 1.96630396 -5.73697474 3.25740853 -9 4.625 C-10.5778125 5.29402344 -10.5778125 5.29402344 -12.1875 5.9765625 C-15 7 -15 7 -18 7 C-18.33 5.02 -18.66 3.04 -19 1 C-12.63849395 0.34513908 -6.39628979 -0.12068471 0 0 Z " fill="#713444" transform="translate(349,176)"/>
<path d="M0 0 C1.32 0.66 2.64 1.32 4 2 C4.16129032 10.38709677 4.16129032 10.38709677 3 13 C1.68835634 13.7083877 0.35532489 14.3792612 -1 15 C-1.02685412 12.68756208 -1.04632841 10.3750373 -1.0625 8.0625 C-1.07410156 6.77472656 -1.08570313 5.48695313 -1.09765625 4.16015625 C-1 1 -1 1 0 0 Z " fill="#FCF6F1" transform="translate(191,215)"/>
<path d="M0 0 C7.63854147 3.41006315 13.15697856 8.08506445 19 14 C17.35 14 15.7 14 14 14 C14 13.34 14 12.68 14 12 C13.0409375 11.8453125 13.0409375 11.8453125 12.0625 11.6875 C11.0415625 11.3471875 11.0415625 11.3471875 10 11 C9.67 10.01 9.34 9.02 9 8 C6.99753551 6.82614151 4.96622092 5.98648837 2.8125 5.125 C1 4 1 4 0.38671875 1.9296875 C0.25910156 1.29289062 0.13148438 0.65609375 0 0 Z " fill="#733944" transform="translate(346,40)"/>
<path d="M0 0 C0.99 0 1.98 0 3 0 C3 3.96 3 7.92 3 12 C2.01 12.33 1.02 12.66 0 13 C-0.33 13.66 -0.66 14.32 -1 15 C-2.01603857 9.20858017 -1.96263236 5.5415502 0 0 Z " fill="#FCFBF2" transform="translate(189,239)"/>
<path d="M0 0 C0 3 0 3 -1 6 C1.6739124 6.89130413 4.23723823 7.47731534 7 8 C7 8.66 7 9.32 7 10 C2.05 10 -2.9 10 -8 10 C-7.34 8.68 -6.68 7.36 -6 6 C-5.34 6 -4.68 6 -4 6 C-3.71125 5.38125 -3.4225 4.7625 -3.125 4.125 C-2 2 -2 2 0 0 Z M-5 7 C-3.515 7.99 -3.515 7.99 -2 9 C-1.01 8.67 -0.02 8.34 1 8 C-1.97 7.505 -1.97 7.505 -5 7 Z " fill="#DDECE4" transform="translate(347,325)"/>
<path d="M0 0 C0.66 0.99 1.32 1.98 2 3 C-0.55274874 5.45605371 -1.85890643 5.98802939 -5.453125 6.29296875 C-6.70609375 6.25816406 -7.9590625 6.22335937 -9.25 6.1875 C-10.51328125 6.16042969 -11.7765625 6.13335938 -13.078125 6.10546875 C-14.52445313 6.05326172 -14.52445313 6.05326172 -16 6 C-12.69289314 4.21801523 -9.31785001 3.03842935 -5.75 1.875 C-4.67234375 1.52179687 -3.5946875 1.16859375 -2.484375 0.8046875 C-1.25460937 0.40636719 -1.25460937 0.40636719 0 0 Z " fill="#445B4F" transform="translate(260,575)"/>
<path d="M0 0 C0.33 0 0.66 0 1 0 C1.50354867 2.43681587 2.00296756 4.87435439 2.5 7.3125 C2.64308594 8.00279297 2.78617187 8.69308594 2.93359375 9.40429688 C3.52625044 12.32524773 4 15.01108122 4 18 C0.37 17.34 -3.26 16.68 -7 16 C-7 15.67 -7 15.34 -7 15 C-3.535 14.505 -3.535 14.505 0 14 C0.66 12.35 1.32 10.7 2 9 C1.34 9 0.68 9 0 9 C0 6.03 0 3.06 0 0 Z " fill="#7C4D57" transform="translate(417,154)"/>
<path d="M0 0 C0.33 0 0.66 0 1 0 C2.69423409 6.35337785 2.69423409 13.64662215 1 20 C-1.07182145 16.59336868 -1.24183505 13.95164035 -1.1875 10 C-1.18105469 8.96875 -1.17460937 7.9375 -1.16796875 6.875 C-1.02449792 4.41931318 -0.7046041 2.34492245 0 0 Z " fill="#E6D1D5" transform="translate(169,338)"/>
<path d="M0 0 C0.33 0 0.66 0 1 0 C1.22119939 2.62450086 1.42746669 5.24870486 1.625 7.875 C1.68945312 8.62136719 1.75390625 9.36773437 1.8203125 10.13671875 C1.96087365 12.0870047 1.98759849 14.04469467 2 16 C1.34 16.66 0.68 17.32 0 18 C-0.69748583 19.31747324 -1.36959957 20.64914193 -2 22 C-1.86145912 18.70798357 -1.71292976 15.41649291 -1.5625 12.125 C-1.50352539 10.71927734 -1.50352539 10.71927734 -1.44335938 9.28515625 C-1.40146484 8.38925781 -1.35957031 7.49335938 -1.31640625 6.5703125 C-1.27974854 5.74289551 -1.24309082 4.91547852 -1.20532227 4.06298828 C-1 2 -1 2 0 0 Z " fill="#7F5054" transform="translate(126,310)"/>
<path d="M0 0 C0.82638376 2.89234315 1 4.88742431 1 8 C-0.9355162 10.51617106 -3.13864195 11.70777379 -6 13 C-6.99 13.495 -6.99 13.495 -8 14 C-6.46162154 10.80375738 -4.71133468 7.78394426 -2.875 4.75 C-2.33617187 3.85796875 -1.79734375 2.9659375 -1.2421875 2.046875 C-0.62730469 1.03367187 -0.62730469 1.03367187 0 0 Z " fill="#803F4D" transform="translate(238,77)"/>
<path d="M0 0 C0.66 0.33 1.32 0.66 2 1 C1.00269864 3.4932534 0.34925469 4.77467439 -1.9375 6.25 C-4 7 -4 7 -7 7 C-7 7.66 -7 8.32 -7 9 C-8.98 9.66 -10.96 10.32 -13 11 C-11.6390377 6.91711311 -9.52046678 6.11314183 -5.9375 3.8125 C-4.83277344 3.09707031 -3.72804688 2.38164063 -2.58984375 1.64453125 C-1.73519531 1.10183594 -0.88054687 0.55914062 0 0 Z " fill="#743D4A" transform="translate(277,39)"/>
<path d="M0 0 C2.1519437 3.22791555 2.20086443 4.28400809 2 8 C1.360625 8.2475 0.72125 8.495 0.0625 8.75 C-2.18741541 9.81562433 -2.18741541 9.81562433 -2.75 12.125 C-2.8325 12.74375 -2.915 13.3625 -3 14 C-3.66 14 -4.32 14 -5 14 C-3.45730076 9.27934033 -1.92205381 4.58335908 0 0 Z " fill="#793F4D" transform="translate(180,464)"/>
<path d="M0 0 C0.99 0.33 1.98 0.66 3 1 C3 2.98 3 4.96 3 7 C2.01 7.33 1.02 7.66 0 8 C-0.99 9.485 -0.99 9.485 -2 11 C-2.66 11 -3.32 11 -4 11 C-3.67 7.7 -3.34 4.4 -3 1 C-2.34 1.66 -1.68 2.32 -1 3 C-0.67 2.01 -0.34 1.02 0 0 Z " fill="#773440" transform="translate(196,239)"/>
<path d="M0 0 C0.33 0 0.66 0 1 0 C1 3.96 1 7.92 1 12 C0.34 12 -0.32 12 -1 12 C-1.33 13.65 -1.66 15.3 -2 17 C-2.66 17 -3.32 17 -4 17 C-2.91103333 11.24237834 -1.70663707 5.60752181 0 0 Z " fill="#78474F" transform="translate(211,134)"/>
<path d="M0 0 C0.33 0.66 0.66 1.32 1 2 C1.66 2.33 2.32 2.66 3 3 C2.01 3.66 1.02 4.32 0 5 C-0.556875 6.11375 -0.556875 6.11375 -1.125 7.25 C-3.90728966 11.3306915 -7.83179326 13.45713174 -12 16 C-10.85844887 12.5753466 -9.88532371 11.886659 -7.125 9.6875 C-3.68113724 6.78675538 -1.66415086 4.26438658 0 0 Z " fill="#F0E0E1" transform="translate(328,453)"/>
<path d="M0 0 C0.33 0.66 0.66 1.32 1 2 C1.66 2.33 2.32 2.66 3 3 C2.34 3 1.68 3 1 3 C1 3.66 1 4.32 1 5 C-3.47058824 9 -3.47058824 9 -6 9 C-6.33 8.01 -6.66 7.02 -7 6 C-4.69 4.02 -2.38 2.04 0 0 Z " fill="#516256" transform="translate(285,286)"/>
<path d="M0 0 C0.99 0.33 1.98 0.66 3 1 C3.66 4.3 4.32 7.6 5 11 C1 9 1 9 -0.3125 6.625 C-1.02770914 3.89420147 -0.9659657 2.60810739 0 0 Z " fill="#F4F0E7" transform="translate(185,263)"/>
<path d="M0 0 C0.33 0.99 0.66 1.98 1 3 C-0.38552202 4.01423834 -1.78394288 5.01087002 -3.1875 6 C-3.96480469 6.556875 -4.74210937 7.11375 -5.54296875 7.6875 C-8.28336637 9.151369 -9.94100837 9.26080213 -13 9 C-11.54038954 6.08077908 -9.36103252 5.43806731 -6.5 3.9375 C-3.0318363 2.28029466 -3.0318363 2.28029466 0 0 Z " fill="#F1DFDE" transform="translate(313,469)"/>
<path d="M0 0 C0.33 0.99 0.66 1.98 1 3 C-1.59177765 7.87254198 -4.37911618 10.26947774 -9 13 C-9.66 12.67 -10.32 12.34 -11 12 C-10.45730469 11.46890625 -9.91460937 10.9378125 -9.35546875 10.390625 C-8.64003906 9.68421875 -7.92460937 8.9778125 -7.1875 8.25 C-6.47980469 7.55390625 -5.77210938 6.8578125 -5.04296875 6.140625 C-3.17724121 4.18571355 -1.56830358 2.19661447 0 0 Z " fill="#D8E2DB" transform="translate(359,312)"/>
<path d="M0 0 C-0.1875 1.875 -0.1875 1.875 -1 4 C-2.64551962 4.71727778 -4.31422289 5.38325228 -6 6 C-6.99 7.485 -6.99 7.485 -8 9 C-8.66 9 -9.32 9 -10 9 C-10.33 8.01 -10.66 7.02 -11 6 C-9.54550599 4.9944239 -8.08627557 3.99569565 -6.625 3 C-5.40683594 2.1646875 -5.40683594 2.1646875 -4.1640625 1.3125 C-2 0 -2 0 0 0 Z " fill="#586A60" transform="translate(326,258)"/>
<path d="M0 0 C0.66 1.32 1.32 2.64 2 4 C3.65 3.67 5.3 3.34 7 3 C7.33 4.32 7.66 5.64 8 7 C7.34 7 6.68 7 6 7 C5.34 8.32 4.68 9.64 4 11 C1 5.25 1 5.25 1 3 C0.34 3 -0.32 3 -1 3 C-0.67 2.01 -0.34 1.02 0 0 Z " fill="#496255" transform="translate(358,429)"/>
<path d="M0 0 C0.33 0.99 0.66 1.98 1 3 C-0.66666667 4.66666667 -2.33333333 6.33333333 -4 8 C-4.515625 8.61875 -5.03125 9.2375 -5.5625 9.875 C-6.2740625 10.431875 -6.2740625 10.431875 -7 11 C-9.1875 10.6875 -9.1875 10.6875 -11 10 C-10.34 10 -9.68 10 -9 10 C-8.34 8.68 -7.68 7.36 -7 6 C-6.34 6 -5.68 6 -5 6 C-5 5.34 -5 4.68 -5 4 C-3.37373596 2.61767557 -1.7074998 1.28062485 0 0 Z " fill="#EAE0DC" transform="translate(235,245)"/>
<path d="M0 0 C-0.33 0.66 -0.66 1.32 -1 2 C-1.99 2.33 -2.98 2.66 -4 3 C-4 3.99 -4 4.98 -4 6 C-6.64 6 -9.28 6 -12 6 C-4.89473684 -1.63157895 -4.89473684 -1.63157895 0 0 Z " fill="#EDE0E0" transform="translate(284,58)"/>
<path d="M0 0 C0.33 0 0.66 0 1 0 C1 4.95 1 9.9 1 15 C1.99 15 2.98 15 4 15 C4 15.99 4 16.98 4 18 C2.0625 17.3125 2.0625 17.3125 0 16 C-1.71857198 10.98749839 -1.61232201 5.03850627 0 0 Z " fill="#774D52" transform="translate(172,490)"/>
<path d="M0 0 C2.64 1.32 5.28 2.64 8 4 C8 4.99 8 5.98 8 7 C3.94718288 5.77472971 0.55639236 4.30119506 -3 2 C-2.01 1.34 -1.02 0.68 0 0 Z " fill="#5E7468" transform="translate(239,377)"/>
<path d="M0 0 C0 0.66 0 1.32 0 2 C-4.38461538 5 -4.38461538 5 -7 5 C-7 5.66 -7 6.32 -7 7 C-7.99 7.33 -8.98 7.66 -10 8 C-10 7.34 -10 6.68 -10 6 C-10.99 5.67 -11.98 5.34 -13 5 C-11.21046815 4.16209211 -9.41830305 3.32980604 -7.625 2.5 C-6.62726563 2.0359375 -5.62953125 1.571875 -4.6015625 1.09375 C-2 0 -2 0 0 0 Z " fill="#586B61" transform="translate(286,564)"/>
<path d="M0 0 C2.31 0.33 4.62 0.66 7 1 C7.33 1.99 7.66 2.98 8 4 C4.7 4 1.4 4 -2 4 C-2 3.34 -2 2.68 -2 2 C-1.34 2 -0.68 2 0 2 C0 1.34 0 0.68 0 0 Z M2 4 C4 5 4 5 4 5 Z " fill="#71313D" transform="translate(265,427)"/>
<path d="M0 0 C1.5 1.375 1.5 1.375 3 3 C3 3.66 3 4.32 3 5 C0.69 5.33 -1.62 5.66 -4 6 C-4 6.66 -4 7.32 -4 8 C-4.99 7.67 -5.98 7.34 -7 7 C-6.38125 6.7525 -5.7625 6.505 -5.125 6.25 C-2.62985717 4.78226892 -2.09872287 3.62003145 -1 1 C-0.67 0.67 -0.34 0.34 0 0 Z " fill="#5A6A62" transform="translate(458,275)"/>
<path d="M0 0 C-1.43011973 0.86646667 -2.86940619 1.71781829 -4.3125 2.5625 C-5.51326172 3.27599609 -5.51326172 3.27599609 -6.73828125 4.00390625 C-9 5 -9 5 -12 4 C-11.67 3.34 -11.34 2.68 -11 2 C-10.34 2 -9.68 2 -9 2 C-9 1.34 -9 0.68 -9 0 C-3.375 -1.125 -3.375 -1.125 0 0 Z " fill="#6E323D" transform="translate(313,192)"/>
<path d="M0 0 C1.41805831 0.28482368 2.83440379 0.57818144 4.25 0.875 C5.03890625 1.03742188 5.8278125 1.19984375 6.640625 1.3671875 C8.96831144 1.99150075 10.89031952 2.84838542 13 4 C10.04335481 5.4783226 7.25770263 5.06032783 4 5 C4 4.34 4 3.68 4 3 C2.68 2.67 1.36 2.34 0 2 C0 1.34 0 0.68 0 0 Z " fill="#DDE8E0" transform="translate(271,393)"/>
<path d="M0 0 C-2.475 3.465 -2.475 3.465 -5 7 C-5.66 6.34 -6.32 5.68 -7 5 C-7 4.34 -7 3.68 -7 3 C-6.34 3 -5.68 3 -5 3 C-5 2.34 -5 1.68 -5 1 C-5.66 0.67 -6.32 0.34 -7 0 C-4.3333581 -1.33332095 -2.83319697 -0.67102033 0 0 Z " fill="#4D5E52" transform="translate(384,284)"/>
<path d="M0 0 C1.27351308 2.54702616 0.80191925 3.4282945 0.0625 6.125 C-0.13214844 6.84945312 -0.32679688 7.57390625 -0.52734375 8.3203125 C-0.76130859 9.15175781 -0.76130859 9.15175781 -1 10 C-1.99 10 -2.98 10 -4 10 C-4.33 9.01 -4.66 8.02 -5 7 C-2 2 -2 2 0 0 Z " fill="#F9ECF0" transform="translate(207,146)"/>
<path d="M0 0 C2.45823172 3.68734758 3.01242616 6.69699971 4 11 C3.34 11 2.68 11 2 11 C2 10.34 2 9.68 2 9 C1.34 9 0.68 9 0 9 C-0.33 9.66 -0.66 10.32 -1 11 C-1.0270043 9.54176788 -1.04639787 8.08339325 -1.0625 6.625 C-1.07410156 5.81289062 -1.08570313 5.00078125 -1.09765625 4.1640625 C-1 2 -1 2 0 0 Z " fill="#783D4A" transform="translate(410,131)"/>
<path d="M0 0 C3.22430866 4.83646298 3.09242903 7.26939984 3 13 C2.01 13.495 2.01 13.495 1 14 C0.67 9.38 0.34 4.76 0 0 Z " fill="#4B5E50" transform="translate(500,535)"/>
<path d="M0 0 C0.66 0.33 1.32 0.66 2 1 C1.34 2.32 0.68 3.64 0 5 C-0.99 4.67 -1.98 4.34 -3 4 C-3.99 4.66 -4.98 5.32 -6 6 C-8.1875 5.625 -8.1875 5.625 -10 5 C-8.38007835 4.13624104 -6.75388139 3.28424146 -5.125 2.4375 C-4.22007812 1.96183594 -3.31515625 1.48617187 -2.3828125 0.99609375 C-1.20332031 0.50302734 -1.20332031 0.50302734 0 0 Z " fill="#E9D9D7" transform="translate(293,51)"/>
<path d="M0 0 C1.8125 0.1875 1.8125 0.1875 4 1 C5.75 3.5625 5.75 3.5625 7 6 C6.01 6.33 5.02 6.66 4 7 C4 6.34 4 5.68 4 5 C2.68 4.67 1.36 4.34 0 4 C0 2.68 0 1.36 0 0 Z " fill="#733A46" transform="translate(176,560)"/>
<path d="M0 0 C4.95 1.98 4.95 1.98 10 4 C9.67 4.66 9.34 5.32 9 6 C3.50847458 5.38983051 3.50847458 5.38983051 1.125 3.5625 C0 2 0 2 0 0 Z " fill="#F6E7E9" transform="translate(333,53)"/>
<path d="M0 0 C0 0.66 0 1.32 0 2 C-1.2065625 2.4640625 -1.2065625 2.4640625 -2.4375 2.9375 C-4.89080405 3.76335345 -4.89080405 3.76335345 -6 5 C-8.67058851 5.14115161 -11.32432238 5.04247107 -14 5 C-9.89892226 2.77858289 -4.73442329 0 0 0 Z " fill="#596660" transform="translate(258,576)"/>
<path d="M0 0 C2.31 0.33 4.62 0.66 7 1 C6.25 2.9375 6.25 2.9375 5 5 C3 5.875 3 5.875 1 6 C0.34 5.34 -0.32 4.68 -1 4 C-0.625 1.875 -0.625 1.875 0 0 Z " fill="#773641" transform="translate(257,425)"/>
<path d="M0 0 C0.66 0.33 1.32 0.66 2 1 C0.55609075 4.80666984 -1.34952803 6.26602582 -5 8 C-5.66 7.67 -6.32 7.34 -7 7 C-4.69 4.69 -2.38 2.38 0 0 Z " fill="#65756B" transform="translate(254,314)"/>
<path d="M0 0 C0.33 1.32 0.66 2.64 1 4 C-1.3125 6.0625 -1.3125 6.0625 -4 8 C-4.99 7.67 -5.98 7.34 -7 7 C-4.69 4.69 -2.38 2.38 0 0 Z " fill="#E2D6D4" transform="translate(223,256)"/>
<path d="M0 0 C2.475 0.99 2.475 0.99 5 2 C5.66 1.34 6.32 0.68 7 0 C6.67 1.65 6.34 3.3 6 5 C4.68 5.33 3.36 5.66 2 6 C1.34 4.02 0.68 2.04 0 0 Z " fill="#743A44" transform="translate(383,104)"/>
<path d="M0 0 C4.875 4.75 4.875 4.75 6 7 C5.0625 9.625 5.0625 9.625 4 12 C3.34 12 2.68 12 2 12 C2.226875 11.278125 2.45375 10.55625 2.6875 9.8125 C3.08604497 6.22559529 1.97699586 4.92595387 0 2 C0 1.34 0 0.68 0 0 Z " fill="#783845" transform="translate(375,65)"/>
<path d="M0 0 C2.64 0.33 5.28 0.66 8 1 C6.8125 2.5 6.8125 2.5 5 4 C2.3125 4.1875 2.3125 4.1875 0 4 C0 2.68 0 1.36 0 0 Z " fill="#6D3A42" transform="translate(236,420)"/>
<path d="M0 0 C0.33 0.99 0.66 1.98 1 3 C-6.75 2.25 -6.75 2.25 -9 0 C-5.93109813 -1.53445094 -3.29905734 -0.54984289 0 0 Z " fill="#EFE6E7" transform="translate(243,418)"/>
<path d="M0 0 C0.33 0 0.66 0 1 0 C1.48990279 5.06232884 -0.2893678 9.32630846 -2 14 C-2.66 14 -3.32 14 -4 14 C-3.52372025 12.04096255 -3.04388577 10.08278903 -2.5625 8.125 C-2.29566406 7.03445313 -2.02882812 5.94390625 -1.75390625 4.8203125 C-1 2 -1 2 0 0 Z " fill="#ECDDDC" transform="translate(174,322)"/>
<path d="M0 0 C0.66 0.33 1.32 0.66 2 1 C1.34 2.32 0.68 3.64 0 5 C-0.66 5 -1.32 5 -2 5 C-2 5.66 -2 6.32 -2 7 C-2.66 7 -3.32 7 -4 7 C-4 6.34 -4 5.68 -4 5 C-4.66 4.67 -5.32 4.34 -6 4 C-4.02 2.68 -2.04 1.36 0 0 Z " fill="#57675B" transform="translate(421,304)"/>
<path d="M0 0 C0 3.20395416 -0.74335022 5.09399739 -2 8 C-3.32 8 -4.64 8 -6 8 C-2.25 2.25 -2.25 2.25 0 0 Z " fill="#E3EDE5" transform="translate(385,283)"/>
<path d="M0 0 C0.33 0 0.66 0 1 0 C1.06058594 0.67546875 1.12117187 1.3509375 1.18359375 2.046875 C1.26738281 2.93890625 1.35117188 3.8309375 1.4375 4.75 C1.51871094 5.63171875 1.59992188 6.5134375 1.68359375 7.421875 C1.93804319 9.954369 1.93804319 9.954369 2.5625 12.1875 C3.10021722 14.41518561 2.69281526 15.84457475 2 18 C-0.61281488 12.12116651 -0.18328202 6.29268272 0 0 Z " fill="#835057" transform="translate(129,256)"/>
<path d="M0 0 C1.07396066 4.29584263 1.07329796 7.60212211 1 12 C-0.32 12.33 -1.64 12.66 -3 13 C-2.01 8.71 -1.02 4.42 0 0 Z " fill="#EAD7D6" transform="translate(187,242)"/>
<path d="M0 0 C0.99 1.32 1.98 2.64 3 4 C2.1875 7.25 2.1875 7.25 1 10 C0.34 10 -0.32 10 -1 10 C-0.67 6.7 -0.34 3.4 0 0 Z " fill="#703B43" transform="translate(201,176)"/>
<path d="M0 0 C0.33 0 0.66 0 1 0 C1.3125 3.3125 1.3125 3.3125 1 7 C-1.5 8.9375 -1.5 8.9375 -4 10 C-4 8.02 -4 6.04 -4 4 C-3.01 4.495 -3.01 4.495 -2 5 C-1.34 3.35 -0.68 1.7 0 0 Z " fill="#793844" transform="translate(207,160)"/>
<path d="M0 0 C3.96 1.98 3.96 1.98 8 4 C8 4.33 8 4.66 8 5 C5.03 5 2.06 5 -1 5 C-0.67 3.35 -0.34 1.7 0 0 Z " fill="#7B4752" transform="translate(197,576)"/>
<path d="M0 0 C2.60158864 2.4715092 4.85869608 5.12031542 7 8 C7 8.66 7 9.32 7 10 C6.01 10.33 5.02 10.66 4 11 C3.32880451 9.5437455 2.66318193 8.08492133 2 6.625 C1.62875 5.81289063 1.2575 5.00078125 0.875 4.1640625 C0 2 0 2 0 0 Z " fill="#78494F" transform="translate(165,544)"/>
<path d="M0 0 C1.98 0.495 1.98 0.495 4 1 C3.67 2.98 3.34 4.96 3 7 C3.66 7.33 4.32 7.66 5 8 C3.125 7.75 3.125 7.75 1 7 C-0.25 4.9375 -0.25 4.9375 -1 3 C-0.34 3 0.32 3 1 3 C0.67 2.01 0.34 1.02 0 0 Z " fill="#F8F3F0" transform="translate(163,536)"/>
<path d="M0 0 C0.66 0.99 1.32 1.98 2 3 C-0.97 5.475 -0.97 5.475 -4 8 C-4.25 5.6875 -4.25 5.6875 -4 3 C-2 1.1875 -2 1.1875 0 0 Z " fill="#743541" transform="translate(324,456)"/>
<path d="M0 0 C0.99 0.99 1.98 1.98 3 3 C3.66 3 4.32 3 5 3 C5 3.99 5 4.98 5 6 C4.34 6 3.68 6 3 6 C2.67 7.32 2.34 8.64 2 10 C1.34 9.67 0.68 9.34 0 9 C0 6.03 0 3.06 0 0 Z " fill="#5F6D62" transform="translate(225,359)"/>
<path d="M0 0 C0.99 0 1.98 0 3 0 C1.47291037 3.43595166 -0.59927045 6.11912454 -3 9 C-3.33 8.01 -3.66 7.02 -4 6 C-3.525625 5.566875 -3.05125 5.13375 -2.5625 4.6875 C-0.76313043 2.97690387 -0.76313043 2.97690387 0 0 Z " fill="#55665A" transform="translate(398,261)"/>
<path d="M0 0 C0.99 0.33 1.98 0.66 3 1 C3 1.99 3 2.98 3 4 C0.5 6.1875 0.5 6.1875 -2 8 C-2.33 7.01 -2.66 6.02 -3 5 C-2.01 5 -1.02 5 0 5 C0 3.35 0 1.7 0 0 Z " fill="#7A3F48" transform="translate(263,66)"/>
<path d="M0 0 C-0.33 0.66 -0.66 1.32 -1 2 C-0.34 2.66 0.32 3.32 1 4 C-2.125 3.47916667 -5.25 2.95833333 -8.375 2.4375 C-9.24125 2.293125 -10.1075 2.14875 -11 2 C-11 1.67 -11 1.34 -11 1 C-7.26562152 0.12132271 -3.83225427 -0.08912219 0 0 Z " fill="#E5D8D7" transform="translate(301,432)"/>
<path d="M0 0 C0.66 0.99 1.32 1.98 2 3 C0.35 4.65 -1.3 6.3 -3 8 C-3.33 6.68 -3.66 5.36 -4 4 C-2.68 3.34 -1.36 2.68 0 2 C0 1.34 0 0.68 0 0 Z " fill="#773341" transform="translate(191,289)"/>
<path d="M0 0 C0.93065133 2.60582371 1.14917407 3.64198224 0.0625 6.25 C-0.4634375 7.11625 -0.4634375 7.11625 -1 8 C-1.99 8 -2.98 8 -4 8 C-3.40138258 5.64828869 -2.73075648 3.3140622 -2 1 C-1.34 0.67 -0.68 0.34 0 0 Z " fill="#516258" transform="translate(406,248)"/>
<path d="M0 0 C0.99 0 1.98 0 3 0 C2.67 2.97 2.34 5.94 2 9 C1.34 9 0.68 9 0 9 C-1.125 2.25 -1.125 2.25 0 0 Z " fill="#F1E7E5" transform="translate(196,189)"/>
<path d="M0 0 C0.66 0.66 1.32 1.32 2 2 C1.01 2 0.02 2 -1 2 C-1 2.66 -1 3.32 -1 4 C-0.34 4.33 0.32 4.66 1 5 C-2.13349732 6.04449911 -2.98968256 5.93423645 -6 5 C-4.02 3.35 -2.04 1.7 0 0 Z " fill="#7F4152" transform="translate(262,50)"/>
<path d="M0 0 C3.16130459 4.21507278 3.3367697 5.06071112 3 10 C2.01 10.495 2.01 10.495 1 11 C0.67 7.37 0.34 3.74 0 0 Z " fill="#6F3440" transform="translate(114,472)"/>
<path d="M0 0 C2.31 0.66 4.62 1.32 7 2 C6.67 2.99 6.34 3.98 6 5 C4.02 4.34 2.04 3.68 0 3 C0 2.01 0 1.02 0 0 Z " fill="#72353E" transform="translate(314,440)"/>
<path d="M0 0 C2.625 0.375 2.625 0.375 5 1 C5 1.66 5 2.32 5 3 C6.32 3.33 7.64 3.66 9 4 C7 5 7 5 4.8359375 4.44140625 C4.02382813 4.15136719 3.21171875 3.86132812 2.375 3.5625 C1.55773437 3.27503906 0.74046875 2.98757813 -0.1015625 2.69140625 C-0.72804688 2.46324219 -1.35453125 2.23507812 -2 2 C-1.34 1.34 -0.68 0.68 0 0 Z " fill="#627469" transform="translate(318,404)"/>
<path d="M0 0 C2 2 2 2 2.1953125 3.9453125 C2.13020833 5.96354167 2.06510417 7.98177083 2 10 C-0.05619793 7.68677733 -0.95899829 6.44076838 -1.25 3.3125 C-1 1 -1 1 0 0 Z " fill="#60786A" transform="translate(486,322)"/>
<path d="M0 0 C0.66 0.99 1.32 1.98 2 3 C0.35 4.65 -1.3 6.3 -3 8 C-3.99 7.67 -4.98 7.34 -6 7 C-4.02 4.69 -2.04 2.38 0 0 Z " fill="#E9DCDA" transform="translate(213,266)"/>
<path d="M0 0 C0.66 0.33 1.32 0.66 2 1 C1.75 3.875 1.75 3.875 1 7 C-1.0625 8.375 -1.0625 8.375 -3 9 C-2.44271087 5.65626525 -1.64826111 2.96687001 0 0 Z " fill="#763946" transform="translate(218,116)"/>
<path d="M0 0 C1.76462683 3.08809695 2 4.23312136 2 8 C0.68 7.67 -0.64 7.34 -2 7 C-1.125 2.25 -1.125 2.25 0 0 Z " fill="#E7F1EA" transform="translate(366,452)"/>
<path d="M0 0 C0.33 0.99 0.66 1.98 1 3 C-0.40445835 5.2636564 -2.1967913 7.0208685 -4 9 C-4.66 8.67 -5.32 8.34 -6 8 C-4.02 5.36 -2.04 2.72 0 0 Z " fill="#D3E1D8" transform="translate(392,274)"/>
<path d="M0 0 C1.32 0 2.64 0 4 0 C4.625 2.3125 4.625 2.3125 5 5 C4.01 6.485 4.01 6.485 3 8 C0 2.25 0 2.25 0 0 Z " fill="#576C62" transform="translate(458,219)"/>
<path d="M0 0 C2.32472205 2.85306797 3.7508258 5.54074837 5 9 C2.525 8.01 2.525 8.01 0 7 C0 4.69 0 2.38 0 0 Z " fill="#783B4C" transform="translate(395,95)"/>
<path d="M0 0 C0.99 0.33 1.98 0.66 3 1 C3 1.66 3 2.32 3 3 C2.01 3.33 1.02 3.66 0 4 C-0.66 4.66 -1.32 5.32 -2 6 C-2.99 5.67 -3.98 5.34 -5 5 C-3.35 3.35 -1.7 1.7 0 0 Z " fill="#EDE5DF" transform="translate(261,74)"/>
<path d="M0 0 C0 0.33 0 0.66 0 1 C-1.3921875 1.1546875 -1.3921875 1.1546875 -2.8125 1.3125 C-6.03254358 2.0070192 -7.02579865 2.47740939 -9 5 C-9 4.34 -9 3.68 -9 3 C-9.66 2.67 -10.32 2.34 -11 2 C-9.73392393 1.46770674 -8.46189588 0.94955456 -7.1875 0.4375 C-6.47980469 0.14746094 -5.77210938 -0.14257812 -5.04296875 -0.44140625 C-3 -1 -3 -1 0 0 Z " fill="#743C4A" transform="translate(293,35)"/>
<path d="M0 0 C2 2 2 2 2 6 C-0.5 7.75 -0.5 7.75 -3 9 C-2.01 6.03 -1.02 3.06 0 0 Z " fill="#5A6C61" transform="translate(365,490)"/>
<path d="M0 0 C2.64 0 5.28 0 8 0 C5.6875 2.0625 5.6875 2.0625 3 4 C2.01 3.67 1.02 3.34 0 3 C0 2.01 0 1.02 0 0 Z " fill="#783B46" transform="translate(301,472)"/>
<path d="M0 0 C0.66 0 1.32 0 2 0 C1.43628586 3.26954202 0.50037734 4.82575883 -2 7 C-2.66 6.67 -3.32 6.34 -4 6 C-2.7260411 3.96166576 -1.38938077 1.96147874 0 0 Z " fill="#5A6C5F" transform="translate(234,339)"/>
<path d="M0 0 C0.33 0.99 0.66 1.98 1 3 C1.66 3 2.32 3 3 3 C3.33 2.01 3.66 1.02 4 0 C4.33 0.66 4.66 1.32 5 2 C3.35 3.65 1.7 5.3 0 7 C-1.33332095 4.3333581 -0.67102033 2.83319697 0 0 Z " fill="#7D3A48" transform="translate(177,307)"/>
<path d="M0 0 C0.33 0.66 0.66 1.32 1 2 C1.66 2.33 2.32 2.66 3 3 C2.01 3 1.02 3 0 3 C-0.33 3.99 -0.66 4.98 -1 6 C-2.32 5.34 -3.64 4.68 -5 4 C-3.35 2.68 -1.7 1.36 0 0 Z " fill="#56695D" transform="translate(272,297)"/>
<path d="M0 0 C3 4 3 4 2.85546875 6.140625 C2.23697917 8.09375 1.61848958 10.046875 1 12 C0.67 12 0.34 12 0 12 C0 8.04 0 4.08 0 0 Z " fill="#D0D9D2" transform="translate(484,276)"/>
<path d="M0 0 C1.65 1.65 3.3 3.3 5 5 C4.34 5.66 3.68 6.32 3 7 C3 6.01 3 5.02 3 4 C2.34 4 1.68 4 1 4 C0.67 4.66 0.34 5.32 0 6 C0 4.02 0 2.04 0 0 Z " fill="#763C46" transform="translate(160,538)"/>
<path d="M0 0 C0.99 0.33 1.98 0.66 3 1 C0.60490662 3.89932357 -1.31245243 4.50168276 -5 5 C-4.67 4.34 -4.34 3.68 -4 3 C-3.34 3 -2.68 3 -2 3 C-2 2.34 -2 1.68 -2 1 C-1.34 0.67 -0.68 0.34 0 0 Z " fill="#5B6E61" transform="translate(325,538)"/>
<path d="M0 0 C0.99 0.99 1.98 1.98 3 3 C1.515 5.475 1.515 5.475 0 8 C-1.09658936 4.71023192 -0.79953138 3.28696233 0 0 Z " fill="#EDF4EE" transform="translate(353,504)"/>
<path d="M0 0 C0.93423645 3.01031744 1.04449911 3.86650268 0 7 C-0.99 6.67 -1.98 6.34 -3 6 C-1.125 1.125 -1.125 1.125 0 0 Z " fill="#EDEAE3" transform="translate(171,490)"/>
<path d="M0 0 C0 0.99 0 1.98 0 3 C-3.20062687 4.60031344 -5.72271806 3.03173691 -9 2 C-5.86501708 0.14223235 -3.62528568 -0.20140476 0 0 Z " fill="#F1E3E3" transform="translate(285,428)"/>
<path d="M0 0 C0.33 0 0.66 0 1 0 C1.66 3.3 2.32 6.6 3 10 C2.67 9.34 2.34 8.68 2 8 C1.34 8 0.68 8 0 8 C-0.79953138 4.71303767 -1.09658936 3.28976808 0 0 Z " fill="#86585E" transform="translate(169,358)"/>
<path d="M0 0 C0.33 0.66 0.66 1.32 1 2 C0.67 2.99 0.34 3.98 0 5 C0.33 5.99 0.66 6.98 1 8 C-0.65 7.67 -2.3 7.34 -4 7 C-2.68 4.69 -1.36 2.38 0 0 Z " fill="#627169" transform="translate(463,268)"/>
<path d="M0 0 C0.99 0.66 1.98 1.32 3 2 C1.02 2.99 -0.96 3.98 -3 5 C-3.66 4.34 -4.32 3.68 -5 3 C-3.35 2.01 -1.7 1.02 0 0 Z " fill="#55675C" transform="translate(311,267)"/>
<path d="M0 0 C0.66 0.33 1.32 0.66 2 1 C0.35 2.65 -1.3 4.3 -3 6 C-3.66 5.01 -4.32 4.02 -5 3 C-2.625 1.4375 -2.625 1.4375 0 0 Z " fill="#5E7065" transform="translate(339,249)"/>
<path d="M0 0 C0.99 0 1.98 0 3 0 C2.34 2.31 1.68 4.62 1 7 C0.34 7 -0.32 7 -1 7 C-0.67 4.69 -0.34 2.38 0 0 Z " fill="#793C49" transform="translate(208,144)"/>
<path d="M0 0 C0.99 0.33 1.98 0.66 3 1 C2.34 2.32 1.68 3.64 1 5 C0.34 5 -0.32 5 -1 5 C-1.33 3.68 -1.66 2.36 -2 1 C-1.34 0.67 -0.68 0.34 0 0 Z " fill="#7A2B3D" transform="translate(388,109)"/>
<path d="M0 0 C1.98 0.495 1.98 0.495 4 1 C3.67 2.32 3.34 3.64 3 5 C3 4.34 3 3.68 3 3 C1.02 3.99 1.02 3.99 -1 5 C-0.67 3.35 -0.34 1.7 0 0 Z " fill="#732F3C" transform="translate(386,83)"/>
</svg>
