<?xml version="1.0" encoding="UTF-8"?>
<svg version="1.1" xmlns="http://www.w3.org/2000/svg" width="474" height="248">
<path d="M0 0 C156.42 0 312.84 0 474 0 C474 81.84 474 163.68 474 248 C317.58 248 161.16 248 0 248 C0 166.16 0 84.32 0 0 Z " fill="#22AA55" transform="translate(0,0)"/>
<path d="M0 0 C0.90295711 -0.00322445 1.80591421 -0.00644889 2.73623365 -0.00977105 C4.24145144 -0.00744815 4.24145144 -0.00744815 5.77707767 -0.00507832 C7.36270271 -0.00847665 7.36270271 -0.00847665 8.98036057 -0.01194364 C12.55185708 -0.01831569 16.12331595 -0.01745223 19.69481754 -0.01662922 C22.2434122 -0.01961871 24.79200641 -0.02302074 27.34060001 -0.02680683 C33.56221211 -0.03474987 39.78381024 -0.0378624 46.00542694 -0.03841921 C51.06021259 -0.0388936 56.11499511 -0.04094448 61.16977978 -0.04411983 C75.48616175 -0.05293081 89.80253621 -0.05753852 104.11892091 -0.05678936 C104.89146192 -0.0567494 105.66400292 -0.05670945 106.45995426 -0.05666828 C107.23343337 -0.0566274 108.00691247 -0.05658652 108.80383033 -0.0565444 C121.34425658 -0.0561378 133.88465283 -0.06570981 146.4250704 -0.07980665 C159.286915 -0.09415127 172.14874495 -0.10107789 185.01059777 -0.10021287 C192.2374117 -0.09988024 199.46419418 -0.10265617 206.69100094 -0.11339092 C213.4846055 -0.12341713 220.2781324 -0.12318021 227.07174397 -0.11587429 C229.5719821 -0.11482319 232.07222428 -0.11722214 234.57245541 -0.12323475 C237.972123 -0.13088385 241.37155622 -0.12635721 244.7712183 -0.11860371 C245.77246611 -0.12374727 246.77371391 -0.12889083 247.80530256 -0.13419026 C248.71086741 -0.12959147 249.61643227 -0.12499267 250.54943848 -0.12025452 C251.33491749 -0.12047188 252.1203965 -0.12068925 252.9296779 -0.12091321 C254.83763981 0.12863445 254.83763981 0.12863445 256.83763981 2.12863445 C257.08373547 4.84227467 257.08373547 4.84227467 257.07814884 8.3674345 C257.0807169 9.33545498 257.0807169 9.33545498 257.08333683 10.32303143 C257.08665901 12.50199554 257.0755814 14.68065526 257.06469059 16.85959148 C257.06407822 18.44177967 257.0643444 20.02396841 257.0654211 21.60615635 C257.06587369 25.85341591 257.0542597 30.10056339 257.04020023 34.34779644 C257.02883277 38.32935227 257.02827522 42.31088046 257.02684879 46.29245281 C257.01634302 57.94619494 256.98842086 69.5999161 256.96263981 81.25363445 C256.92138981 107.28238445 256.88013981 133.31113445 256.83763981 160.12863445 C170.37763981 160.12863445 83.91763981 160.12863445 -5.16236019 160.12863445 C-5.18298519 133.91425945 -5.20361019 107.69988445 -5.22486019 80.69113445 C-5.2339642 72.39932049 -5.2430682 64.10750652 -5.25244808 55.56442547 C-5.25696468 45.47616863 -5.25696468 45.47616863 -5.25780392 40.7605772 C-5.25873944 37.45144773 -5.26250221 34.14233413 -5.26793575 30.83320904 C-5.27476231 26.62032118 -5.27685742 22.40745662 -5.27543247 18.19456375 C-5.27573071 16.64337022 -5.27773277 15.09217593 -5.28157532 13.54098713 C-5.28650355 11.45567595 -5.28536704 9.37045688 -5.28261471 7.28514385 C-5.2835365 6.11354497 -5.28445829 4.94194609 -5.28540802 3.73484421 C-5.08762477 -0.45429633 -3.78151397 0.003392 0 0 Z " fill="#010202" transform="translate(114.16236019134521,43.871365547180176)"/>
<path d="M0 0 C0.90295711 -0.00322445 1.80591421 -0.00644889 2.73623365 -0.00977105 C4.24145144 -0.00744815 4.24145144 -0.00744815 5.77707767 -0.00507832 C7.36270271 -0.00847665 7.36270271 -0.00847665 8.98036057 -0.01194364 C12.55185708 -0.01831569 16.12331595 -0.01745223 19.69481754 -0.01662922 C22.2434122 -0.01961871 24.79200641 -0.02302074 27.34060001 -0.02680683 C33.56221211 -0.03474987 39.78381024 -0.0378624 46.00542694 -0.03841921 C51.06021259 -0.0388936 56.11499511 -0.04094448 61.16977978 -0.04411983 C75.48616175 -0.05293081 89.80253621 -0.05753852 104.11892091 -0.05678936 C104.89146192 -0.0567494 105.66400292 -0.05670945 106.45995426 -0.05666828 C107.23343337 -0.0566274 108.00691247 -0.05658652 108.80383033 -0.0565444 C121.34425658 -0.0561378 133.88465283 -0.06570981 146.4250704 -0.07980665 C159.286915 -0.09415127 172.14874495 -0.10107789 185.01059777 -0.10021287 C192.2374117 -0.09988024 199.46419418 -0.10265617 206.69100094 -0.11339092 C213.4846055 -0.12341713 220.2781324 -0.12318021 227.07174397 -0.11587429 C229.5719821 -0.11482319 232.07222428 -0.11722214 234.57245541 -0.12323475 C237.972123 -0.13088385 241.37155622 -0.12635721 244.7712183 -0.11860371 C245.77246611 -0.12374727 246.77371391 -0.12889083 247.80530256 -0.13419026 C248.71086741 -0.12959147 249.61643227 -0.12499267 250.54943848 -0.12025452 C251.33491749 -0.12047188 252.1203965 -0.12068925 252.9296779 -0.12091321 C254.83763981 0.12863445 254.83763981 0.12863445 256.83763981 2.12863445 C257.08373547 4.84227467 257.08373547 4.84227467 257.07814884 8.3674345 C257.08071212 9.33779969 257.08071212 9.33779969 257.08332717 10.32776821 C257.08663318 12.50515374 257.07560044 14.68223413 257.06469059 16.85959148 C257.06412671 18.41651687 257.06444257 19.97344278 257.0655756 21.53036785 C257.06615104 25.7656978 257.0543659 30.00091521 257.04042768 34.23621893 C257.02795209 38.65916312 257.02675234 43.0821097 257.02437687 47.50506878 C257.01815275 55.88444501 257.00172937 64.26376925 256.98167789 72.64312255 C256.95934783 82.18106965 256.94833275 91.71901919 256.93828702 101.2569859 C256.91736392 120.88089781 256.88216989 140.50476286 256.83763981 160.12863445 C256.50763981 160.12863445 256.17763981 160.12863445 255.83763981 160.12863445 C255.83763981 111.94863445 255.83763981 63.76863445 255.83763981 14.12863445 C177.29763981 14.12863445 98.75763981 14.12863445 17.83763981 14.12863445 C17.83763981 62.30863445 17.83763981 110.48863445 17.83763981 160.12863445 C10.24763981 160.12863445 2.65763981 160.12863445 -5.16236019 160.12863445 C-5.18547734 139.41488188 -5.20333847 118.7011324 -5.21417236 97.98736954 C-5.21933571 88.3703095 -5.22637914 78.75325762 -5.23779964 69.13620281 C-5.24774531 60.75712276 -5.25421334 52.37804861 -5.25644869 43.99896282 C-5.25775599 39.5594732 -5.26084311 35.12000047 -5.26809025 30.68051624 C-5.27484861 26.50686172 -5.27697753 22.33323112 -5.27546787 18.15957165 C-5.27574428 16.62322326 -5.2777505 15.08687411 -5.28156567 13.55053043 C-5.28650006 11.46203828 -5.28535944 9.37363788 -5.28261471 7.28514385 C-5.2835365 6.11354497 -5.28445829 4.94194609 -5.28540802 3.73484421 C-5.08762477 -0.45429633 -3.78151397 0.003392 0 0 Z " fill="#49494B" transform="translate(114.16236019134521,43.871365547180176)"/>
<path d="M0 0 C0.92933192 -0.00583219 1.85866385 -0.01166439 2.81615734 -0.01767331 C3.84395967 -0.01389399 4.87176199 -0.01011467 5.93070984 -0.00622082 C7.56049381 -0.01195914 7.56049381 -0.01195914 9.22320271 -0.01781338 C12.88836729 -0.02818743 16.55337649 -0.0241429 20.21855164 -0.02018261 C22.83625942 -0.02452662 25.45396593 -0.02970871 28.07167053 -0.03567028 C34.45825502 -0.04844351 40.84479751 -0.05020775 47.23139262 -0.04787002 C52.4201204 -0.04608976 57.6088354 -0.0478302 62.79756165 -0.05209446 C63.53495931 -0.05268965 64.27235697 -0.05328484 65.03210002 -0.05389806 C66.52992749 -0.05510976 68.02775496 -0.0563239 69.52558243 -0.05754044 C83.58351138 -0.06842591 97.64141636 -0.06624862 111.69934666 -0.06015559 C124.57275275 -0.0549845 137.44608321 -0.06624514 150.31947434 -0.08525381 C163.52487941 -0.1046039 176.73024865 -0.11289326 189.93566799 -0.10913056 C197.35474574 -0.10721434 204.77375909 -0.10974695 212.19282532 -0.1238451 C219.16622113 -0.13696182 226.1394626 -0.13453748 233.11285782 -0.12143421 C235.67921117 -0.1190556 238.24557503 -0.1218486 240.81191635 -0.13005733 C244.30140123 -0.14041815 247.7903656 -0.13251037 251.27983093 -0.11974621 C252.30763326 -0.12712049 253.33543558 -0.13449478 254.39438343 -0.14209253 C255.32371535 -0.13488598 256.25304728 -0.12767944 257.21054077 -0.12025452 C258.01674205 -0.12030953 258.82294333 -0.12036455 259.65357494 -0.12042123 C260.29763444 0.00329472 260.94169394 0.12701067 261.60527039 0.25447559 C264.01701753 3.87209631 263.85239585 5.49936362 263.84577942 9.80334949 C263.84834269 10.80562296 263.84834269 10.80562296 263.85095775 11.82814437 C263.85425719 14.0715188 263.8432417 16.31459543 263.83232117 18.55794239 C263.83175715 20.16427573 263.83207343 21.77060959 263.83320618 23.37694263 C263.83378106 27.74237322 263.82200479 32.10769437 263.80805826 36.47309947 C263.79557353 41.03350476 263.79438219 45.59391242 263.79200745 50.15433216 C263.78578603 58.79221093 263.76936627 67.4300392 263.74930847 76.06789571 C263.72697003 85.90090291 263.71596121 95.7339125 263.7059176 105.56693876 C263.68500062 125.79614591 263.6498118 146.02530757 263.60527039 166.25447559 C266.90527039 166.25447559 270.20527039 166.25447559 273.60527039 166.25447559 C273.18951977 171.10489948 271.1886706 173.09767064 267.60527039 176.25447559 C264.42276742 178.37614424 263.64874979 178.50549839 260.00496197 178.5117445 C258.58032714 178.52141784 258.58032714 178.52141784 257.12691182 178.5312866 C256.08140513 178.52818939 255.03589843 178.52509219 253.95870972 178.52190113 C252.8496536 178.52643224 251.74059747 178.53096336 250.59793359 178.53563178 C246.86230035 178.54834468 243.12681161 178.54665096 239.39115906 178.54500294 C236.72067721 178.55098391 234.05020688 178.55773137 231.37973022 178.56535816 C224.86694905 178.58198525 218.35420407 178.58746849 211.84140345 178.58858292 C206.54785169 178.58953267 201.2543119 178.59363932 195.96076393 178.59998417 C180.95706856 178.61760194 165.95340182 178.62682231 150.94969603 178.62532322 C150.14050578 178.62524331 149.33131553 178.6251634 148.49760437 178.62508106 C147.28233909 178.62495842 147.28233909 178.62495842 146.042523 178.6248333 C132.91320258 178.62402045 119.7839969 178.64315648 106.65470966 178.6713578 C93.17804963 178.7000771 79.70144557 178.71389859 66.22475415 178.71217024 C58.65686883 178.71150597 51.08910375 178.71701455 43.52124596 178.73852634 C37.07729586 178.75672574 30.6335205 178.76109588 24.18955585 178.7475075 C20.90164277 178.74097113 17.61413517 178.74305201 14.32624054 178.758214 C10.76145262 178.77359013 7.19755008 178.76440769 3.63278198 178.74895191 C2.59396745 178.75923904 1.55515293 178.76952616 0.48485917 178.78012502 C-5.47260811 178.72290331 -8.83646263 178.18592981 -13.39472961 174.25447559 C-16.24574437 171.21339319 -16.39472961 170.6288644 -16.39472961 166.25447559 C-13.09472961 166.25447559 -9.79472961 166.25447559 -6.39472961 166.25447559 C-6.3965732 165.41110708 -6.39841679 164.56773857 -6.40031624 163.69881344 C-6.44443516 143.20230729 -6.47755685 122.7058093 -6.49835396 102.20926571 C-6.50867793 92.29739778 -6.5227596 82.3855615 -6.54560852 72.47371387 C-6.56550817 63.83716145 -6.57843789 55.20063194 -6.5829066 46.56405723 C-6.58551981 41.98869833 -6.59168509 37.41340499 -6.60618973 32.83806705 C-6.6197196 28.5355294 -6.62396162 24.23308459 -6.62094498 19.93052769 C-6.62149721 18.34783137 -6.62550194 16.76513209 -6.63314056 15.18245411 C-6.64303013 13.02853995 -6.64072072 10.8749805 -6.63523865 8.72105885 C-6.63708223 7.51351004 -6.63892582 6.30596123 -6.64082527 5.06182003 C-6.22809883 0.3536293 -4.2371501 0.00455552 0 0 Z M-2.39472961 5.25447559 C-2.49153003 7.30475298 -2.51659905 9.35842438 -2.51498413 11.41098499 C-2.51584015 12.0595496 -2.51669617 12.7081142 -2.51757812 13.37633228 C-2.51924281 15.57215021 -2.51369439 17.76789307 -2.508255 19.96370411 C-2.5079489 21.55578293 -2.50808177 23.14786189 -2.50862026 24.73994064 C-2.50884679 29.01830323 -2.50303484 33.29663807 -2.49600983 37.57499409 C-2.49033106 41.58400024 -2.49004759 45.59299952 -2.48933411 49.60200977 C-2.48407875 61.34033542 -2.47011771 73.07865585 -2.45722961 84.81697559 C-2.43660461 111.03135059 -2.41597961 137.24572559 -2.39472961 164.25447559 C84.06527039 164.25447559 170.52527039 164.25447559 259.60527039 164.25447559 C259.64652039 138.22572559 259.68777039 112.19697559 259.73027039 85.37947559 C259.74847839 77.14897266 259.7666864 68.91846973 259.78544617 60.43855762 C259.79213342 53.08588207 259.79213342 53.08588207 259.79615784 45.73320484 C259.79802749 42.44826547 259.80554755 39.1633902 259.81642151 35.87846851 C259.83008891 31.69457294 259.83426217 27.51077125 259.83141494 23.32685542 C259.83201074 21.78747431 259.83600657 20.24809008 259.84370065 18.70872808 C259.85357953 16.63678997 259.85127607 14.5652214 259.84577942 12.49327564 C259.847623 11.3299729 259.84946659 10.16667015 259.85136604 8.96811581 C259.88381217 6.10611568 259.88381217 6.10611568 257.60527039 4.25447559 C255.62465418 3.95339101 255.62465418 3.95339101 253.31706905 4.00558662 C252.4115042 4.00098783 251.50593935 3.99638903 250.57293314 3.99165088 C249.07106143 3.99936622 249.07106143 3.99936622 247.53884888 4.00723743 C245.95088386 4.00361581 245.95088386 4.00361581 244.33083874 3.99992102 C240.7600637 3.99425556 237.18946531 4.00296861 233.61869812 4.01155567 C231.06833345 4.0104835 228.51796901 4.0085458 225.96760559 4.00580311 C219.74577634 4.00144704 213.52401338 4.00641147 207.30219131 4.01565341 C200.06344904 4.02602076 192.82471835 4.02596767 185.58597005 4.02548083 C172.67483042 4.02497986 159.76371554 4.03415148 146.85258484 4.04866505 C134.31091359 4.06275609 121.76926412 4.06983572 109.22758484 4.06917286 C108.45504383 4.0691329 107.68250283 4.06909295 106.88655149 4.06905178 C105.72978556 4.06899125 105.72978556 4.06899125 104.54965061 4.06892949 C90.28983524 4.06824043 76.03002917 4.07412488 61.7702168 4.08308271 C56.71868222 4.0861046 51.66714933 4.08716292 46.61561394 4.08761501 C39.82365342 4.08836662 33.03171916 4.09469129 26.23976517 4.10478115 C23.73910857 4.10771441 21.23844931 4.10892986 18.73779106 4.10835361 C15.34007184 4.10786673 11.94241836 4.1134808 8.54470825 4.12076283 C7.03949046 4.11843992 7.03949046 4.11843992 5.50386423 4.11607009 C4.14942857 4.12090676 4.14942857 4.12090676 2.76763058 4.12584114 C1.98231392 4.12654557 1.19699726 4.12724999 0.38788313 4.12797576 C-1.41922941 4.06054859 -1.41922941 4.06054859 -2.39472961 5.25447559 Z " fill="#E5EDE8" transform="translate(111.39472961425781,39.745524406433105)"/>
<path d="M0 0 C7.59 0 15.18 0 23 0 C23 48.18 23 96.36 23 146 C15.41 146 7.82 146 0 146 C0 97.82 0 49.64 0 0 Z " fill="#2E2E2F" transform="translate(109,58)"/>
<path d="M0 0 C2.3484853 0.00028308 4.69697068 0.0001218 7.04545593 -0.0004425 C13.33303915 -0.00072578 19.62060272 0.00509401 25.90818143 0.01213145 C31.83996051 0.01780192 37.77173898 0.01875957 43.70352041 0.01978333 C55.43060578 0.02195676 67.15768408 0.02856984 78.88476562 0.03808594 C90.25748663 0.04730472 101.63020569 0.05436353 113.00292969 0.05859375 C113.70726655 0.05885647 114.41160341 0.0591192 115.13728381 0.05938988 C118.6717269 0.06069519 122.20616999 0.06195883 125.7406131 0.06320179 C154.93181632 0.07352106 184.12301255 0.09116788 213.31420898 0.11352539 C213.64420898 1.10352539 213.97420898 2.09352539 214.31420898 3.11352539 C216.62420898 3.11352539 218.93420898 3.11352539 221.31420898 3.11352539 C221.31420898 7.11352539 221.31420898 7.11352539 220.0637998 8.82102638 C214.65172392 12.81916277 204.63673636 11.25248295 198.2094574 11.23377991 C196.58083593 11.23506154 196.58083593 11.23506154 194.91931301 11.23636907 C191.29889345 11.2380098 187.67852073 11.23252561 184.05810547 11.22705078 C181.45582582 11.22676858 178.85354609 11.22692729 176.25126648 11.22749329 C170.65781105 11.22801626 165.06436733 11.22489317 159.47091484 11.21925545 C151.38383843 11.2111097 143.29676766 11.20852208 135.2096876 11.20726746 C122.08721691 11.20508176 108.96475246 11.19843477 95.84228516 11.18896484 C83.09912141 11.17977823 70.35595936 11.17270351 57.61279297 11.16845703 C56.82659065 11.16819431 56.04038833 11.16793158 55.23036169 11.1676609 C51.2860026 11.16635581 47.3416435 11.16509212 43.39728439 11.163849 C10.70292138 11.15349142 -21.99143398 11.13588624 -54.68579102 11.11352539 C-54.68579102 10.12352539 -54.68579102 9.13352539 -54.68579102 8.11352539 C-56.00579102 8.11352539 -57.32579102 8.11352539 -58.68579102 8.11352539 C-58.68579102 7.45352539 -58.68579102 6.79352539 -58.68579102 6.11352539 C-59.67579102 5.78352539 -60.66579102 5.45352539 -61.68579102 5.11352539 C-61.68579102 4.45352539 -61.68579102 3.79352539 -61.68579102 3.11352539 C-60.10797852 2.89696289 -60.10797852 2.89696289 -58.49829102 2.67602539 C-56.41244881 2.36827818 -54.3277235 2.03723837 -52.26558298 1.59789509 C-49.6776386 1.11199473 -47.22605236 0.91046497 -44.59661961 0.80111027 C-43.61247749 0.75971926 -42.62833537 0.71832825 -41.61437076 0.67568296 C-40.55895889 0.63688742 -39.50354701 0.59809189 -38.41615295 0.55812073 C-36.7516408 0.49488927 -36.7516408 0.49488927 -35.05350214 0.4303804 C-23.36797773 0.01849568 -11.69139321 -0.02018295 0 0 Z " fill="#F9FCFB" transform="translate(158.685791015625,204.886474609375)"/>
<path d="M0 0 C3.55444388 2.08808915 6.67377283 4.54833331 9.8046875 7.22265625 C12.57110365 9.56314552 15.43414746 11.70090716 18.3671875 13.828125 C19.7284375 14.81619141 19.7284375 14.81619141 21.1171875 15.82421875 C25.73114083 19.03636334 29.85305541 18.99524475 35.3671875 18.390625 C38.24419911 17.35822798 40.75148921 15.95547507 43.3671875 14.390625 C44.07617188 14.060625 44.78515625 13.730625 45.515625 13.390625 C47.85938308 12.12479785 48.39598363 10.81863468 49.3671875 8.390625 C50.3671875 10.390625 50.3671875 10.390625 49.6171875 12.9296875 C45.89310552 22.12351488 41.81551784 29.33040368 32.5546875 33.6015625 C22.57371667 37.20184126 10.14891343 38.60371995 -0.0703125 34.890625 C-7.20180867 31.42324238 -13.50644955 26.34976156 -19.3828125 21.078125 C-24.46107202 16.66172395 -29.66401621 14.78047625 -36.36328125 15.04296875 C-41.89498275 15.89033783 -46.0481516 18.39139214 -49.6328125 22.640625 C-50.2928125 23.548125 -50.9528125 24.455625 -51.6328125 25.390625 C-52.79761856 22.55013304 -52.66622109 21.47894516 -51.55859375 18.55078125 C-51.02621094 17.52855469 -50.49382812 16.50632812 -49.9453125 15.453125 C-49.16607422 13.92365234 -49.16607422 13.92365234 -48.37109375 12.36328125 C-38.77649336 -4.04456347 -16.7485524 -7.40901695 0 0 Z " fill="#17BAB6" transform="translate(254.6328125,91.609375)"/>
<path d="M0 0 C1.44898682 0.0158313 1.44898682 0.0158313 2.92724609 0.03198242 C15.87749571 0.46467465 23.55290678 6.37202821 32.43359375 15.13671875 C37.52780535 19.84646155 41.57657418 21.20753814 48.3125 22 C55.92123134 21.2516002 62.20275593 17.36761808 67.125 11.625 C65.56420165 21.45802961 61.20502931 28.85185703 53.43359375 35.18359375 C44.25367554 40.91521781 31.62736146 40.85489532 21.265625 39.15625 C11.61058419 36.6375437 4.6394775 30.45233411 -2.41796875 23.67578125 C-7.56919885 19.37626487 -11.85915038 18.11940887 -18.4140625 18.3359375 C-25.12420248 19.12411267 -30.47586202 22.64675975 -34.6875 27.875 C-35.079375 28.4525 -35.47125 29.03 -35.875 29.625 C-34.80213127 21.32568213 -31.28640426 13.41147094 -25.125 7.625 C-17.43675157 1.8207222 -9.51996819 -0.11609717 0 0 Z " fill="#19B4B7" transform="translate(204.875,132.375)"/>
<path d="M0 0 C0.33 0 0.66 0 1 0 C1 53.79 1 107.58 1 163 C4.3 163 7.6 163 11 163 C10.58424938 167.85042388 8.58340022 169.84319505 5 173 C1.81749703 175.12166865 1.04347941 175.2510228 -2.60030842 175.25726891 C-4.02494324 175.26694224 -4.02494324 175.26694224 -5.47835857 175.276811 C-6.52386526 175.2737138 -7.56937195 175.2706166 -8.64656067 175.26742554 C-9.75561679 175.27195665 -10.86467291 175.27648776 -12.0073368 175.28115618 C-15.74297004 175.29386909 -19.47845878 175.29217537 -23.21411133 175.29052734 C-25.88459318 175.29650832 -28.5550635 175.30325578 -31.22554016 175.31088257 C-37.73832134 175.32750965 -44.25106632 175.3329929 -50.76386694 175.33410732 C-56.05741869 175.33505708 -61.35095848 175.33916372 -66.64450645 175.34550858 C-81.64820183 175.36312635 -96.65186857 175.37234671 -111.65557436 175.37084763 C-112.46476461 175.37076772 -113.27395485 175.3706878 -114.10766602 175.37060547 C-115.32293129 175.37048283 -115.32293129 175.37048283 -116.56274738 175.37035771 C-129.69206781 175.36954485 -142.82127349 175.38868089 -155.95056073 175.4168822 C-169.42722076 175.44560151 -182.90382482 175.459423 -196.38051623 175.45769465 C-203.94840156 175.45703037 -211.51616664 175.46253895 -219.08402443 175.48405075 C-225.52797453 175.50225015 -231.97174989 175.50662029 -238.41571454 175.4930319 C-241.70362762 175.48649554 -244.99113522 175.48857642 -248.27902985 175.5037384 C-251.84381777 175.51911454 -255.40772031 175.5099321 -258.9724884 175.49447632 C-260.01130293 175.50476344 -261.05011746 175.51505057 -262.12041122 175.52564943 C-268.0778785 175.46842772 -271.44173302 174.93145422 -276 171 C-278.85101475 167.9589176 -279 167.3743888 -279 163 C-275.7 163 -272.4 163 -269 163 C-269.495 163.99 -269.495 163.99 -270 165 C-272.31 165 -274.62 165 -277 165 C-276.505 165.45375 -276.01 165.9075 -275.5 166.375 C-274 168 -274 168 -274 170 C-272.68 170 -271.36 170 -270 170 C-270 170.99 -270 171.98 -270 173 C-134.865 172.505 -134.865 172.505 3 172 C3.33 171.01 3.66 170.02 4 169 C4.66 169 5.32 169 6 169 C6 167.68 6 166.36 6 165 C3.69 165 1.38 165 -1 165 C-1.33 164.34 -1.66 163.68 -2 163 C-132.185 162.505 -132.185 162.505 -265 162 C-265 161.67 -265 161.34 -265 161 C-178.54 161 -92.08 161 -3 161 C-3 160.34 -3 159.68 -3 159 C-2.01 159 -1.02 159 0 159 C0 106.53 0 54.06 0 0 Z " fill="#C2E4D4" transform="translate(374,43)"/>
<path d="M0 0 C1.16593127 0.00056958 1.16593127 0.00056958 2.35541672 0.00115067 C3.24915703 -0.00084038 4.14289735 -0.00283143 5.0637207 -0.00488281 C6.05689063 -0.00196997 7.05006055 0.00094287 8.07332653 0.00394398 C9.11957036 0.00308955 10.16581419 0.00223513 11.24376237 0.00135481 C14.77847435 -0.00030311 18.31313973 0.00522648 21.8478474 0.01067311 C24.37013031 0.01095494 26.8924133 0.01079733 29.41469616 0.0102306 C34.859873 0.01000228 40.30503461 0.01285376 45.75020832 0.01846844 C53.62310002 0.02658115 61.49598591 0.02919842 69.36888134 0.03045643 C82.14084466 0.03264731 94.91280161 0.03930838 107.68476146 0.04875904 C120.09459187 0.05793223 132.50442054 0.06501352 144.91425365 0.06926686 C145.6786618 0.06952958 146.44306994 0.0697923 147.23064197 0.07006299 C151.06529356 0.07136799 154.89994517 0.0726317 158.73459679 0.07387489 C190.5678432 0.08424863 222.40108162 0.10194204 254.23432201 0.1241985 C254.23432201 0.4541985 254.23432201 0.7841985 254.23432201 1.1241985 C175.69432201 1.1241985 97.15432201 1.1241985 16.23432201 1.1241985 C16.23432201 2.1141985 16.23432201 3.1041985 16.23432201 4.1241985 C16.89432201 4.1241985 17.55432201 4.1241985 18.23432201 4.1241985 C17.35932201 9.8741985 17.35932201 9.8741985 16.23432201 12.1241985 C136.02432201 12.6191985 136.02432201 12.6191985 258.23432201 13.1241985 C258.23432201 13.4541985 258.23432201 13.7841985 258.23432201 14.1241985 C172.10432201 14.1241985 85.97432201 14.1241985 -2.76567799 14.1241985 C-2.76567799 0.1945389 -2.76567799 0.1945389 0 0 Z M19.23432201 10.1241985 C20.22432201 10.4541985 21.21432201 10.7841985 22.23432201 11.1241985 C20.91432201 11.4541985 19.59432201 11.7841985 18.23432201 12.1241985 C18.56432201 11.4641985 18.89432201 10.8041985 19.23432201 10.1241985 Z " fill="#3D3E40" transform="translate(111.7656779885292,43.875801503658295)"/>
<path d="M0 0 C21.78 0 43.56 0 66 0 C65.67 0.66 65.34 1.32 65 2 C64.13834229 1.98428955 64.13834229 1.98428955 63.25927734 1.96826172 C60.63123023 1.92642901 58.00325346 1.900588 55.375 1.875 C54.47136719 1.85824219 53.56773437 1.84148437 52.63671875 1.82421875 C47.67249848 1.78798357 43.65588093 2.03555854 39 4 C39 4.99 39 5.98 39 7 C39.66 6.34 40.32 5.68 41 5 C41.99 5.33 42.98 5.66 44 6 C38.6479819 11.66684269 33.478338 15.9819261 25.5 16.5 C15.38830135 16.38225096 6.76337685 7.84687533 0 1 C0 0.67 0 0.34 0 0 Z " fill="#030504" transform="translate(260,95)"/>
<path d="M0 0 C7.36897044 -0.0252908 14.73792974 -0.04284179 22.10693359 -0.05493164 C24.61540139 -0.05997003 27.12386624 -0.06680084 29.63232422 -0.07543945 C33.2314527 -0.08752661 36.83054247 -0.09323315 40.4296875 -0.09765625 C42.12035843 -0.10539818 42.12035843 -0.10539818 43.84518433 -0.11329651 C44.88611237 -0.11337204 45.92704041 -0.11344757 46.99951172 -0.11352539 C47.91884491 -0.115746 48.8381781 -0.11796661 49.78536987 -0.12025452 C52 0 52 0 54 1 C54 1.66 54 2.32 54 3 C118.68 3 183.36 3 250 3 C250.33 3.66 250.66 4.32 251 5 C165.2 5 79.4 5 -9 5 C-9 4.67 -9 4.34 -9 4 C-4.545 3.505 -4.545 3.505 0 3 C0 2.01 0 1.02 0 0 Z " fill="#2EA85A" transform="translate(121,33)"/>
<path d="M0 0 C2.625 0.375 2.625 0.375 5 1 C4.83890747 1.71928177 4.67781494 2.43856354 4.51184082 3.17964172 C4.020033 5.88961366 3.85009804 8.3756386 3.81054688 11.12573242 C3.79382935 12.11993698 3.77711182 13.11414154 3.7598877 14.13847351 C3.74631226 15.20008194 3.73273682 16.26169037 3.71875 17.35546875 C3.70034058 18.45345291 3.68193115 19.55143707 3.66296387 20.68269348 C3.5843589 25.37552258 3.51635823 30.06849026 3.44775391 34.76147461 C3.39613101 38.18871375 3.33886202 41.61582592 3.28125 45.04296875 C3.26767456 46.11064987 3.25409912 47.17833099 3.2401123 48.27836609 C3.22339478 49.26311417 3.20667725 50.24786224 3.18945312 51.26245117 C3.17066101 52.56553474 3.17066101 52.56553474 3.15148926 53.89494324 C3 56 3 56 2 58 C-7.24 58 -16.48 58 -26 58 C-26 61.63 -26 65.26 -26 69 C-25.21761963 68.99476318 -24.43523926 68.98952637 -23.62915039 68.98413086 C-20.10694167 68.96342894 -16.5847457 68.95036162 -13.0625 68.9375 C-11.83080078 68.92912109 -10.59910156 68.92074219 -9.33007812 68.91210938 C-8.16025391 68.90888672 -6.99042969 68.90566406 -5.78515625 68.90234375 C-4.15912476 68.89448853 -4.15912476 68.89448853 -2.50024414 68.88647461 C0 69 0 69 1 70 C1.09295815 71.44289787 1.11746513 72.89029785 1.11352539 74.33618164 C1.11344986 75.2570607 1.11337433 76.17793976 1.11329651 77.12672424 C1.10813522 78.12775681 1.10297394 79.12878937 1.09765625 80.16015625 C1.0962413 81.17975937 1.09482635 82.19936249 1.09336853 83.24986267 C1.08775097 86.52077107 1.0751955 89.79161213 1.0625 93.0625 C1.05748726 95.27408756 1.05292396 97.48567618 1.04882812 99.69726562 C1.03777584 105.13153357 1.02102063 110.56576197 1 116 C2.485 116.495 2.485 116.495 4 117 C3.67 118.32 3.34 119.64 3 121 C0.525 121.495 0.525 121.495 -2 122 C-2.38218767 120.34385343 -2.71395102 118.67542976 -3 117 C-2.67 116.67 -2.34 116.34 -2 116 C-1.87778475 114.55815707 -1.82227242 113.11056856 -1.79467773 111.66381836 C-1.77473251 110.7429393 -1.75478729 109.82206024 -1.73423767 108.87327576 C-1.71752518 107.87224319 -1.70081268 106.87121063 -1.68359375 105.83984375 C-1.66281265 104.82024063 -1.64203156 103.80063751 -1.62062073 102.75013733 C-1.55501148 99.47932952 -1.49618766 96.20843863 -1.4375 92.9375 C-1.39432558 90.72590272 -1.35071166 88.51431397 -1.30664062 86.30273438 C-1.19848797 80.86857363 -1.09949927 75.43435376 -1 70 C-9.25 70 -17.5 70 -26 70 C-26 76.27 -26 82.54 -26 89 C-26.33 89 -26.66 89 -27 89 C-27 78.44 -27 67.88 -27 57 C-24.28598706 55.64299353 -22.15153684 55.8876139 -19.1171875 55.90234375 C-18.06644043 55.90484131 -17.01569336 55.90733887 -15.93310547 55.90991211 C-13.92434326 55.92356812 -13.92434326 55.92356812 -11.875 55.9375 C-7.62625 55.958125 -3.3775 55.97875 1 56 C1 39.5 1 23 1 6 C0.34 6 -0.32 6 -1 6 C-1.625 4.125 -1.625 4.125 -2 2 C-1.34 1.34 -0.68 0.68 0 0 Z " fill="#71DB91" transform="translate(443,63)"/>
<path d="M0 0 C0.51046875 0.32669678 1.0209375 0.65339355 1.546875 0.98999023 C4.87806961 2.36152209 7.65247491 2.2069617 11.25 2.16015625 C12.29269043 2.1523539 12.29269043 2.1523539 13.35644531 2.14439392 C15.57117953 2.12663291 17.78544422 2.09547762 20 2.0625 C22.21450986 2.03481863 24.42895101 2.01010322 26.64355469 1.99131775 C28.65306368 1.97351503 30.66248075 1.94610725 32.671875 1.91821289 C35.38774804 1.9849542 37.4237872 2.28103089 40 3 C42.18703385 2.62092718 42.18703385 2.62092718 44 2 C42.16761255 7.49716234 36.94850641 10.66441462 32 13.375 C27.15087407 15.62169927 23.10234632 15.51486032 17.9375 14.25 C10.96641189 11.28357953 5.39081054 6.23507601 0 1 C0 0.67 0 0.34 0 0 Z " fill="#040103" transform="translate(229,140)"/>
<path d="M0 0 C10.90280172 6.40716595 10.90280172 6.40716595 13.40625 11.4140625 C9.55124441 10.86334742 8.09231223 9.10012473 5.40625 6.4140625 C3.29344655 5.78113867 3.29344655 5.78113867 1.40625 5.4140625 C0.91125 4.4240625 0.91125 4.4240625 0.40625 3.4140625 C-1.48139903 2.72933585 -1.48139903 2.72933585 -3.65625 2.2890625 C-4.38972656 2.12148437 -5.12320313 1.95390625 -5.87890625 1.78125 C-6.44480469 1.66007812 -7.01070312 1.53890625 -7.59375 1.4140625 C-7.59375 0.7540625 -7.59375 0.0940625 -7.59375 -0.5859375 C-8.563125 -0.2353125 -9.5325 0.1153125 -10.53125 0.4765625 C-14.45490212 1.63764323 -17.69202438 1.22091184 -21.67578125 0.5078125 C-22.30871094 0.476875 -22.94164062 0.4459375 -23.59375 0.4140625 C-24.25375 1.0740625 -24.91375 1.7340625 -25.59375 2.4140625 C-28.1953125 2.828125 -28.1953125 2.828125 -31.21875 3.0390625 C-32.22164062 3.11382812 -33.22453125 3.18859375 -34.2578125 3.265625 C-35.41410156 3.33910156 -35.41410156 3.33910156 -36.59375 3.4140625 C-36.92375 4.4040625 -37.25375 5.3940625 -37.59375 6.4140625 C-38.58375 6.7440625 -39.57375 7.0740625 -40.59375 7.4140625 C-40.92375 8.4040625 -41.25375 9.3940625 -41.59375 10.4140625 C-38.27618229 10.99463685 -35.01177229 11.46948895 -31.65625 11.7890625 C-27.6052189 12.26746998 -24.32004838 13.75792989 -20.59375 15.4140625 C-18.60553687 15.81170513 -16.60642638 16.16861416 -14.59375 16.4140625 C-15.58375 16.9090625 -15.58375 16.9090625 -16.59375 17.4140625 C-16.59375 18.4040625 -16.59375 19.3940625 -16.59375 20.4140625 C-15.93375 20.7440625 -15.27375 21.0740625 -14.59375 21.4140625 C-15.25375 22.0740625 -15.91375 22.7340625 -16.59375 23.4140625 C-17.11324219 23.00414063 -17.63273437 22.59421875 -18.16796875 22.171875 C-24.15449325 17.54642723 -28.53803335 14.89614825 -36.25390625 15.1015625 C-41.82269647 15.84530744 -46.00262101 18.4071624 -49.59375 22.6640625 C-50.25375 23.5715625 -50.91375 24.4790625 -51.59375 25.4140625 C-52.75855606 22.57357054 -52.62715859 21.50238266 -51.51953125 18.57421875 C-50.98714844 17.55199219 -50.45476562 16.52976562 -49.90625 15.4765625 C-49.12701172 13.94708984 -49.12701172 13.94708984 -48.33203125 12.38671875 C-38.74098785 -4.01504311 -16.75275531 -7.36909174 0 0 Z " fill="#24A4B2" transform="translate(254.59375,91.5859375)"/>
<path d="M0 0 C2.73707131 2.73707131 2.25976948 4.25274246 2.2784729 8.08694458 C2.29521812 10.03473816 2.29521812 10.03473816 2.31230164 12.0218811 C2.31466684 13.46917696 2.31684245 14.91647313 2.31884766 16.36376953 C2.32814147 17.88129209 2.33830932 19.39880951 2.34928894 20.9163208 C2.37666475 25.04415897 2.3917607 29.17196287 2.40471697 33.29986811 C2.42031447 37.61074933 2.44711538 41.92156022 2.4727478 46.23239136 C2.51959565 54.39922043 2.55631062 62.56606266 2.58942068 70.73295772 C2.62759972 80.0291221 2.67702086 89.32521596 2.72740483 98.62132096 C2.83081397 117.74749574 2.92004507 136.87371352 3 156 C2.01 156 1.02 156 0 156 C0 104.52 0 53.04 0 0 Z " fill="#F9FBF6" transform="translate(371,46)"/>
<path d="M0 0 C2.03125 1.60546875 2.03125 1.60546875 4.03125 4.60546875 C3.37125 4.93546875 2.71125 5.26546875 2.03125 5.60546875 C1.53625 4.61546875 1.53625 4.61546875 1.03125 3.60546875 C-0.94875 4.59546875 -0.94875 4.59546875 -2.96875 5.60546875 C-0.49375 6.10046875 -0.49375 6.10046875 2.03125 6.60546875 C2.03125 6.93546875 2.03125 7.26546875 2.03125 7.60546875 C-14.30375 8.10046875 -14.30375 8.10046875 -30.96875 8.60546875 C-31.29875 7.61546875 -31.62875 6.62546875 -31.96875 5.60546875 C-29.11564379 1.15462306 -25.20710488 -2.40170228 -20.0703125 -3.9765625 C-12.08408886 -5.56490066 -6.85026185 -4.38980388 0 0 Z " fill="#06080D" transform="translate(201.96875,154.39453125)"/>
<path d="M0 0 C0.66 0.33 1.32 0.66 2 1 C2 1.66 2 2.32 2 3 C1.34 3 0.68 3 0 3 C0 4.32 0 5.64 0 7 C-4.42638593 11.21366103 -10.25114985 10.40842592 -15.96540833 10.36076355 C-17.08449024 10.36332682 -18.20357216 10.3658901 -19.35656565 10.36853105 C-23.11391402 10.37348031 -26.87086235 10.35695661 -30.62817383 10.34057617 C-33.31854153 10.33973015 -36.00888458 10.34007239 -38.69924927 10.34190369 C-44.4952542 10.34347644 -50.29115778 10.33406711 -56.08713722 10.31719017 C-64.46712455 10.29280491 -72.84706289 10.28499539 -81.22708186 10.2812262 C-94.8232093 10.27466097 -108.41928274 10.25469786 -122.01538086 10.22631836 C-135.22240936 10.19877964 -148.42942319 10.17754515 -161.63647461 10.16479492 C-162.45061078 10.16400675 -163.26474696 10.16321858 -164.10355393 10.16240653 C-168.18785212 10.1584914 -172.27215041 10.15470028 -176.35644877 10.15097082 C-210.23767168 10.11987268 -244.11882922 10.06703493 -278 10 C-278 9.67 -278 9.34 -278 9 C-277.43058679 8.99940291 -276.86117359 8.99880582 -276.27450544 8.99819064 C-242.53831206 8.96230906 -208.80222219 8.90568919 -175.06611367 8.82207905 C-171.01681377 8.8120614 -166.96751347 8.8022173 -162.91821289 8.79248047 C-161.70898124 8.78956841 -161.70898124 8.78956841 -160.47532066 8.78659752 C-147.41631916 8.75556299 -134.35733525 8.73859282 -121.29830382 8.72680578 C-107.90193244 8.71440173 -94.50565344 8.68691726 -81.10934037 8.64538693 C-72.84079323 8.62023007 -64.57239926 8.60688431 -56.3038133 8.60857043 C-50.6363576 8.60860015 -44.9690581 8.5940027 -39.30166326 8.56783572 C-36.03012158 8.55316472 -32.75896566 8.54717334 -29.48738861 8.55419731 C-25.94175262 8.56079741 -22.39705788 8.54301089 -18.85151672 8.51898193 C-17.29752897 8.53062256 -17.29752897 8.53062256 -15.71214753 8.54249835 C-10.11573892 8.47509459 -7.11869187 8.16266218 -3 4 C-2.34 4 -1.68 4 -1 4 C-0.67 2.68 -0.34 1.36 0 0 Z " fill="#4CAE77" transform="translate(384,209)"/>
<path d="M0 0 C-1.58721924 2.46452332 -1.58721924 2.46452332 -4 5 C-7.02459717 5.60127258 -7.02459717 5.60127258 -10.60449219 5.56762695 C-11.25856552 5.56835709 -11.91263885 5.56908722 -12.58653259 5.56983948 C-14.74083434 5.56636574 -16.89295282 5.52752245 -19.046875 5.48828125 C-20.5433026 5.47895217 -22.0397455 5.4718365 -23.53619385 5.46684265 C-27.46899812 5.44777974 -31.40087455 5.39868673 -35.33331299 5.34332275 C-39.34838306 5.29211401 -43.36360352 5.26932525 -47.37890625 5.24414062 C-55.25302929 5.19056581 -63.12639913 5.10526332 -71 5 C-71 5.66 -71 6.32 -71 7 C-71.95253662 7.03758423 -71.95253662 7.03758423 -72.92431641 7.07592773 C-75.82471542 7.19256789 -78.72484349 7.31498393 -81.625 7.4375 C-82.62402344 7.47681641 -83.62304688 7.51613281 -84.65234375 7.55664062 C-89.50956104 7.76572614 -94.22132044 8.02958555 -99 9 C-99 8.34 -99 7.68 -99 7 C-97.35 6.67 -95.7 6.34 -94 6 C-96.475 5.01 -96.475 5.01 -99 4 C-99 3.67 -99 3.34 -99 3 C-97.02090602 2.97313447 -95.04171029 2.95366625 -93.0625 2.9375 C-91.96035156 2.92589844 -90.85820312 2.91429687 -89.72265625 2.90234375 C-87 3 -87 3 -86 4 C-84.15108054 4.23363881 -82.29511969 4.41303635 -80.4375 4.5625 C-78.91962891 4.68818359 -78.91962891 4.68818359 -77.37109375 4.81640625 C-76.19740234 4.90728516 -76.19740234 4.90728516 -75 5 C-75 4.34 -75 3.68 -75 3 C-60.81 2.67 -46.62 2.34 -32 2 C-31.67 1.34 -31.34 0.68 -31 0 C-30.42419189 0.16153564 -29.84838379 0.32307129 -29.25512695 0.48950195 C-25.58523011 1.32026457 -21.93603021 1.18445489 -18.1875 1.1875 C-17.40568359 1.19974609 -16.62386719 1.21199219 -15.81835938 1.22460938 C-12.01991841 1.23412928 -8.69489696 1.04799145 -5.05078125 -0.07421875 C-2 -1 -2 -1 0 0 Z " fill="#0C181A" transform="translate(287,126)"/>
<path d="M0 0 C0.99 0.495 0.99 0.495 2 1 C1.67 4.63 1.34 8.26 1 12 C1.78238037 11.99476318 2.56476074 11.98952637 3.37084961 11.98413086 C6.89305833 11.96342894 10.4152543 11.95036162 13.9375 11.9375 C15.16919922 11.92912109 16.40089844 11.92074219 17.66992188 11.91210938 C18.83974609 11.90888672 20.00957031 11.90566406 21.21484375 11.90234375 C22.84087524 11.89448853 22.84087524 11.89448853 24.49975586 11.88647461 C27 12 27 12 28 13 C28.09295815 14.44289787 28.11746513 15.89029785 28.11352539 17.33618164 C28.11344986 18.2570607 28.11337433 19.17793976 28.11329651 20.12672424 C28.10813522 21.12775681 28.10297394 22.12878937 28.09765625 23.16015625 C28.0962413 24.17975937 28.09482635 25.19936249 28.09336853 26.24986267 C28.08775097 29.52077107 28.0751955 32.79161213 28.0625 36.0625 C28.05748726 38.27408756 28.05292396 40.48567618 28.04882812 42.69726562 C28.03777584 48.13153357 28.02102063 53.56576197 28 59 C29.485 59.495 29.485 59.495 31 60 C30.67 61.32 30.34 62.64 30 64 C27.525 64.495 27.525 64.495 25 65 C24.61781233 63.34385343 24.28604898 61.67542976 24 60 C24.33 59.67 24.66 59.34 25 59 C25.12221525 57.55815707 25.17772758 56.11056856 25.20532227 54.66381836 C25.22526749 53.7429393 25.24521271 52.82206024 25.26576233 51.87327576 C25.28247482 50.87224319 25.29918732 49.87121063 25.31640625 48.83984375 C25.33718735 47.82024063 25.35796844 46.80063751 25.37937927 45.75013733 C25.44498852 42.47932952 25.50381234 39.20843863 25.5625 35.9375 C25.60567442 33.72590272 25.64928834 31.51431397 25.69335938 29.30273438 C25.80151203 23.86857363 25.90050073 18.43435376 26 13 C17.75 13 9.5 13 1 13 C1 19.27 1 25.54 1 32 C0.67 32 0.34 32 0 32 C0 21.44 0 10.88 0 0 Z " fill="#8BF7AF" transform="translate(416,120)"/>
<path d="M0 0 C17.16 0 34.32 0 52 0 C52 0.99 52 1.98 52 3 C44.74 3.33 37.48 3.66 30 4 C30 4.33 30 4.66 30 5 C17.13 5 4.26 5 -9 5 C-9 4.67 -9 4.34 -9 4 C-4.545 3.505 -4.545 3.505 0 3 C0 2.01 0 1.02 0 0 Z " fill="#33AC5F" transform="translate(121,33)"/>
<path d="M0 0 C0 3 0 3 -1.25 4.46484375 C-6.56460133 8.93717567 -11.57552245 12.6457437 -18.625 13.375 C-25.52679103 12.60813433 -31.34483353 10.18619976 -35.875 4.75 C-36.24625 4.1725 -36.6175 3.595 -37 3 C-36.29496338 3.32307129 -35.58992676 3.64614258 -34.86352539 3.97900391 C-29.85530624 5.76469514 -24.70476629 5.36900425 -19.4375 5.375 C-17.73303711 5.41173828 -17.73303711 5.41173828 -15.99414062 5.44921875 C-14.90166016 5.45308594 -13.80917969 5.45695313 -12.68359375 5.4609375 C-11.19170532 5.47326416 -11.19170532 5.47326416 -9.66967773 5.48583984 C-6.29594416 4.87187278 -5.25425446 3.50205725 -3 1 C-2.01 0.67 -1.02 0.34 0 0 Z " fill="#091F1C" transform="translate(272,142)"/>
<path d="M0 0 C0.33 0 0.66 0 1 0 C1.07593214 7.77784995 1.12855012 15.55560468 1.16479492 23.33374023 C1.1799012 25.98091199 1.2003873 28.62805864 1.22631836 31.27514648 C1.26261991 35.07542101 1.27970803 38.87536526 1.29296875 42.67578125 C1.30845261 43.86335526 1.32393646 45.05092926 1.33988953 46.27449036 C1.34011612 47.37540512 1.34034271 48.47631989 1.34057617 49.6105957 C1.34723801 50.58100296 1.35389984 51.55141022 1.36076355 52.55122375 C1 55 1 55 -0.28771973 56.81555176 C-3.29130905 58.89324671 -6.86559287 58.36164782 -10.38671875 58.29296875 C-11.20372757 58.28872391 -12.02073639 58.28447906 -12.86250305 58.28010559 C-15.47117107 58.26331691 -18.07906562 58.22566519 -20.6875 58.1875 C-22.45636905 58.17245337 -24.22525021 58.15876492 -25.99414062 58.14648438 C-30.32972496 58.11341286 -34.66473136 58.0616299 -39 58 C-39 58.66 -39 59.32 -39 60 C-40.98 59.67 -42.96 59.34 -45 59 C-44.67 57.35 -44.34 55.7 -44 54 C-42.02 53.505 -42.02 53.505 -40 53 C-39.67 53.99 -39.34 54.98 -39 56 C-33.7487788 55.88205894 -28.49775903 55.75783398 -23.24682617 55.62768555 C-21.4591073 55.584273 -19.67134526 55.54260271 -17.88354492 55.50268555 C-15.31936609 55.4451354 -12.75540588 55.38139797 -10.19140625 55.31640625 C-9.3872377 55.29969376 -8.58306915 55.28298126 -7.75453186 55.26576233 C-4.07330002 55.50779304 -4.07330002 55.50779304 -1 54 C-0.87700834 52.31290653 -0.82214742 50.62079097 -0.79467773 48.92944336 C-0.77473251 47.84839828 -0.75478729 46.76735321 -0.73423767 45.65354919 C-0.71752518 44.4775264 -0.70081268 43.3015036 -0.68359375 42.08984375 C-0.66281265 40.89267227 -0.64203156 39.69550079 -0.62062073 38.46205139 C-0.55499721 34.62059513 -0.49618097 30.77906799 -0.4375 26.9375 C-0.39432695 24.34048733 -0.35071307 21.74348194 -0.30664062 19.14648438 C-0.19930284 12.76439883 -0.09756069 6.38224207 0 0 Z " fill="#81E8A0" transform="translate(71,82)"/>
<path d="M0 0 C0 0.66 0 1.32 0 2 C-2.95481492 4.74375671 -3.77471908 5 -8 5 C-8.268125 5.763125 -8.53625 6.52625 -8.8125 7.3125 C-10 10 -10 10 -13 13 C-5.74 13 1.52 13 9 13 C8.34 14.32 7.68 15.64 7 17 C6.43925781 16.84015625 5.87851563 16.6803125 5.30078125 16.515625 C-1.64545726 14.9589128 -7.79745946 15.59468362 -14 19 C-17.3073241 21.33016016 -19.72936549 23.65380177 -22 27 C-20.76133162 17.418117 -16.44658677 9.37254595 -8.9296875 3.3046875 C-5.80576733 1.19256333 -3.82696736 0 0 0 Z " fill="#2E9CA5" transform="translate(191,135)"/>
<path d="M0 0 C21.78 0 43.56 0 66 0 C65.67 0.66 65.34 1.32 65 2 C63.40865234 1.98259766 63.40865234 1.98259766 61.78515625 1.96484375 C51.0817103 1.88725699 40.3843577 2.04107568 29.68478394 2.31838989 C28.18724426 2.3561136 26.68961733 2.39052012 25.19192505 2.42160034 C23.06377963 2.46686374 20.93633353 2.52475177 18.80859375 2.5859375 C17.56907959 2.6173584 16.32956543 2.6487793 15.05249023 2.68115234 C11.82793377 2.77869176 11.82793377 2.77869176 9 5 C13.95 5.33 18.9 5.66 24 6 C24 6.33 24 6.66 24 7 C19.38 7 14.76 7 10 7 C9.67 7.66 9.34 8.32 9 9 C7.49704815 7.69088122 5.99770689 6.37761608 4.5 5.0625 C3.6646875 4.33160156 2.829375 3.60070312 1.96875 2.84765625 C1.3190625 2.23792969 0.669375 1.62820312 0 1 C0 0.67 0 0.34 0 0 Z " fill="#0F1616" transform="translate(260,95)"/>
<path d="M0 0 C0.66 0.33 1.32 0.66 2 1 C1.67657623 1.86786636 1.35315247 2.73573273 1.01992798 3.62989807 C-0.66638108 9.5903122 -0.3087321 15.77794852 -0.31884766 21.92163086 C-0.32815606 23.33151824 -0.33832608 24.74140015 -0.34928894 26.15127563 C-0.37650028 29.96271148 -0.39171192 33.77411054 -0.40471697 37.58561778 C-0.42038647 41.57482652 -0.44716445 45.56396059 -0.4727478 49.55311584 C-0.51946813 57.09999718 -0.55624482 64.64689267 -0.58942068 72.19384438 C-0.62768982 80.78881081 -0.67708739 89.38370212 -0.72740483 97.97860515 C-0.83062431 115.65234839 -0.91991708 133.32613754 -1 151 C-1.33 151 -1.66 151 -2 151 C-2.04666981 131.60736488 -2.08196417 112.21474112 -2.10362434 92.82206154 C-2.11394775 83.81820425 -2.12802834 74.8143818 -2.15087891 65.81054688 C-2.17078029 57.96506012 -2.18370869 50.1195986 -2.18817699 42.27408731 C-2.1907899 38.11791066 -2.19695332 33.96180619 -2.21146011 29.80565262 C-2.22499273 25.89708489 -2.22923145 21.98861937 -2.22621536 18.08003044 C-2.22676747 16.64246376 -2.2307706 15.20489382 -2.23841095 13.76734734 C-2.24830411 11.81063152 -2.24479068 9.85386138 -2.24050903 7.89712524 C-2.24235262 6.80019159 -2.24419621 5.70325794 -2.24609566 4.57308388 C-2 2 -2 2 0 0 Z " fill="#DBFEE4" transform="translate(107,40)"/>
<path d="M0 0 C1.67542976 0.28604898 3.34385343 0.61781233 5 1 C4.67 2.65 4.34 4.3 4 6 C3.30688721 5.83701416 2.61377441 5.67402832 1.8996582 5.50610352 C-1.25917565 4.95476373 -4.18853696 4.88714946 -7.39453125 4.90234375 C-9.19760742 4.90717773 -9.19760742 4.90717773 -11.03710938 4.91210938 C-12.28298828 4.92048828 -13.52886719 4.92886719 -14.8125 4.9375 C-16.07771484 4.94201172 -17.34292969 4.94652344 -18.64648438 4.95117188 C-21.7643711 4.96293749 -24.88216133 4.97937728 -28 5 C-28.02684312 7.81256281 -28.04676188 10.62487241 -28.0625 13.4375 C-28.07087891 14.23994141 -28.07925781 15.04238281 -28.08789062 15.86914062 C-28.0965143 17.91295221 -28.0522815 19.95683902 -28 22 C-27.67 22.33 -27.34 22.66 -27 23 C-26.95936168 24.66617115 -26.957279 26.33388095 -27 28 C-28.65614657 28.38218767 -30.32457024 28.71395102 -32 29 C-33 28 -33 28 -33.0625 25.4375 C-33.041875 24.633125 -33.02125 23.82875 -33 23 C-32.34 23 -31.68 23 -31 23 C-31.03480469 21.81921875 -31.06960937 20.6384375 -31.10546875 19.421875 C-31.13361232 17.86459758 -31.16091187 16.30730475 -31.1875 14.75 C-31.21263672 13.97269531 -31.23777344 13.19539062 -31.26367188 12.39453125 C-31.27333984 11.64042969 -31.28300781 10.88632813 -31.29296875 10.109375 C-31.3086792 9.41811523 -31.32438965 8.72685547 -31.34057617 8.01464844 C-30.86767907 5.21726716 -30.05597878 3.95918888 -28 2 C-25.19677734 1.4699707 -25.19677734 1.4699707 -21.8359375 1.42578125 C-20.63195312 1.39806641 -19.42796875 1.37035156 -18.1875 1.34179688 C-16.929375 1.33212891 -15.67125 1.32246094 -14.375 1.3125 C-11.88274764 1.27062407 -9.39055073 1.22524916 -6.8984375 1.17578125 C-5.79161621 1.16458252 -4.68479492 1.15338379 -3.54443359 1.1418457 C-1.06499311 1.28721054 -1.06499311 1.28721054 0 0 Z " fill="#6FE298" transform="translate(72,143)"/>
<path d="M0 0 C1.4540625 0.0309375 1.4540625 0.0309375 2.9375 0.0625 C2.12610062 0.61830246 1.31470123 1.17410492 0.47871399 1.74674988 C-3.0909673 5.36423762 -2.68374605 9.47212094 -2.74806213 14.31533813 C-2.73943649 15.56906219 -2.73081085 16.82278625 -2.72192383 18.11450195 C-2.73038064 19.45513905 -2.74102642 20.79576386 -2.75369263 22.1363678 C-2.78182077 25.76835891 -2.77937089 29.39975907 -2.77139878 33.03182626 C-2.76827238 36.83024052 -2.7933119 40.62846701 -2.81535339 44.42680359 C-2.8527982 51.61611219 -2.86494163 58.80523164 -2.8679778 65.99462813 C-2.87266817 74.18089466 -2.90559075 82.36697166 -2.94087565 90.55315459 C-3.01281372 107.38959173 -3.04932746 124.22591215 -3.0625 141.0625 C-3.3925 141.0625 -3.7225 141.0625 -4.0625 141.0625 C-4.08582809 122.82604002 -4.10347873 104.58958389 -4.11431217 86.35311222 C-4.11947532 77.88620061 -4.12651838 69.41929825 -4.13793945 60.95239258 C-4.14788572 53.57532906 -4.15435329 46.19827225 -4.15658849 38.82120222 C-4.1578957 34.91267947 -4.16098217 31.00417588 -4.16823006 27.09565926 C-4.17498937 23.42103558 -4.17711715 19.74643907 -4.17560768 16.07180977 C-4.17601638 14.07170389 -4.18141204 12.07160102 -4.18692017 10.07150269 C-4.1855455 8.89214645 -4.18417084 7.71279022 -4.18275452 6.49769592 C-4.18367631 5.46620957 -4.1845981 4.43472322 -4.18554783 3.37197971 C-3.99652882 -0.17571032 -3.62841178 0.07404922 0 0 Z " fill="#2D9F57" transform="translate(107.0625,38.9375)"/>
<path d="M0 0 C0 0.66 0 1.32 0 2 C-24.42 2 -48.84 2 -74 2 C-74 1.34 -74 0.68 -74 0 C-64.64699534 -0.15368491 -55.2939246 -0.30186658 -45.94072151 -0.4429636 C-41.5979649 -0.50865015 -37.25525555 -0.57625389 -32.91259766 -0.64819336 C-28.72407828 -0.71750963 -24.53550967 -0.7818496 -20.34685898 -0.84269524 C-18.74639979 -0.86682729 -17.1459669 -0.89277233 -15.54556656 -0.92053413 C-13.30922817 -0.95902196 -11.07288423 -0.99114436 -8.83642578 -1.02172852 C-7.56179474 -1.04171402 -6.2871637 -1.06169952 -4.97390747 -1.08229065 C-2 -1 -2 -1 0 0 Z " fill="#4EC679" transform="translate(374,221)"/>
<path d="M0 0 C45.54 0.33 91.08 0.66 138 1 C138 1.33 138 1.66 138 2 C95.76 2.33 53.52 2.66 10 3 C10 3.66 10 4.32 10 5 C5 3 5 3 0 1 C0 0.67 0 0.34 0 0 Z " fill="#1E1E1E" transform="translate(218,134)"/>
<path d="M0 0 C1.38178293 4.14534879 -0.02340718 5.91903066 -1.83984375 9.73046875 C-5.17069342 16.24637333 -9.41107157 20.41490823 -15 25 C-15.66 24.67 -16.32 24.34 -17 24 C-16.67 23.01 -16.34 22.02 -16 21 C-14.68 21 -13.36 21 -12 21 C-12 19.68 -12 18.36 -12 17 C-10.35178756 15.96986723 -8.68496298 14.96885372 -7 14 C-7 13.01 -7 12.02 -7 11 C-7.99 11.495 -7.99 11.495 -9 12 C-11.57714437 12.15176841 -14.10926478 12.23140137 -16.6875 12.25 C-17.38294922 12.270625 -18.07839844 12.29125 -18.79492188 12.3125 C-23.91969885 12.35078031 -27.41259553 11.28468375 -32 9 C-31.67 8.01 -31.34 7.02 -31 6 C-29.9171875 6.7115625 -29.9171875 6.7115625 -28.8125 7.4375 C-24.03019607 10.09433552 -19.42292487 10.53340245 -14 10 C-8.16862507 7.83123247 -3.39477047 5.4007712 0 0 Z " fill="#2DB8A4" transform="translate(271,144)"/>
<path d="M0 0 C1 2 1 2 0.14453125 4.64453125 C-0.29503906 5.68996094 -0.73460937 6.73539062 -1.1875 7.8125 C-1.61417969 8.85019531 -2.04085938 9.88789062 -2.48046875 10.95703125 C-4.03260586 14.06529553 -5.60686223 16.48236373 -8 19 C-11.25 19.3125 -11.25 19.3125 -14 19 C-14.40862107 15.52672091 -14.00290095 14.00537213 -12.3125 10.875 C-9.28037042 7.10532539 -6.53951918 5.51317306 -2 4 C-0.79117904 1.99983534 -0.79117904 1.99983534 0 0 Z " fill="#1CC6AF" transform="translate(304,100)"/>
<path d="M0 0 C9.14285714 6.28571429 9.14285714 6.28571429 11 10 C7.14499441 9.44928492 5.68606223 7.68606223 3 5 C0.88719655 4.36707617 0.88719655 4.36707617 -1 4 C-1.495 3.01 -1.495 3.01 -2 2 C-3.88764903 1.31527335 -3.88764903 1.31527335 -6.0625 0.875 C-7.16271484 0.62363281 -7.16271484 0.62363281 -8.28515625 0.3671875 C-8.85105469 0.24601562 -9.41695312 0.12484375 -10 0 C-10 -0.66 -10 -1.32 -10 -2 C-10.969375 -1.649375 -11.93875 -1.29875 -12.9375 -0.9375 C-16.86115212 0.22358073 -20.09827438 -0.19315066 -24.08203125 -0.90625 C-24.71496094 -0.9371875 -25.34789062 -0.968125 -26 -1 C-26.66 -0.34 -27.32 0.32 -28 1 C-30.68839385 1.26991906 -33.29141936 1.08737357 -36 1 C-36 0.67 -36 0.34 -36 0 C-34.3036691 -0.47497265 -32.60722096 -0.94953094 -30.91015625 -1.421875 C-28.84206583 -2.01222512 -28.84206583 -2.01222512 -26.3125 -3.125 C-17.20866042 -5.52978781 -8.29767702 -4.3659289 0 0 Z " fill="#2CADAA" transform="translate(257,93)"/>
<path d="M0 0 C1.5003479 0.07069702 1.5003479 0.07069702 3.03100586 0.14282227 C4.1105957 0.19116211 5.19018555 0.23950195 6.30249023 0.28930664 C7.43879883 0.34538086 8.57510742 0.40145508 9.74584961 0.45922852 C11.45611328 0.53753906 11.45611328 0.53753906 13.20092773 0.61743164 C16.02864984 0.74757785 18.85605961 0.8825573 21.68334961 1.02172852 C21.68334961 1.35172852 21.68334961 1.68172852 21.68334961 2.02172852 C13.76334961 2.35172852 5.84334961 2.68172852 -2.31665039 3.02172852 C-2.31665039 13.58172852 -2.31665039 24.14172852 -2.31665039 35.02172852 C-0.99665039 35.35172852 0.32334961 35.68172852 1.68334961 36.02172852 C1.35334961 37.34172852 1.02334961 38.66172852 0.68334961 40.02172852 C-1.79165039 40.51672852 -1.79165039 40.51672852 -4.31665039 41.02172852 C-4.69883806 39.36558194 -5.03060141 37.69715827 -5.31665039 36.02172852 C-4.82165039 35.52672852 -4.82165039 35.52672852 -4.31665039 35.02172852 C-4.16908041 32.51456014 -4.08172699 30.03133802 -4.03540039 27.52172852 C-4.01699097 26.77084961 -3.99858154 26.0199707 -3.97961426 25.24633789 C-3.92068735 22.83821664 -3.86794171 20.43002381 -3.81665039 18.02172852 C-3.74920409 14.85490408 -3.67553619 11.68831768 -3.59790039 8.52172852 C-3.58432495 7.78631836 -3.57074951 7.0509082 -3.5567627 6.29321289 C-3.40224078 0.03191057 -3.40224078 0.03191057 0 0 Z " fill="#3AB364" transform="translate(418.316650390625,116.978271484375)"/>
<path d="M0 0 C1.67542976 0.28604898 3.34385343 0.61781233 5 1 C5.33 2.32 5.66 3.64 6 5 C5.01 5.66 4.02 6.32 3 7 C2.5232915 9.33742225 2.5232915 9.33742225 2.56762695 12.09228516 C2.53793571 13.68370834 2.53793571 13.68370834 2.50764465 15.30728149 C2.50125473 16.45626923 2.49486481 17.60525696 2.48828125 18.7890625 C2.47033005 19.96262299 2.45237885 21.13618347 2.43388367 22.3453064 C2.37956578 26.10516736 2.34581552 29.86489985 2.3125 33.625 C2.27934597 36.1692888 2.24485813 38.71356059 2.20898438 41.2578125 C2.12382702 47.50509313 2.05556844 53.75238995 2 60 C1.67 60 1.34 60 1 60 C0.98969254 59.33458694 0.97938507 58.66917389 0.96876526 57.9835968 C0.86056859 51.05675696 0.74598124 44.13004372 0.62768555 37.20336914 C0.58437894 34.61843516 0.54270083 32.03347336 0.50268555 29.44848633 C0.44487972 25.73249937 0.38121457 22.01665187 0.31640625 18.30078125 C0.29969376 17.14540359 0.28298126 15.99002594 0.26576233 14.79963684 C0.24581711 13.71889389 0.22587189 12.63815094 0.20532227 11.5246582 C0.18977798 10.57645706 0.1742337 9.62825592 0.15821838 8.65132141 C0.06141325 5.96073895 0.06141325 5.96073895 -0.57533264 3.21720886 C-0.71547287 2.48552994 -0.8556131 1.75385101 -1 1 C-0.67 0.67 -0.34 0.34 0 0 Z " fill="#4AB469" transform="translate(69,76)"/>
<path d="M0 0 C36.63 0.495 36.63 0.495 74 1 C74 1.33 74 1.66 74 2 C52.88 2 31.76 2 10 2 C10 2.99 10 3.98 10 5 C5.84585747 3.77263971 3.56311466 2.672336 0 0 Z " fill="#201F1F" transform="translate(250,90)"/>
<path d="M0 0 C0.85271484 0.30744141 0.85271484 0.30744141 1.72265625 0.62109375 C6.52045288 2.29511628 10.96700562 3.3708757 16 4 C16.33 4.33 16.66 4.66 17 5 C19.34987262 5.23527773 21.70556039 5.41386417 24.0625 5.5625 C25.99802734 5.68818359 25.99802734 5.68818359 27.97265625 5.81640625 C29.47119141 5.90728516 29.47119141 5.90728516 31 6 C31 5.34 31 4.68 31 4 C33.64 4 36.28 4 39 4 C39 4.66 39 5.32 39 6 C28.44302903 9.4471742 16.24174324 9.53917112 6 5 C3.78926891 3.79899921 1.98582839 2.56775925 0 1 C0 0.67 0 0.34 0 0 Z " fill="#2BB8AE" transform="translate(213,164)"/>
<path d="M0 0 C0.33 0 0.66 0 1 0 C1.33 14.52 1.66 29.04 2 44 C2.99 44.33 3.98 44.66 5 45 C4.67 46.32 4.34 47.64 4 49 C1.525 49.495 1.525 49.495 -1 50 C-1.38218767 48.34385343 -1.71395102 46.67542976 -2 45 C-1.505 44.505 -1.505 44.505 -1 44 C-0.87802192 42.61949142 -0.82231101 41.23302353 -0.79467773 39.84741211 C-0.77473251 38.96657455 -0.75478729 38.085737 -0.73423767 37.1782074 C-0.71752518 36.22092239 -0.70081268 35.26363739 -0.68359375 34.27734375 C-0.66281265 33.30213272 -0.64203156 32.32692169 -0.62062073 31.32215881 C-0.55501588 28.1940137 -0.49618972 25.06578178 -0.4375 21.9375 C-0.39432517 19.8222565 -0.35071123 17.70702191 -0.30664062 15.59179688 C-0.19932345 10.39462413 -0.0975778 5.19736423 0 0 Z " fill="#5CC47B" transform="translate(442,135)"/>
<path d="M0 0 C0.50901855 0.32742187 1.01803711 0.65484375 1.54248047 0.9921875 C4.8992588 2.36878008 7.69818431 2.18930606 11.3203125 2.125 C12.0201828 2.11742676 12.7200531 2.10985352 13.44113159 2.10205078 C15.66934187 2.07768279 17.89702646 2.04041239 20.125 2 C23.06508967 1.94692295 26.00492558 1.90690493 28.9453125 1.875 C30.90235107 1.84019531 30.90235107 1.84019531 32.89892578 1.8046875 C36 2 36 2 38 4 C31.28867237 5.25165058 24.68495759 5.29879498 17.875 5.375 C15.96267578 5.43107422 15.96267578 5.43107422 14.01171875 5.48828125 C12.78839844 5.49988281 11.56507813 5.51148438 10.3046875 5.5234375 C9.19077637 5.54325684 8.07686523 5.56307617 6.92919922 5.58349609 C4 5 4 5 1.60595703 2.46728516 C1.07599121 1.65308105 0.54602539 0.83887695 0 0 Z " fill="#111516" transform="translate(229,140)"/>
<path d="M0 0 C1.07314453 0.00322266 2.14628906 0.00644531 3.25195312 0.00976562 C4.37150391 0.01814453 5.49105469 0.02652344 6.64453125 0.03515625 C8.34125977 0.04192383 8.34125977 0.04192383 10.07226562 0.04882812 C12.86724052 0.06062127 15.66210945 0.07707975 18.45703125 0.09765625 C18.45703125 0.75765625 18.45703125 1.41765625 18.45703125 2.09765625 C19.11703125 2.42765625 19.77703125 2.75765625 20.45703125 3.09765625 C19.45289185 3.05838013 19.45289185 3.05838013 18.4284668 3.01831055 C1.12606201 1.88462513 1.12606201 1.88462513 -14.54296875 8.09765625 C-14.54296875 7.10765625 -14.54296875 6.11765625 -14.54296875 5.09765625 C-15.53296875 4.76765625 -16.52296875 4.43765625 -17.54296875 4.09765625 C-14.46679688 3.8046875 -14.46679688 3.8046875 -11.390625 3.51171875 C-10.78089844 3.37507813 -10.17117187 3.2384375 -9.54296875 3.09765625 C-9.21296875 2.43765625 -8.88296875 1.77765625 -8.54296875 1.09765625 C-5.42453625 0.05817875 -3.26821289 -0.01729213 0 0 Z " fill="#04171E" transform="translate(229.54296875,86.90234375)"/>
<path d="M0 0 C9.24 0 18.48 0 28 0 C26.68 3.3 25.36 6.6 24 10 C23.67 10 23.34 10 23 10 C22.875 4.25 22.875 4.25 24 2 C16.08 2 8.16 2 0 2 C0 1.34 0 0.68 0 0 Z " fill="#0F171C" transform="translate(146,148)"/>
<path d="M0 0 C0.33 0 0.66 0 1 0 C1.02887236 3.81248426 1.04675492 7.6249407 1.0625 11.4375 C1.07087891 12.52611328 1.07925781 13.61472656 1.08789062 14.73632812 C1.09111328 15.77080078 1.09433594 16.80527344 1.09765625 17.87109375 C1.10289307 18.82943115 1.10812988 19.78776855 1.11352539 20.77514648 C1 23 1 23 0 24 C-2.6662603 24.08855161 -5.30647114 24.11524673 -7.97265625 24.09765625 C-8.77029892 24.0962413 -9.56794159 24.09482635 -10.38975525 24.09336853 C-12.94737435 24.08775316 -15.50490718 24.07519812 -18.0625 24.0625 C-19.79231645 24.05748698 -21.52213426 24.05292373 -23.25195312 24.04882812 C-27.50133553 24.03777875 -31.75065312 24.02050386 -36 24 C-36 23.67 -36 23.34 -36 23 C-35.04633545 22.98541748 -34.0926709 22.97083496 -33.11010742 22.95581055 C-29.57066415 22.89782208 -26.03185676 22.82059042 -22.49291992 22.73754883 C-20.96144941 22.70430182 -19.42985644 22.67626907 -17.89819336 22.65356445 C-15.69592113 22.62001282 -13.49477088 22.5677009 -11.29296875 22.51171875 C-10.60849167 22.50532883 -9.92401459 22.4989389 -9.21879578 22.49235535 C-6.43813027 22.40641263 -4.43754923 22.28518437 -2.07617188 20.74609375 C-0.73284644 18.56654213 -0.57398422 17.10472968 -0.48828125 14.55078125 C-0.45283203 13.70322266 -0.41738281 12.85566406 -0.38085938 11.98242188 C-0.35830078 11.10134766 -0.33574219 10.22027344 -0.3125 9.3125 C-0.27833984 8.41982422 -0.24417969 7.52714844 -0.20898438 6.60742188 C-0.12654352 4.40507329 -0.05738449 2.20312062 0 0 Z " fill="#299F51" transform="translate(69,114)"/>
<path d="M0 0 C0.45890625 0.40992188 0.9178125 0.81984375 1.390625 1.2421875 C2.00421875 1.78101563 2.6178125 2.31984375 3.25 2.875 C3.85328125 3.40867188 4.4565625 3.94234375 5.078125 4.4921875 C9.38481019 7.87100962 12.69121187 8.2792921 18.171875 8.4140625 C18.8542926 8.43342865 19.53671021 8.4527948 20.23980713 8.4727478 C22.40974608 8.53231098 24.57973877 8.57883446 26.75 8.625 C28.22528297 8.66320131 29.70054415 8.7022543 31.17578125 8.7421875 C34.78365418 8.83799235 38.39169083 8.92210916 42 9 C42 9.33 42 9.66 42 10 C29.79 10 17.58 10 5 10 C4.67 9.01 4.34 8.02 4 7 C1.98491642 6.26676204 1.98491642 6.26676204 0 6 C0 4.02 0 2.04 0 0 Z " fill="#279C55" transform="translate(95,210)"/>
<path d="M0 0 C10.56 0 21.12 0 32 0 C31.01 1.32 30.02 2.64 29 4 C29 3.34 29 2.68 29 2 C19.43 2 9.86 2 0 2 C0 1.34 0 0.68 0 0 Z " fill="#101415" transform="translate(146,142)"/>
<path d="M0 0 C0 0.33 0 0.66 0 1 C-3.21328993 2.09722095 -6.40909348 3.11094061 -9.6875 4 C-13.09544552 4.85377892 -13.09544552 4.85377892 -16 7 C-16.33 7.66 -16.66 8.32 -17 9 C-17.78375 9.28875 -18.5675 9.5775 -19.375 9.875 C-22.31501099 11.13500471 -23.31463588 12.33889875 -25 15 C-25.66 14.67 -26.32 14.34 -27 14 C-22.06700341 4.70319874 -10.52548286 -1.4735676 0 0 Z " fill="#359499" transform="translate(234,89)"/>
<path d="M0 0 C17.16 0 34.32 0 52 0 C52 0.99 52 1.98 52 3 C34.84 3 17.68 3 0 3 C0 2.01 0 1.02 0 0 Z " fill="#52D081" transform="translate(121,33)"/>
<path d="M0 0 C-0.33 1.65 -0.66 3.3 -1 5 C-1.70213623 4.84152588 -2.40427246 4.68305176 -3.12768555 4.51977539 C-6.10447541 3.98109408 -8.93483803 3.79208274 -11.95703125 3.68359375 C-13.06884766 3.64169922 -14.18066406 3.59980469 -15.32617188 3.55664062 C-16.47666016 3.51732422 -17.62714844 3.47800781 -18.8125 3.4375 C-19.98232422 3.39431641 -21.15214844 3.35113281 -22.35742188 3.30664062 C-25.23817031 3.20081721 -28.11900123 3.09873175 -31 3 C-31 2.67 -31 2.34 -31 2 C-30.39003174 1.98018066 -29.78006348 1.96036133 -29.15161133 1.93994141 C-26.37149467 1.84432124 -23.59209154 1.73479295 -20.8125 1.625 C-19.37293945 1.57859375 -19.37293945 1.57859375 -17.90429688 1.53125 C-16.97294922 1.49257812 -16.04160156 1.45390625 -15.08203125 1.4140625 C-13.80162964 1.36693115 -13.80162964 1.36693115 -12.49536133 1.31884766 C-0.67174824 -0.19192807 -0.67174824 -0.19192807 0 0 Z " fill="#58CF83" transform="translate(77,144)"/>
<path d="M0 0 C3.64002308 2.05599883 6.70508277 4.33193178 9.8125 7.125 C10.60269531 7.82882813 11.39289063 8.53265625 12.20703125 9.2578125 C13.09455078 10.12019531 13.09455078 10.12019531 14 11 C14 11.33 14 11.66 14 12 C12.02 12 10.04 12 8 12 C7.67 10.35 7.34 8.7 7 7 C4.36 7 1.72 7 -1 7 C-0.67 4.69 -0.34 2.38 0 0 Z " fill="#2EADA9" transform="translate(225,138)"/>
<path d="M0 0 C0.66 1.65 1.32 3.3 2 5 C0.35 6.32 -1.3 7.64 -3 9 C-5 7.25 -5 7.25 -7 5 C-7 3.68 -7 2.36 -7 1 C-4.53721199 -0.231394 -2.7204945 -0.07159196 0 0 Z " fill="#484847" transform="translate(123,115)"/>
<path d="M0 0 C1.98 0 3.96 0 6 0 C6 2.31 6 4.62 6 7 C3.125 7.625 3.125 7.625 0 8 C-0.66 7.34 -1.32 6.68 -2 6 C-2 4.68 -2 3.36 -2 2 C-1.34 2 -0.68 2 0 2 C0 1.34 0 0.68 0 0 Z " fill="#444442" transform="translate(118,66)"/>
<path d="M0 0 C4.29 0 8.58 0 13 0 C13 0.33 13 0.66 13 1 C12.443125 1.02578125 11.88625 1.0515625 11.3125 1.078125 C4.82966144 1.5599576 -0.86879346 2.89159351 -5.609375 7.59765625 C-6.80205301 9.01479895 -7.91056783 10.50203077 -9 12 C-9.6875 10.375 -9.6875 10.375 -10 8 C-8.5625 4.75 -8.5625 4.75 -7 2 C-6.01 2.33 -5.02 2.66 -4 3 C-1.85744207 2.61067144 -1.85744207 2.61067144 0 2 C0 1.34 0 0.68 0 0 Z " fill="#3B9CA8" transform="translate(212,105)"/>
<path d="M0 0 C4.93307546 2.17797343 8.98510932 4.47766399 12 9 C11.01 9.495 11.01 9.495 10 10 C9.67 9.34 9.34 8.68 9 8 C8.01 8 7.02 8 6 8 C6 7.34 6 6.68 6 6 C4.68 5.67 3.36 5.34 2 5 C2.33 4.34 2.66 3.68 3 3 C-2.61 2.67 -8.22 2.34 -14 2 C-9.04606766 -0.47696617 -5.44978366 -0.90829728 0 0 Z " fill="#022930" transform="translate(194,150)"/>
<path d="M0 0 C1.98 0.66 3.96 1.32 6 2 C6 3.98 6 5.96 6 8 C3.125 8.125 3.125 8.125 0 8 C-0.66 7.34 -1.32 6.68 -2 6 C-2 4.68 -2 3.36 -2 2 C-1.34 2 -0.68 2 0 2 C0 1.34 0 0.68 0 0 Z " fill="#474748" transform="translate(118,82)"/>
<path d="M0 0 C10.23 0 20.46 0 31 0 C31 0.33 31 0.66 31 1 C26.38 1 21.76 1 17 1 C17 1.99 17 2.98 17 4 C17.66 4 18.32 4 19 4 C19 5.32 19 6.64 19 8 C17.68 8 16.36 8 15 8 C15.33 5.69 15.66 3.38 16 1 C8.08 1.495 8.08 1.495 0 2 C0 1.34 0 0.68 0 0 Z " fill="#333635" transform="translate(111,44)"/>
<path d="M0 0 C0.66 0 1.32 0 2 0 C1.34 11.22 0.68 22.44 0 34 C-0.33 34 -0.66 34 -1 34 C-1.02465288 29.31860746 -1.04283739 24.63725241 -1.05493164 19.95581055 C-1.05997157 18.36205386 -1.0668035 16.76830181 -1.07543945 15.17456055 C-1.08751999 12.88849747 -1.09323155 10.60249533 -1.09765625 8.31640625 C-1.10281754 7.59973282 -1.10797882 6.88305939 -1.11329651 6.14466858 C-1.11349263 4.42936328 -1.06192007 2.71418734 -1 1 C-0.67 0.67 -0.34 0.34 0 0 Z " fill="#269F50" transform="translate(447,68)"/>
<path d="M0 0 C2.00720923 0.28674418 4.0085944 0.61866701 6 1 C6.125 3.375 6.125 3.375 6 6 C5.34 6.66 4.68 7.32 4 8 C3.01 8 2.02 8 1 8 C1 7.34 1 6.68 1 6 C0.34 6 -0.32 6 -1 6 C-1.042721 4.33388095 -1.04063832 2.66617115 -1 1 C-0.67 0.67 -0.34 0.34 0 0 Z " fill="#4A4A49" transform="translate(118,99)"/>
<path d="M0 0 C3.465 2.475 3.465 2.475 7 5 C3.14006896 5.96498276 0.42364726 6.0400583 -3.515625 5.87890625 C-4.76601562 5.83056641 -6.01640625 5.78222656 -7.3046875 5.73242188 C-8.60664063 5.67634766 -9.90859375 5.62027344 -11.25 5.5625 C-13.22613281 5.48418945 -13.22613281 5.48418945 -15.2421875 5.40429688 C-18.49503428 5.27465443 -21.74757167 5.13968844 -25 5 C-25 4.67 -25 4.34 -25 4 C-16.42 3.67 -7.84 3.34 1 3 C0.67 2.01 0.34 1.02 0 0 Z " fill="#132025" transform="translate(237,114)"/>
<path d="M0 0 C0.33 0.66 0.66 1.32 1 2 C0.26821134 4.07196631 -0.55899003 6.1108552 -1.4375 8.125 C-1.91058594 9.22070312 -2.38367188 10.31640625 -2.87109375 11.4453125 C-3.24363281 12.28835937 -3.61617188 13.13140625 -4 14 C-4.33 14 -4.66 14 -5 14 C-5 12.35 -5 10.7 -5 9 C-6.98 9.33 -8.96 9.66 -11 10 C-9.22113307 6.44226614 -5.63795695 5.21265232 -2 4 C-0.79117904 1.99983534 -0.79117904 1.99983534 0 0 Z " fill="#44A593" transform="translate(304,100)"/>
<path d="M0 0 C2.625 0.375 2.625 0.375 5 1 C4.67 2.65 4.34 4.3 4 6 C3.34 6 2.68 6 2 6 C2 8.97 2 11.94 2 15 C1.67 15 1.34 15 1 15 C1 12.03 1 9.06 1 6 C0.34 6 -0.32 6 -1 6 C-1.625 4.125 -1.625 4.125 -2 2 C-1.34 1.34 -0.68 0.68 0 0 Z " fill="#6FDB93" transform="translate(443,63)"/>
<path d="M0 0 C0.66 0 1.32 0 2 0 C2.33 0.99 2.66 1.98 3 3 C11.25 3.33 19.5 3.66 28 4 C28 4.33 28 4.66 28 5 C19.75 5 11.5 5 3 5 C2.67 5.66 2.34 6.32 2 7 C2 6.34 2 5.68 2 5 C1.01 5 0.02 5 -1 5 C-0.67 3.35 -0.34 1.7 0 0 Z " fill="#E7F5F1" transform="translate(106,201)"/>
<path d="M0 0 C15.84 0.495 15.84 0.495 32 1 C32 1.33 32 1.66 32 2 C24.74 2.33 17.48 2.66 10 3 C10 3.66 10 4.32 10 5 C5 3 5 3 0 1 C0 0.67 0 0.34 0 0 Z " fill="#1E1D1D" transform="translate(218,134)"/>
<path d="M0 0 C2.34178377 0.37770706 4.56227453 0.82741661 6.7734375 1.69921875 C14.31431765 4.66067551 21.99737533 4.71524403 30 5 C30 5.33 30 5.66 30 6 C9.83322125 6.79085407 9.83322125 6.79085407 2 2 C1.34 1.34 0.68 0.68 0 0 Z " fill="#38AEA8" transform="translate(248,122)"/>
<path d="M0 0 C0.33 0.99 0.66 1.98 1 3 C-0.32 3.99 -1.64 4.98 -3 6 C-3.33 5.01 -3.66 4.02 -4 3 C-7.3 3.33 -10.6 3.66 -14 4 C-14.33 3.01 -14.66 2.02 -15 1 C-12.8750734 0.83240016 -10.75005624 0.66594799 -8.625 0.5 C-7.44164062 0.4071875 -6.25828125 0.314375 -5.0390625 0.21875 C-3.36213157 0.09804546 -1.68126944 0 0 0 Z " fill="#05CEB2" transform="translate(264,155)"/>
<path d="M0 0 C1.4540625 0.0309375 1.4540625 0.0309375 2.9375 0.0625 C2.36128906 0.33320313 1.78507813 0.60390625 1.19140625 0.8828125 C-1.08685778 2.07524879 -3.06295144 3.40387621 -5.125 4.9375 C-6.13240234 5.67613281 -6.13240234 5.67613281 -7.16015625 6.4296875 C-9.14781958 8.13573118 -10.5717935 9.91699719 -12.0625 12.0625 C-11.51144091 8.1132432 -10.67314629 4.71329826 -9.0625 1.0625 C-7.8559375 1.0934375 -7.8559375 1.0934375 -6.625 1.125 C-3.4084517 1.0465476 -3.39792468 0.0693454 0 0 Z " fill="#3E8C93" transform="translate(181.0625,149.9375)"/>
<path d="M0 0 C2.29160319 -0.02692484 4.58329546 -0.04636124 6.875 -0.0625 C8.15117187 -0.07410156 9.42734375 -0.08570313 10.7421875 -0.09765625 C14 0 14 0 16 1 C16 1.66 16 2.32 16 3 C13.89646505 3.0810206 11.79204048 3.13919907 9.6875 3.1875 C8.51574219 3.22230469 7.34398437 3.25710937 6.13671875 3.29296875 C3 3 3 3 1.08203125 1.48828125 C0.72496094 0.99714844 0.36789063 0.50601563 0 0 Z " fill="#040308" transform="translate(245,150)"/>
<path d="M0 0 C-1.32 1.65 -2.64 3.3 -4 5 C-4.50015625 4.84660156 -5.0003125 4.69320312 -5.515625 4.53515625 C-8.90327766 3.80542604 -12.29961519 3.63643523 -15.75 3.4375 C-16.44738281 3.39431641 -17.14476562 3.35113281 -17.86328125 3.30664062 C-19.57531922 3.20110404 -21.28763561 3.1001009 -23 3 C-23 2.67 -23 2.34 -23 2 C-21.60587891 1.92652344 -21.60587891 1.92652344 -20.18359375 1.8515625 C-15.31775208 1.55727802 -4.03004662 -2.01502331 0 0 Z " fill="#09302B" transform="translate(287,126)"/>
<path d="M0 0 C5.0302076 0.52537724 10.01885239 1.10594786 15 2 C14.01 2.495 14.01 2.495 13 3 C13 3.99 13 4.98 13 6 C13.66 6.33 14.32 6.66 15 7 C14.34 7.66 13.68 8.32 13 9 C12.48050781 8.59007813 11.96101562 8.18015625 11.42578125 7.7578125 C7.7576223 4.92363424 4.48550294 2.40171967 0 1 C0 0.67 0 0.34 0 0 Z " fill="#2DA8AA" transform="translate(225,106)"/>
<path d="M0 0 C3.64991166 1.31802365 5.7895201 2.59214008 9 5 C-3.87 4.505 -3.87 4.505 -17 4 C-17 3.67 -17 3.34 -17 3 C-15.85660156 2.95101562 -14.71320313 2.90203125 -13.53515625 2.8515625 C-12.04424527 2.77654811 -10.55336108 2.70099972 -9.0625 2.625 C-8.30775391 2.5940625 -7.55300781 2.563125 -6.77539062 2.53125 C-4.84492605 2.4273685 -2.92057919 2.22104386 -1 2 C-0.67 1.34 -0.34 0.68 0 0 Z " fill="#1F1F23" transform="translate(245,121)"/>
<path d="M0 0 C0.33 0.66 0.66 1.32 1 2 C1.99 2.33 2.98 2.66 4 3 C3.67 4.32 3.34 5.64 3 7 C1.35 7.33 -0.3 7.66 -2 8 C-2.33 6.35 -2.66 4.7 -3 3 C-2.01 2.67 -1.02 2.34 0 2 C0 1.34 0 0.68 0 0 Z " fill="#63D28C" transform="translate(443,177)"/>
<path d="M0 0 C1.65 0.33 3.3 0.66 5 1 C5.33 2.32 5.66 3.64 6 5 C4.02 5.99 4.02 5.99 2 7 C1.01 6.34 0.02 5.68 -1 5 C-0.67 3.35 -0.34 1.7 0 0 Z " fill="#5BD384" transform="translate(69,76)"/>
<path d="M0 0 C0 0.66 0 1.32 0 2 C1.32 2.33 2.64 2.66 4 3 C4 3.66 4 4.32 4 5 C-1.94 5.495 -1.94 5.495 -8 6 C-3.375 0 -3.375 0 0 0 Z " fill="#0C0F13" transform="translate(212,109)"/>
<path d="M0 0 C5.875 0.875 5.875 0.875 7 2 C9.18292774 2.23481693 11.37203174 2.41363323 13.5625 2.5625 C15.35880859 2.68818359 15.35880859 2.68818359 17.19140625 2.81640625 C18.11824219 2.87699219 19.04507812 2.93757813 20 3 C15.74494293 5.83670471 11.99776266 5.64925618 7 5 C4.34197975 3.91988576 2.37572768 2.65268013 0 1 C0 0.67 0 0.34 0 0 Z " fill="#03312D" transform="translate(273,106)"/>
<path d="M0 0 C0.99 0.33 1.98 0.66 3 1 C1.8782037 2.7936743 0.75245517 4.5848773 -0.375 6.375 C-1.00148437 7.37273437 -1.62796875 8.37046875 -2.2734375 9.3984375 C-4 12 -4 12 -6 14 C-6 12.35 -6 10.7 -6 9 C-5.34 9 -4.68 9 -4 9 C-4.33 7.02 -4.66 5.04 -5 3 C-4.360625 2.690625 -3.72125 2.38125 -3.0625 2.0625 C-1.06389179 1.1654837 -1.06389179 1.1654837 0 0 Z " fill="#031A22" transform="translate(209,96)"/>
<path d="M0 0 C1.65 0 3.3 0 5 0 C5.625 1.875 5.625 1.875 6 4 C5.34 4.66 4.68 5.32 4 6 C1.375 5.625 1.375 5.625 -1 5 C-0.67 3.35 -0.34 1.7 0 0 Z " fill="#5FD386" transform="translate(414,152)"/>
<path d="M0 0 C2.0625 0.4375 2.0625 0.4375 4 1 C4 2.98 4 4.96 4 7 C1.03 6.505 1.03 6.505 -2 6 C-1.125 1.125 -1.125 1.125 0 0 Z " fill="#5ECC81" transform="translate(28,135)"/>
<path d="M0 0 C5.28 0 10.56 0 16 0 C16 0.66 16 1.32 16 2 C16.66 2.33 17.32 2.66 18 3 C12.06 2.67 6.12 2.34 0 2 C0 1.34 0 0.68 0 0 Z " fill="#02292A" transform="translate(232,87)"/>
<path d="M0 0 C4.95 0 9.9 0 15 0 C11.72497903 2.45626573 8.41548804 4.74888288 5 7 C5 5.68 5 4.36 5 3 C5.66 3 6.32 3 7 3 C7 2.34 7 1.68 7 1 C4.69 1 2.38 1 0 1 C0 0.67 0 0.34 0 0 Z " fill="#091823" transform="translate(173,135)"/>
<path d="M0 0 C1.58294782 -0.05437607 3.16644256 -0.09296271 4.75 -0.125 C5.63171875 -0.14820313 6.5134375 -0.17140625 7.421875 -0.1953125 C10.1135858 0.00860498 11.69904974 0.63448279 14 2 C12.68 2 11.36 2 10 2 C10 2.66 10 3.32 10 4 C11.32 4.33 12.64 4.66 14 5 C11.69 5.33 9.38 5.66 7 6 C6.67 4.68 6.34 3.36 6 2 C3.03 1.505 3.03 1.505 0 1 C0 0.67 0 0.34 0 0 Z " fill="#2CA75C" transform="translate(290,219)"/>
<path d="M0 0 C8.25 0 16.5 0 25 0 C24.01 1.485 24.01 1.485 23 3 C20.98461914 3.28051758 20.98461914 3.28051758 18.53515625 3.14453125 C17.65279297 3.09876953 16.77042969 3.05300781 15.86132812 3.00585938 C14.93771484 2.94205078 14.01410156 2.87824219 13.0625 2.8125 C12.14275391 2.76802734 11.22300781 2.72355469 10.27539062 2.67773438 C3.40800383 2.27200255 3.40800383 2.27200255 0 0 Z " fill="#053132" transform="translate(225,171)"/>
<path d="M0 0 C-0.33 0.99 -0.66 1.98 -1 3 C-1.78375 3.309375 -2.5675 3.61875 -3.375 3.9375 C-6.35103635 5.14208614 -7.31000453 6.33158609 -9 9 C-9.66 8.67 -10.32 8.34 -11 8 C-4.35887097 -2.17943548 -4.35887097 -2.17943548 0 0 Z " fill="#339BA2" transform="translate(218,95)"/>
<path d="M0 0 C0.99 0 1.98 0 3 0 C3 1.32 3 2.64 3 4 C5.64 4.33 8.28 4.66 11 5 C10.01 6.485 10.01 6.485 9 8 C9 7.34 9 6.68 9 6 C7.88625 6.061875 6.7725 6.12375 5.625 6.1875 C4.42875 6.125625 3.2325 6.06375 2 6 C0 3 0 3 0 0 Z " fill="#DEF9ED" transform="translate(371,202)"/>
<path d="M0 0 C0.66 0.33 1.32 0.66 2 1 C2 1.66 2 2.32 2 3 C2.33 3.33 2.66 3.66 3 4 C1.92598892 6.91517292 1.22189824 8.77810176 -1 11 C-1.66 10.34 -2.32 9.68 -3 9 C-2.01 6.03 -1.02 3.06 0 0 Z " fill="#2FB362" transform="translate(46,164)"/>
<path d="M0 0 C0.99 0.33 1.98 0.66 3 1 C3 1.66 3 2.32 3 3 C3.66 3 4.32 3 5 3 C5 3.66 5 4.32 5 5 C5.66 5.33 6.32 5.66 7 6 C6.67 6.66 6.34 7.32 6 8 C3 7 3 7 1 5 C0.34 5 -0.32 5 -1 5 C-0.67 3.35 -0.34 1.7 0 0 Z " fill="#2BAC5C" transform="translate(437,64)"/>
<path d="M0 0 C4.72065967 1.54269924 9.41664092 3.07794619 14 5 C13.67 5.66 13.34 6.32 13 7 C3.40546697 4.29384966 3.40546697 4.29384966 0 0 Z " fill="#359EA1" transform="translate(213,164)"/>
<path d="M0 0 C0.66 0.99 1.32 1.98 2 3 C1.42578125 5.2265625 1.42578125 5.2265625 0.3125 7.625 C-0.04199219 8.42164063 -0.39648438 9.21828125 -0.76171875 10.0390625 C-2 12 -2 12 -5 13 C-4.731875 12.34 -4.46375 11.68 -4.1875 11 C-2.74294953 7.35060933 -1.37128822 3.67754567 0 0 Z " fill="#032720" transform="translate(271,147)"/>
<path d="M0 0 C1.13643966 3.40931897 0.86747764 4.00335456 -0.4375 7.1875 C-0.72496094 7.90292969 -1.01242187 8.61835938 -1.30859375 9.35546875 C-1.53675781 9.89816406 -1.76492188 10.44085938 -2 11 C-3.32 9.68 -4.64 8.36 -6 7 C-4.02 4.69 -2.04 2.38 0 0 Z " fill="#39AE8F" transform="translate(271,144)"/>
<path d="M0 0 C0.99 0.33 1.98 0.66 3 1 C2.67 1.99 2.34 2.98 2 4 C7.28 4 12.56 4 18 4 C18 4.33 18 4.66 18 5 C12.06 5 6.12 5 0 5 C0 3.35 0 1.7 0 0 Z " fill="#32A85C" transform="translate(417,127)"/>
<path d="M0 0 C0.66 0.33 1.32 0.66 2 1 C0.04783565 2.95216435 -1.53199953 3.84826645 -4 5 C-4 5.66 -4 6.32 -4 7 C-5.65 7 -7.3 7 -9 7 C-8.01 6.67 -7.02 6.34 -6 6 C-6.66 5.34 -7.32 4.68 -8 4 C-8.33 3.34 -8.66 2.68 -9 2 C-6.94921875 1.77213542 -4.8984375 1.54427083 -2.84765625 1.31640625 C-0.98859771 1.18113386 -0.98859771 1.18113386 0 0 Z " fill="#2CA85A" transform="translate(380,217)"/>
<path d="M0 0 C0.53109375 0.31710938 1.0621875 0.63421875 1.609375 0.9609375 C4.54535848 2.2370349 7.06174329 2.41707021 10.25 2.625 C11.32765625 2.69976562 12.4053125 2.77453125 13.515625 2.8515625 C14.33546875 2.90054688 15.1553125 2.94953125 16 3 C16 3.33 16 3.66 16 4 C13.5622037 4.05397335 11.12560315 4.09365616 8.6875 4.125 C7.65206055 4.15013672 7.65206055 4.15013672 6.59570312 4.17578125 C2.82864604 4.21217794 1.21568296 4.14378864 -2 2 C-1.34 1.34 -0.68 0.68 0 0 Z " fill="#3AB3AD" transform="translate(228,168)"/>
<path d="M0 0 C0.99 0.33 1.98 0.66 3 1 C3 1.66 3 2.32 3 3 C3.66 3 4.32 3 5 3 C5 3.66 5 4.32 5 5 C5.66 5 6.32 5 7 5 C7.33 6.32 7.66 7.64 8 9 C6.70684939 8.04367001 5.41553147 7.08486149 4.125 6.125 C3.40570313 5.59132812 2.68640625 5.05765625 1.9453125 4.5078125 C0 3 0 3 -2 1 C-1.34 0.67 -0.68 0.34 0 0 Z " fill="#30A6A3" transform="translate(200,151)"/>
<path d="M0 0 C0.99 0.33 1.98 0.66 3 1 C3.66 0.67 4.32 0.34 5 0 C5.66 1.32 6.32 2.64 7 4 C3.52176885 5.15941038 1.54104422 4.70820884 -2 4 C-1.34 2.68 -0.68 1.36 0 0 Z " fill="#2DA959" transform="translate(69,72)"/>
<path d="M0 0 C1.65 0 3.3 0 5 0 C5 1.98 5 3.96 5 6 C3.68 6 2.36 6 1 6 C0.67 4.02 0.34 2.04 0 0 Z " fill="#4B4B4B" transform="translate(119,67)"/>
<path d="M0 0 C1.3303125 0.7115625 1.3303125 0.7115625 2.6875 1.4375 C5.57042756 2.79737149 7.87610623 3.54060386 11 4 C11 4.66 11 5.32 11 6 C7.0507432 5.44894091 3.65079826 4.61064629 0 3 C0 2.01 0 1.02 0 0 Z " fill="#2DB29F" transform="translate(239,150)"/>
<path d="M0 0 C1.98 0 3.96 0 6 0 C6.33 1.65 6.66 3.3 7 5 C7.66 5 8.32 5 9 5 C8.67 5.66 8.34 6.32 8 7 C6.66382648 6.02471263 5.3311249 5.04466681 4 4.0625 C3.2575 3.51722656 2.515 2.97195312 1.75 2.41015625 C1.1725 1.94480469 0.595 1.47945313 0 1 C0 0.67 0 0.34 0 0 Z " fill="#2FADAB" transform="translate(239,115)"/>
<path d="M0 0 C1.12588014 0.95729916 2.2506715 1.91587895 3.375 2.875 C4.00148438 3.40867188 4.62796875 3.94234375 5.2734375 4.4921875 C6.55836651 5.61432007 7.79371975 6.79371975 9 8 C5.97580475 7.41196203 2.98241547 6.77321882 0 6 C0 4.02 0 2.04 0 0 Z " fill="#3FA26F" transform="translate(95,210)"/>
<path d="M0 0 C4.24822374 0.47202486 6.19989709 2.96655518 9 6 C8.01 6.495 8.01 6.495 7 7 C6.67 6.34 6.34 5.68 6 5 C5.01 5 4.02 5 3 5 C3 4.34 3 3.68 3 3 C1.68 2.67 0.36 2.34 -1 2 C-0.67 1.34 -0.34 0.68 0 0 Z " fill="#061E25" transform="translate(197,153)"/>
<path d="M0 0 C1.98 0.99 1.98 0.99 4 2 C3.01 4.64 2.02 7.28 1 10 C0.67 10 0.34 10 0 10 C0 6.7 0 3.4 0 0 Z " fill="#2AA254" transform="translate(417,134)"/>
<path d="M0 0 C6.875 3.75 6.875 3.75 8 6 C5.03 6 2.06 6 -1 6 C-0.01 5.34 0.98 4.68 2 4 C2 3.34 2 2.68 2 2 C1.34 2 0.68 2 0 2 C0 1.34 0 0.68 0 0 Z " fill="#082126" transform="translate(229,108)"/>
<path d="M0 0 C3.63 0.33 7.26 0.66 11 1 C10.67 2.32 10.34 3.64 10 5 C5.84585747 3.77263971 3.56311466 2.672336 0 0 Z " fill="#092E35" transform="translate(250,90)"/>
<path d="M0 0 C0.99 0 1.98 0 3 0 C2.41196203 3.02419525 1.77321882 6.01758453 1 9 C0.01 8.67 -0.98 8.34 -2 8 C-1.34 5.36 -0.68 2.72 0 0 Z " fill="#4A4E4D" transform="translate(124,45)"/>
<path d="M0 0 C-0.33 0.99 -0.66 1.98 -1 3 C-4.3 3 -7.6 3 -11 3 C-11 2.34 -11 1.68 -11 1 C-9.54182203 0.83197949 -8.0834516 0.66562857 -6.625 0.5 C-5.81289063 0.4071875 -5.00078125 0.314375 -4.1640625 0.21875 C-2 0 -2 0 0 0 Z " fill="#30BEAB" transform="translate(292,110)"/>
<path d="M0 0 C0.99 0.33 1.98 0.66 3 1 C3.36923077 5.55384615 3.36923077 5.55384615 1.5 7.8125 C1.005 8.204375 0.51 8.59625 0 9 C-1.53445094 5.93109813 -0.54984289 3.29905734 0 0 Z " fill="#0F0407" transform="translate(200,95)"/>
<path d="M0 0 C2 3 2 3 2 5 C1.34 5 0.68 5 0 5 C-0.66 6.98 -1.32 8.96 -2 11 C-3.2818632 8.4362736 -3.27122178 6.84782869 -3 4 C-1.5 1.6875 -1.5 1.6875 0 0 Z " fill="#1BA34F" transform="translate(77,72)"/>
<path d="M0 0 C1.65 0 3.3 0 5 0 C5.33 0.66 5.66 1.32 6 2 C5.34 2 4.68 2 4 2 C4 3.32 4 4.64 4 6 C2.68 5.34 1.36 4.68 0 4 C0 2.68 0 1.36 0 0 Z " fill="#DBF1E5" transform="translate(368,40)"/>
<path d="M0 0 C2.97 0 5.94 0 9 0 C9 0.66 9 1.32 9 2 C6.36 2.33 3.72 2.66 1 3 C0.67 2.01 0.34 1.02 0 0 Z " fill="#14C8B1" transform="translate(249,156)"/>
<path d="M0 0 C3.3 0.99 6.6 1.98 10 3 C9.01 3.99 8.02 4.98 7 6 C3.28139821 4.46126823 2.64366459 3.52488612 0 0 Z " fill="#062D29" transform="translate(235,145)"/>
<path d="M0 0 C3.3 0 6.6 0 10 0 C9.34 1.32 8.68 2.64 8 4 C7.34 4 6.68 4 6 4 C6 3.01 6 2.02 6 1 C4.02 1 2.04 1 0 1 C0 0.67 0 0.34 0 0 Z " fill="#22A6A8" transform="translate(190,148)"/>
<path d="M0 0 C2.64 0.33 5.28 0.66 8 1 C8 1.66 8 2.32 8 3 C8.66 3 9.32 3 10 3 C10 3.66 10 4.32 10 5 C5 3 5 3 0 1 C0 0.67 0 0.34 0 0 Z " fill="#062A30" transform="translate(218,134)"/>
<path d="M0 0 C-1 2 -1 2 -2.84765625 2.6328125 C-3.57855469 2.79523438 -4.30945313 2.95765625 -5.0625 3.125 C-6.16271484 3.37636719 -6.16271484 3.37636719 -7.28515625 3.6328125 C-7.85105469 3.75398438 -8.41695313 3.87515625 -9 4 C-8.67 3.01 -8.34 2.02 -8 1 C-5.07175348 0.02391783 -3.04386724 -0.08226668 0 0 Z " fill="#35B6A1" transform="translate(289,123)"/>
<path d="M0 0 C3.45925163 1.2491742 6.14693203 2.67527795 9 5 C5.14354879 5.22036864 2.50776784 4.60355101 -1 3 C-0.67 2.01 -0.34 1.02 0 0 Z " fill="#062628" transform="translate(245,121)"/>
<path d="M0 0 C1.65 0 3.3 0 5 0 C5.66 1.32 6.32 2.64 7 4 C4.03 3.505 4.03 3.505 1 3 C0.67 2.01 0.34 1.02 0 0 Z " fill="#07050D" transform="translate(232,114)"/>
<path d="M0 0 C0.99 1.32 1.98 2.64 3 4 C1.35 5.65 -0.3 7.3 -2 9 C-1.125 2.25 -1.125 2.25 0 0 Z " fill="#46878B" transform="translate(204,108)"/>
<path d="M0 0 C-0.33 2.31 -0.66 4.62 -1 7 C-1.33 7 -1.66 7 -2 7 C-2 5.35 -2 3.7 -2 2 C-3.98 2.33 -5.96 2.66 -8 3 C-7.67 2.34 -7.34 1.68 -7 1 C-4.61370553 0.38812962 -2.46459429 0 0 0 Z " fill="#2AB398" transform="translate(301,107)"/>
<path d="M0 0 C2.97 0.33 5.94 0.66 9 1 C9.33 2.32 9.66 3.64 10 5 C5 3 5 3 0 1 C0 0.67 0 0.34 0 0 Z " fill="#2F9AA0" transform="translate(225,106)"/>
<path d="M0 0 C0.66 0 1.32 0 2 0 C2.33 0.99 2.66 1.98 3 3 C2.34 3 1.68 3 1 3 C1 4.32 1 5.64 1 7 C-0.32 6.34 -1.64 5.68 -3 5 C-1.625 2.5 -1.625 2.5 0 0 Z " fill="#17C9B7" transform="translate(258,158)"/>
<path d="M0 0 C1.65 0 3.3 0 5 0 C5 0.66 5 1.32 5 2 C5.66 2 6.32 2 7 2 C7 2.66 7 3.32 7 4 C5.35 4 3.7 4 2 4 C2 3.01 2 2.02 2 1 C1.34 0.67 0.68 0.34 0 0 Z " fill="#090308" transform="translate(226,136)"/>
<path d="M0 0 C1.65 0 3.3 0 5 0 C5.33 0.99 5.66 1.98 6 3 C3.36 3.33 0.72 3.66 -2 4 C-1.34 2.68 -0.68 1.36 0 0 Z " fill="#13C7B0" transform="translate(283,120)"/>
<path d="M0 0 C-1 3 -1 3 -3.4375 4.75 C-4.7059375 5.36875 -4.7059375 5.36875 -6 6 C-6.66 5.67 -7.32 5.34 -8 5 C-3.375 0 -3.375 0 0 0 Z " fill="#072A30" transform="translate(212,109)"/>
<path d="M0 0 C1.65 0 3.3 0 5 0 C5 0.66 5 1.32 5 2 C5.66 2.66 6.32 3.32 7 4 C5.35 4 3.7 4 2 4 C1.34 2.68 0.68 1.36 0 0 Z " fill="#010A10" transform="translate(270,102)"/>
<path d="M0 0 C1.4540625 0.0309375 1.4540625 0.0309375 2.9375 0.0625 C-1.8125 4.9375 -1.8125 4.9375 -4.0625 6.0625 C-4.105221 4.39638095 -4.10313832 2.72867115 -4.0625 1.0625 C-3.0625 0.0625 -3.0625 0.0625 0 0 Z " fill="#37A05C" transform="translate(107.0625,38.9375)"/>
<path d="M0 0 C2.64 0 5.28 0 8 0 C4 2 4 2 0 4 C0 2.68 0 1.36 0 0 Z " fill="#24B25C" transform="translate(446,156)"/>
<path d="M0 0 C0.99 0.33 1.98 0.66 3 1 C3 1.66 3 2.32 3 3 C3.99 3.33 4.98 3.66 6 4 C5.67 5.32 5.34 6.64 5 8 C2.74754119 5.31158141 1.11786042 3.35358125 0 0 Z " fill="#1F9E4D" transform="translate(440,128)"/>
<path d="M0 0 C0.66 0.33 1.32 0.66 2 1 C2 2.32 2 3.64 2 5 C0.68 5 -0.64 5 -2 5 C-2 3.68 -2 2.36 -2 1 C-1.34 0.67 -0.68 0.34 0 0 Z " fill="#08D3B5" transform="translate(292,114)"/>
</svg>
